G04 ================== begin FILE IDENTIFICATION RECORD ==================*
G04 Layout Name:  imx415_to_22pin.brd*
G04 Film Name:    SilkscreenBtm*
G04 File Format:  Gerber RS274X*
G04 File Origin:  Cadence Allegro 17.4-S032*
G04 Origin Date:  Wed Jun 11 19:46:45 2025*
G04 *
G04 Layer:  REF DES/SILKSCREEN_BOTTOM*
G04 Layer:  PACKAGE GEOMETRY/SILKSCREEN_BOTTOM*
G04 Layer:  BOARD GEOMETRY/SILKSCREEN_BOTTOM*
G04 Layer:  BOARD GEOMETRY/OUTLINE*
G04 *
G04 Offset:    (0.0000 0.0000)*
G04 Mirror:    No*
G04 Mode:      Positive*
G04 Rotation:  0*
G04 FullContactRelief:  No*
G04 UndefLineWidth:     0.1524*
G04 ================== end FILE IDENTIFICATION RECORD ====================*
%FSLAX25Y25*MOMM*%
%IR0*IPPOS*OFA0.00000B0.00000*MIA0B0*SFA1.00000B1.00000*%
%ADD10C,.254*%
%ADD11C,.1524*%
%ADD12C,.1778*%
%ADD13C,.0254*%
G75*
%LPD*%
G75*
G54D10*
G01X-9858950Y-5132790D02*
X-9829220Y-5112710D01*
X-9794560Y-5099340D01*
X-9754940D01*
X-9710350Y-5119410D01*
X-9675690Y-5152850D01*
X-9650920Y-5192990D01*
X-9631100Y-5259870D01*
X-9626150Y-5320070D01*
X-9636060Y-5380270D01*
X-9650920Y-5420400D01*
X-9680640Y-5460540D01*
X-9715310Y-5487290D01*
X-9749980Y-5500660D01*
X-9784650D01*
X-9819320Y-5487290D01*
X-9849040Y-5467220D01*
X-9873810Y-5440470D01*
G01X-9789600Y4713380D02*
X-9809420Y4733440D01*
X-9824270Y4766880D01*
X-9834190Y4813710D01*
X-9824270Y4853840D01*
X-9804460Y4880590D01*
X-9769790Y4900660D01*
X-9636060D01*
Y4499340D01*
X-9799510D01*
X-9834190Y4526090D01*
X-9853990Y4566220D01*
X-9863900Y4613050D01*
X-9853990Y4659860D01*
X-9824270Y4699990D01*
X-9789600Y4713380D01*
X-9636060D01*
G01X-9626150Y14499340D02*
X-9749980Y14900660D01*
X-9873810Y14499340D01*
G01X-9829220Y14639800D02*
X-9670730D01*
G01X-7246320Y-8074270D02*
X-7265280Y-8090350D01*
X-7286620Y-8100000D01*
X-7305580D01*
X-7324550Y-8090350D01*
X-7338770Y-8074270D01*
X-7345880Y-8051740D01*
X-7341140Y-8029220D01*
X-7329290Y-8009920D01*
X-7307950Y-7997040D01*
X-7279510Y-7990610D01*
X-7262910Y-7977740D01*
X-7255800Y-7955220D01*
X-7260540Y-7932700D01*
X-7272390Y-7916620D01*
X-7288990Y-7906960D01*
X-7305580D01*
X-7322180Y-7913390D01*
X-7336400Y-7929480D01*
G01X-7413960Y-8100000D02*
Y-7906960D01*
G01X-7513520D02*
Y-8100000D01*
G01Y-8003480D02*
X-7413960D01*
G01X-7678790Y-8100000D02*
X-7583970D01*
Y-7906960D01*
X-7678790D01*
G01X-7640860Y-8000260D02*
X-7583970D01*
G01X-7846430Y-8100000D02*
X-7751610D01*
Y-7906960D01*
X-7846430D01*
G01X-7808500Y-8000260D02*
X-7751610D01*
G01X-7966660Y-7906960D02*
Y-8100000D01*
G01X-7912140Y-7906960D02*
X-8021180D01*
G01X-8301940Y-8100000D02*
Y-7906960D01*
X-8273490Y-7945570D01*
G01Y-8100000D02*
X-8330380D01*
G01X-8637220D02*
X-8618250Y-8096780D01*
X-8601660Y-8083920D01*
X-8587440Y-8064610D01*
X-8577950Y-8042090D01*
X-8573210Y-8016350D01*
Y-7990610D01*
X-8577950Y-7964870D01*
X-8587440Y-7942350D01*
X-8601660Y-7923050D01*
X-8618250Y-7910180D01*
X-8637220Y-7906960D01*
X-8656180Y-7910180D01*
X-8672780Y-7923050D01*
X-8687000Y-7942350D01*
X-8696490Y-7964870D01*
X-8701230Y-7990610D01*
Y-8016350D01*
X-8696490Y-8042090D01*
X-8687000Y-8064610D01*
X-8672780Y-8083920D01*
X-8656180Y-8096780D01*
X-8637220Y-8100000D01*
G01X-8759820D02*
Y-7906960D01*
X-8849900D01*
G01X-8816710Y-8000260D02*
X-8759820D01*
G01X-9140140Y-8100000D02*
Y-7906960D01*
X-9111690Y-7945570D01*
G01Y-8100000D02*
X-9168580D01*
G01X-7244660Y-6982500D02*
X-7343090Y-7300000D01*
X-7441520Y-6982500D01*
G01X-7617410Y-7300000D02*
Y-6982500D01*
X-7570170Y-7046000D01*
G01Y-7300000D02*
X-7664650D01*
G01X-7891730Y-6982500D02*
X-7860230Y-6993080D01*
X-7836610Y-7019540D01*
X-7820860Y-7051290D01*
X-7809050Y-7093630D01*
X-7805120Y-7141250D01*
X-7809050Y-7188880D01*
X-7820860Y-7231210D01*
X-7836610Y-7262970D01*
X-7860230Y-7289420D01*
X-7891730Y-7300000D01*
X-7923220Y-7289420D01*
X-7946850Y-7262970D01*
X-7962600Y-7231210D01*
X-7974410Y-7188880D01*
X-7978340Y-7141250D01*
X-7974410Y-7093630D01*
X-7962600Y-7051290D01*
X-7946850Y-7019540D01*
X-7923220Y-6993080D01*
X-7891730Y-6982500D01*
G01X-8166050D02*
X-8134550Y-6993080D01*
X-8110930Y-7019540D01*
X-8095180Y-7051290D01*
X-8083370Y-7093630D01*
X-8079440Y-7141250D01*
X-8083370Y-7188880D01*
X-8095180Y-7231210D01*
X-8110930Y-7262970D01*
X-8134550Y-7289420D01*
X-8166050Y-7300000D01*
X-8197540Y-7289420D01*
X-8221170Y-7262970D01*
X-8236920Y-7231210D01*
X-8248730Y-7188880D01*
X-8252660Y-7141250D01*
X-8248730Y-7093630D01*
X-8236920Y-7051290D01*
X-8221170Y-7019540D01*
X-8197540Y-6993080D01*
X-8166050Y-6982500D01*
G01X-8361630Y-7300000D02*
Y-6982500D01*
X-8460050D01*
X-8491550Y-6998380D01*
X-8511240Y-7019540D01*
X-8519110Y-7061880D01*
X-8511240Y-7104210D01*
X-8487610Y-7130660D01*
X-8460050Y-7146550D01*
X-8361630D01*
G01X-8460050D02*
X-8519110Y-7300000D01*
G01X-8714690Y-6982500D02*
X-8683190Y-6993080D01*
X-8659570Y-7019540D01*
X-8643820Y-7051290D01*
X-8632010Y-7093630D01*
X-8628080Y-7141250D01*
X-8632010Y-7188880D01*
X-8643820Y-7231210D01*
X-8659570Y-7262970D01*
X-8683190Y-7289420D01*
X-8714690Y-7300000D01*
X-8746180Y-7289420D01*
X-8769810Y-7262970D01*
X-8785560Y-7231210D01*
X-8797370Y-7188880D01*
X-8801300Y-7141250D01*
X-8797370Y-7093630D01*
X-8785560Y-7051290D01*
X-8769810Y-7019540D01*
X-8746180Y-6993080D01*
X-8714690Y-6982500D01*
G01X-8989010D02*
X-8957510Y-6993080D01*
X-8933890Y-7019540D01*
X-8918140Y-7051290D01*
X-8906330Y-7093630D01*
X-8902400Y-7141250D01*
X-8906330Y-7188880D01*
X-8918140Y-7231210D01*
X-8933890Y-7262970D01*
X-8957510Y-7289420D01*
X-8989010Y-7300000D01*
X-9020500Y-7289420D01*
X-9044130Y-7262970D01*
X-9059880Y-7231210D01*
X-9071690Y-7188880D01*
X-9075620Y-7141250D01*
X-9071690Y-7093630D01*
X-9059880Y-7051290D01*
X-9044130Y-7019540D01*
X-9020500Y-6993080D01*
X-8989010Y-6982500D01*
G01X-9263330Y-7300000D02*
Y-6982500D01*
X-9216090Y-7046000D01*
G01Y-7300000D02*
X-9310570D01*
G01X-5743950Y-9100000D02*
Y-8906960D01*
X-5791360D01*
X-5810320Y-8916620D01*
X-5824550Y-8929480D01*
X-5836400Y-8948780D01*
X-5845880Y-8971310D01*
X-5848250Y-9003480D01*
X-5845880Y-9035660D01*
X-5836400Y-9058180D01*
X-5824550Y-9077480D01*
X-5810320Y-9090350D01*
X-5791360Y-9100000D01*
X-5743950D01*
G01X-5916330D02*
Y-8906960D01*
X-5975590D01*
X-5994560Y-8916620D01*
X-6006410Y-8929480D01*
X-6011150Y-8955220D01*
X-6006410Y-8980960D01*
X-5992190Y-8997040D01*
X-5975590Y-9006700D01*
X-5916330D01*
G01X-5975590D02*
X-6011150Y-9100000D01*
G01X-6131380D02*
X-6112410Y-9096780D01*
X-6095820Y-9083920D01*
X-6081600Y-9064610D01*
X-6072110Y-9042090D01*
X-6067370Y-9016350D01*
Y-8990610D01*
X-6072110Y-8964870D01*
X-6081600Y-8942350D01*
X-6095820Y-8923050D01*
X-6112410Y-8910180D01*
X-6131380Y-8906960D01*
X-6150340Y-8910180D01*
X-6166940Y-8923050D01*
X-6181160Y-8942350D01*
X-6190650Y-8964870D01*
X-6195390Y-8990610D01*
Y-9016350D01*
X-6190650Y-9042090D01*
X-6181160Y-9064610D01*
X-6166940Y-9083920D01*
X-6150340Y-9096780D01*
X-6131380Y-9100000D01*
G01X-6227900Y-8906960D02*
X-6261090Y-9100000D01*
X-6299020Y-8906960D01*
X-6336950Y-9100000D01*
X-6370140Y-8906960D01*
G01X-6412140Y-9100000D02*
Y-8906960D01*
X-6521180Y-9100000D01*
Y-8906960D01*
G01X-6747420Y-9100000D02*
Y-8906960D01*
X-6856460Y-9100000D01*
Y-8906960D01*
G01X-6969580Y-9100000D02*
X-6950610Y-9096780D01*
X-6934020Y-9083920D01*
X-6919800Y-9064610D01*
X-6910310Y-9042090D01*
X-6905570Y-9016350D01*
Y-8990610D01*
X-6910310Y-8964870D01*
X-6919800Y-8942350D01*
X-6934020Y-8923050D01*
X-6950610Y-8910180D01*
X-6969580Y-8906960D01*
X-6988540Y-8910180D01*
X-7005140Y-8923050D01*
X-7019360Y-8942350D01*
X-7028850Y-8964870D01*
X-7033590Y-8990610D01*
Y-9016350D01*
X-7028850Y-9042090D01*
X-7019360Y-9064610D01*
X-7005140Y-9083920D01*
X-6988540Y-9096780D01*
X-6969580Y-9100000D01*
G01X-7304860Y-9106430D02*
X-7300120Y-9103220D01*
Y-9096780D01*
X-7304860Y-9093570D01*
X-7309600Y-9096780D01*
Y-9103220D01*
X-7304860Y-9106430D01*
G01Y-9019570D02*
X-7300120Y-9016350D01*
Y-9009920D01*
X-7304860Y-9006700D01*
X-7309600Y-9009920D01*
Y-9016350D01*
X-7304860Y-9019570D01*
G01X-4774510Y-6200000D02*
Y-5798680D01*
X-4893380D01*
X-4933010Y-5818750D01*
X-4962730Y-5865560D01*
X-4972630Y-5919070D01*
X-4962730Y-5972580D01*
X-4937960Y-6012720D01*
X-4893380Y-6032790D01*
X-4774510D01*
G01X-5122490Y-6200000D02*
Y-5798680D01*
X-5246310D01*
X-5285940Y-5818750D01*
X-5310710Y-5845500D01*
X-5320610Y-5899010D01*
X-5310710Y-5952520D01*
X-5280990Y-5985960D01*
X-5246310Y-6006030D01*
X-5122490D01*
G01X-5246310D02*
X-5320610Y-6200000D01*
G01X-5470470Y-6119740D02*
X-5495240Y-6159880D01*
X-5524950Y-6186630D01*
X-5559620Y-6200000D01*
X-5599250Y-6186630D01*
X-5628970Y-6159880D01*
X-5658690Y-6119740D01*
X-5668590Y-6066230D01*
Y-5798680D01*
G01X-6151570Y-6200000D02*
Y-5798680D01*
X-6379410Y-6200000D01*
Y-5798680D01*
G01X-6489640Y-6200000D02*
X-6613470Y-5798680D01*
X-6737300Y-6200000D01*
G01X-6692710Y-6059540D02*
X-6534220D01*
G01X-6832670Y-6200000D02*
Y-5798680D01*
X-6961450Y-6133120D01*
X-7090230Y-5798680D01*
Y-6200000D01*
G01X-7408490D02*
X-7210370D01*
Y-5798680D01*
X-7408490D01*
G01X-7329240Y-5992650D02*
X-7210370D01*
G01X-5773570Y-8300000D02*
Y-7898680D01*
X-5714130Y-7978940D01*
G01Y-8300000D02*
X-5833000D01*
G01X-6121550Y-8313370D02*
X-6111640Y-8306690D01*
Y-8293310D01*
X-6121550Y-8286630D01*
X-6131460Y-8293310D01*
Y-8306690D01*
X-6121550Y-8313370D01*
G01Y-8132790D02*
X-6111640Y-8126100D01*
Y-8112720D01*
X-6121550Y-8106030D01*
X-6131460Y-8112720D01*
Y-8126100D01*
X-6121550Y-8132790D01*
G01X-6469530Y-8300000D02*
Y-7898680D01*
X-6410090Y-7978940D01*
G01Y-8300000D02*
X-6528960D01*
G01X-5949740Y-7300000D02*
X-6073570Y-6898680D01*
X-6197400Y-7300000D01*
G01X-6152810Y-7159540D02*
X-5994320D01*
G01X-6312580Y-7219740D02*
X-6342300Y-7266560D01*
X-6381920Y-7293310D01*
X-6426510Y-7300000D01*
X-6466130Y-7293310D01*
X-6505760Y-7259880D01*
X-6530520Y-7219740D01*
X-6535470Y-7179610D01*
X-6525560Y-7132790D01*
X-6490890Y-7099350D01*
X-6456220Y-7085960D01*
X-6411640D01*
G01X-6456220D02*
X-6485940Y-7065900D01*
X-6510710Y-7032460D01*
X-6520610Y-6992330D01*
X-6510710Y-6952190D01*
X-6485940Y-6918750D01*
X-6441360Y-6898680D01*
X-6396790Y-6905370D01*
X-6352210Y-6932130D01*
G01X-1951060Y-9239130D02*
X-1965280Y-9219830D01*
X-1981880Y-9210180D01*
X-2000840Y-9206960D01*
X-2024550Y-9213390D01*
X-2041140Y-9229480D01*
X-2045880Y-9248780D01*
X-2043510Y-9268090D01*
X-2034030Y-9284180D01*
X-1986620Y-9316350D01*
X-1965280Y-9338870D01*
X-1951060Y-9371050D01*
X-1946320Y-9400000D01*
X-2045880D01*
G01X-2163740Y-9206960D02*
X-2144770Y-9213390D01*
X-2130550Y-9229480D01*
X-2121070Y-9248780D01*
X-2113960Y-9274530D01*
X-2111590Y-9303480D01*
X-2113960Y-9332440D01*
X-2121070Y-9358180D01*
X-2130550Y-9377480D01*
X-2144770Y-9393570D01*
X-2163740Y-9400000D01*
X-2182700Y-9393570D01*
X-2196930Y-9377480D01*
X-2206410Y-9358180D01*
X-2213520Y-9332440D01*
X-2215890Y-9303480D01*
X-2213520Y-9274530D01*
X-2206410Y-9248780D01*
X-2196930Y-9229480D01*
X-2182700Y-9213390D01*
X-2163740Y-9206960D01*
G01X-2331380Y-9400000D02*
Y-9206960D01*
X-2302930Y-9245570D01*
G01Y-9400000D02*
X-2359820D01*
G01X-2499020D02*
X-2515610Y-9396780D01*
X-2534580Y-9387130D01*
X-2546430Y-9371050D01*
X-2551170Y-9348520D01*
X-2546430Y-9326010D01*
X-2532210Y-9306700D01*
X-2510870Y-9297040D01*
X-2487170D01*
X-2472940Y-9290610D01*
X-2461090Y-9274530D01*
X-2456350Y-9252000D01*
X-2463460Y-9229480D01*
X-2480050Y-9213390D01*
X-2499020Y-9206960D01*
X-2517980Y-9213390D01*
X-2534580Y-9229480D01*
X-2541690Y-9252000D01*
X-2536950Y-9274530D01*
X-2525100Y-9290610D01*
X-2510870Y-9297040D01*
X-2487170D01*
X-2465830Y-9306700D01*
X-2451610Y-9326010D01*
X-2446870Y-9348520D01*
X-2451610Y-9371050D01*
X-2463460Y-9387130D01*
X-2482430Y-9396780D01*
X-2499020Y-9400000D01*
G01X-2635840Y-9335660D02*
X-2697480D01*
G01X-2834300Y-9206960D02*
X-2815330Y-9213390D01*
X-2801110Y-9229480D01*
X-2791630Y-9248780D01*
X-2784520Y-9274530D01*
X-2782150Y-9303480D01*
X-2784520Y-9332440D01*
X-2791630Y-9358180D01*
X-2801110Y-9377480D01*
X-2815330Y-9393570D01*
X-2834300Y-9400000D01*
X-2853260Y-9393570D01*
X-2867490Y-9377480D01*
X-2876970Y-9358180D01*
X-2884080Y-9332440D01*
X-2886450Y-9303480D01*
X-2884080Y-9274530D01*
X-2876970Y-9248780D01*
X-2867490Y-9229480D01*
X-2853260Y-9213390D01*
X-2834300Y-9206960D01*
G01X-3001940Y-9400000D02*
Y-9206960D01*
X-2973490Y-9245570D01*
G01Y-9400000D02*
X-3030380D01*
G01X-3138760Y-9335660D02*
X-3200400D01*
G01X-3337220Y-9206960D02*
X-3318250Y-9213390D01*
X-3304030Y-9229480D01*
X-3294550Y-9248780D01*
X-3287440Y-9274530D01*
X-3285070Y-9303480D01*
X-3287440Y-9332440D01*
X-3294550Y-9358180D01*
X-3304030Y-9377480D01*
X-3318250Y-9393570D01*
X-3337220Y-9400000D01*
X-3356180Y-9393570D01*
X-3370410Y-9377480D01*
X-3379890Y-9358180D01*
X-3387000Y-9332440D01*
X-3389370Y-9303480D01*
X-3387000Y-9274530D01*
X-3379890Y-9248780D01*
X-3370410Y-9229480D01*
X-3356180Y-9213390D01*
X-3337220Y-9206960D01*
G01X-3459820Y-9239130D02*
X-3474040Y-9219830D01*
X-3490640Y-9210180D01*
X-3509600Y-9206960D01*
X-3533310Y-9213390D01*
X-3549900Y-9229480D01*
X-3554640Y-9248780D01*
X-3552270Y-9268090D01*
X-3542790Y-9284180D01*
X-3495380Y-9316350D01*
X-3474040Y-9338870D01*
X-3459820Y-9371050D01*
X-3455080Y-9400000D01*
X-3554640D01*
G01X-1941580Y-9100000D02*
Y-8906960D01*
X-2050620Y-9100000D01*
Y-8906960D01*
G01X-2135290D02*
X-2192180D01*
G01X-2163740D02*
Y-9100000D01*
G01X-2135290D02*
X-2192180D01*
G01X-2276860D02*
Y-8906960D01*
X-2385900Y-9100000D01*
Y-8906960D01*
G01X-2513240Y-9003480D02*
X-2560660D01*
Y-9061390D01*
X-2546430Y-9080700D01*
X-2529840Y-9093570D01*
X-2506130Y-9100000D01*
X-2482430Y-9093570D01*
X-2465830Y-9080700D01*
X-2451610Y-9061390D01*
X-2442120Y-9038870D01*
X-2437380Y-9013130D01*
Y-8990610D01*
X-2442120Y-8971310D01*
X-2451610Y-8948780D01*
X-2465830Y-8929480D01*
X-2480050Y-8916620D01*
X-2499020Y-8906960D01*
X-2515610D01*
X-2534580Y-8913390D01*
X-2548800Y-8926270D01*
G01X-2666660Y-9106430D02*
X-2661920Y-9103220D01*
Y-9096780D01*
X-2666660Y-9093570D01*
X-2671400Y-9096780D01*
Y-9103220D01*
X-2666660Y-9106430D01*
G01X-2786890Y-9061390D02*
X-2798740Y-9080700D01*
X-2812960Y-9093570D01*
X-2829560Y-9100000D01*
X-2848520Y-9093570D01*
X-2862750Y-9080700D01*
X-2876970Y-9061390D01*
X-2881710Y-9035660D01*
Y-8906960D01*
G01X-2973490D02*
X-3030380D01*
G01X-3001940D02*
Y-9100000D01*
G01X-2973490D02*
X-3030380D01*
G01X-3110310D02*
X-3169580Y-8906960D01*
X-3228850Y-9100000D01*
G01X-3207510Y-9032440D02*
X-3131650D01*
G01X-3282700Y-9100000D02*
Y-8906960D01*
X-3391740Y-9100000D01*
Y-8906960D01*
G01X-3457450D02*
Y-9100000D01*
X-3552270D01*
G01X-3644050Y-8906960D02*
X-3700940D01*
G01X-3672500D02*
Y-9100000D01*
G01X-3644050D02*
X-3700940D01*
G01X-1941580Y-8100000D02*
Y-7906960D01*
X-2050620Y-8100000D01*
Y-7906960D01*
G01X-2135290D02*
X-2192180D01*
G01X-2163740D02*
Y-8100000D01*
G01X-2135290D02*
X-2192180D01*
G01X-2276860D02*
Y-7906960D01*
X-2385900Y-8100000D01*
Y-7906960D01*
G01X-2513240Y-8003480D02*
X-2560660D01*
Y-8061390D01*
X-2546430Y-8080700D01*
X-2529840Y-8093570D01*
X-2506130Y-8100000D01*
X-2482430Y-8093570D01*
X-2465830Y-8080700D01*
X-2451610Y-8061390D01*
X-2442120Y-8038870D01*
X-2437380Y-8013130D01*
Y-7990610D01*
X-2442120Y-7971310D01*
X-2451610Y-7948780D01*
X-2465830Y-7929480D01*
X-2480050Y-7916620D01*
X-2499020Y-7906960D01*
X-2515610D01*
X-2534580Y-7913390D01*
X-2548800Y-7926270D01*
G01X-2666660Y-8106430D02*
X-2661920Y-8103220D01*
Y-8096780D01*
X-2666660Y-8093570D01*
X-2671400Y-8096780D01*
Y-8103220D01*
X-2666660Y-8106430D01*
G01X-2786890Y-8061390D02*
X-2798740Y-8080700D01*
X-2812960Y-8093570D01*
X-2829560Y-8100000D01*
X-2848520Y-8093570D01*
X-2862750Y-8080700D01*
X-2876970Y-8061390D01*
X-2881710Y-8035660D01*
Y-7906960D01*
G01X-2973490D02*
X-3030380D01*
G01X-3001940D02*
Y-8100000D01*
G01X-2973490D02*
X-3030380D01*
G01X-3110310D02*
X-3169580Y-7906960D01*
X-3228850Y-8100000D01*
G01X-3207510Y-8032440D02*
X-3131650D01*
G01X-3282700Y-8100000D02*
Y-7906960D01*
X-3391740Y-8100000D01*
Y-7906960D01*
G01X-3457450D02*
Y-8100000D01*
X-3552270D01*
G01X-3644050Y-7906960D02*
X-3700940D01*
G01X-3672500D02*
Y-8100000D01*
G01X-3644050D02*
X-3700940D01*
G01X-1951060Y-8239130D02*
X-1965280Y-8219830D01*
X-1981880Y-8210180D01*
X-2000840Y-8206960D01*
X-2024550Y-8213390D01*
X-2041140Y-8229480D01*
X-2045880Y-8248780D01*
X-2043510Y-8268090D01*
X-2034030Y-8284180D01*
X-1986620Y-8316350D01*
X-1965280Y-8338870D01*
X-1951060Y-8371050D01*
X-1946320Y-8400000D01*
X-2045880D01*
G01X-2163740Y-8206960D02*
X-2144770Y-8213390D01*
X-2130550Y-8229480D01*
X-2121070Y-8248780D01*
X-2113960Y-8274530D01*
X-2111590Y-8303480D01*
X-2113960Y-8332440D01*
X-2121070Y-8358180D01*
X-2130550Y-8377480D01*
X-2144770Y-8393570D01*
X-2163740Y-8400000D01*
X-2182700Y-8393570D01*
X-2196930Y-8377480D01*
X-2206410Y-8358180D01*
X-2213520Y-8332440D01*
X-2215890Y-8303480D01*
X-2213520Y-8274530D01*
X-2206410Y-8248780D01*
X-2196930Y-8229480D01*
X-2182700Y-8213390D01*
X-2163740Y-8206960D01*
G01X-2331380Y-8400000D02*
Y-8206960D01*
X-2302930Y-8245570D01*
G01Y-8400000D02*
X-2359820D01*
G01X-2499020D02*
X-2515610Y-8396780D01*
X-2534580Y-8387130D01*
X-2546430Y-8371050D01*
X-2551170Y-8348520D01*
X-2546430Y-8326010D01*
X-2532210Y-8306700D01*
X-2510870Y-8297040D01*
X-2487170D01*
X-2472940Y-8290610D01*
X-2461090Y-8274530D01*
X-2456350Y-8252000D01*
X-2463460Y-8229480D01*
X-2480050Y-8213390D01*
X-2499020Y-8206960D01*
X-2517980Y-8213390D01*
X-2534580Y-8229480D01*
X-2541690Y-8252000D01*
X-2536950Y-8274530D01*
X-2525100Y-8290610D01*
X-2510870Y-8297040D01*
X-2487170D01*
X-2465830Y-8306700D01*
X-2451610Y-8326010D01*
X-2446870Y-8348520D01*
X-2451610Y-8371050D01*
X-2463460Y-8387130D01*
X-2482430Y-8396780D01*
X-2499020Y-8400000D01*
G01X-2635840Y-8335660D02*
X-2697480D01*
G01X-2834300Y-8206960D02*
X-2815330Y-8213390D01*
X-2801110Y-8229480D01*
X-2791630Y-8248780D01*
X-2784520Y-8274530D01*
X-2782150Y-8303480D01*
X-2784520Y-8332440D01*
X-2791630Y-8358180D01*
X-2801110Y-8377480D01*
X-2815330Y-8393570D01*
X-2834300Y-8400000D01*
X-2853260Y-8393570D01*
X-2867490Y-8377480D01*
X-2876970Y-8358180D01*
X-2884080Y-8332440D01*
X-2886450Y-8303480D01*
X-2884080Y-8274530D01*
X-2876970Y-8248780D01*
X-2867490Y-8229480D01*
X-2853260Y-8213390D01*
X-2834300Y-8206960D01*
G01X-3001940Y-8400000D02*
Y-8206960D01*
X-2973490Y-8245570D01*
G01Y-8400000D02*
X-3030380D01*
G01X-3138760Y-8335660D02*
X-3200400D01*
G01X-3337220Y-8206960D02*
X-3318250Y-8213390D01*
X-3304030Y-8229480D01*
X-3294550Y-8248780D01*
X-3287440Y-8274530D01*
X-3285070Y-8303480D01*
X-3287440Y-8332440D01*
X-3294550Y-8358180D01*
X-3304030Y-8377480D01*
X-3318250Y-8393570D01*
X-3337220Y-8400000D01*
X-3356180Y-8393570D01*
X-3370410Y-8377480D01*
X-3379890Y-8358180D01*
X-3387000Y-8332440D01*
X-3389370Y-8303480D01*
X-3387000Y-8274530D01*
X-3379890Y-8248780D01*
X-3370410Y-8229480D01*
X-3356180Y-8213390D01*
X-3337220Y-8206960D01*
G01X-3459820Y-8239130D02*
X-3474040Y-8219830D01*
X-3490640Y-8210180D01*
X-3509600Y-8206960D01*
X-3533310Y-8213390D01*
X-3549900Y-8229480D01*
X-3554640Y-8248780D01*
X-3552270Y-8268090D01*
X-3542790Y-8284180D01*
X-3495380Y-8316350D01*
X-3474040Y-8338870D01*
X-3459820Y-8371050D01*
X-3455080Y-8400000D01*
X-3554640D01*
G01X-1951060Y-7239130D02*
X-1965280Y-7219830D01*
X-1981880Y-7210180D01*
X-2000840Y-7206960D01*
X-2024550Y-7213390D01*
X-2041140Y-7229480D01*
X-2045880Y-7248780D01*
X-2043510Y-7268090D01*
X-2034030Y-7284180D01*
X-1986620Y-7316350D01*
X-1965280Y-7338870D01*
X-1951060Y-7371050D01*
X-1946320Y-7400000D01*
X-2045880D01*
G01X-2163740Y-7206960D02*
X-2144770Y-7213390D01*
X-2130550Y-7229480D01*
X-2121070Y-7248780D01*
X-2113960Y-7274530D01*
X-2111590Y-7303480D01*
X-2113960Y-7332440D01*
X-2121070Y-7358180D01*
X-2130550Y-7377480D01*
X-2144770Y-7393570D01*
X-2163740Y-7400000D01*
X-2182700Y-7393570D01*
X-2196930Y-7377480D01*
X-2206410Y-7358180D01*
X-2213520Y-7332440D01*
X-2215890Y-7303480D01*
X-2213520Y-7274530D01*
X-2206410Y-7248780D01*
X-2196930Y-7229480D01*
X-2182700Y-7213390D01*
X-2163740Y-7206960D01*
G01X-2331380Y-7400000D02*
Y-7206960D01*
X-2302930Y-7245570D01*
G01Y-7400000D02*
X-2359820D01*
G01X-2499020D02*
X-2515610Y-7396780D01*
X-2534580Y-7387130D01*
X-2546430Y-7371050D01*
X-2551170Y-7348520D01*
X-2546430Y-7326010D01*
X-2532210Y-7306700D01*
X-2510870Y-7297040D01*
X-2487170D01*
X-2472940Y-7290610D01*
X-2461090Y-7274530D01*
X-2456350Y-7252000D01*
X-2463460Y-7229480D01*
X-2480050Y-7213390D01*
X-2499020Y-7206960D01*
X-2517980Y-7213390D01*
X-2534580Y-7229480D01*
X-2541690Y-7252000D01*
X-2536950Y-7274530D01*
X-2525100Y-7290610D01*
X-2510870Y-7297040D01*
X-2487170D01*
X-2465830Y-7306700D01*
X-2451610Y-7326010D01*
X-2446870Y-7348520D01*
X-2451610Y-7371050D01*
X-2463460Y-7387130D01*
X-2482430Y-7396780D01*
X-2499020Y-7400000D01*
G01X-2635840Y-7335660D02*
X-2697480D01*
G01X-2834300Y-7206960D02*
X-2815330Y-7213390D01*
X-2801110Y-7229480D01*
X-2791630Y-7248780D01*
X-2784520Y-7274530D01*
X-2782150Y-7303480D01*
X-2784520Y-7332440D01*
X-2791630Y-7358180D01*
X-2801110Y-7377480D01*
X-2815330Y-7393570D01*
X-2834300Y-7400000D01*
X-2853260Y-7393570D01*
X-2867490Y-7377480D01*
X-2876970Y-7358180D01*
X-2884080Y-7332440D01*
X-2886450Y-7303480D01*
X-2884080Y-7274530D01*
X-2876970Y-7248780D01*
X-2867490Y-7229480D01*
X-2853260Y-7213390D01*
X-2834300Y-7206960D01*
G01X-3001940Y-7400000D02*
Y-7206960D01*
X-2973490Y-7245570D01*
G01Y-7400000D02*
X-3030380D01*
G01X-3138760Y-7335660D02*
X-3200400D01*
G01X-3337220Y-7206960D02*
X-3318250Y-7213390D01*
X-3304030Y-7229480D01*
X-3294550Y-7248780D01*
X-3287440Y-7274530D01*
X-3285070Y-7303480D01*
X-3287440Y-7332440D01*
X-3294550Y-7358180D01*
X-3304030Y-7377480D01*
X-3318250Y-7393570D01*
X-3337220Y-7400000D01*
X-3356180Y-7393570D01*
X-3370410Y-7377480D01*
X-3379890Y-7358180D01*
X-3387000Y-7332440D01*
X-3389370Y-7303480D01*
X-3387000Y-7274530D01*
X-3379890Y-7248780D01*
X-3370410Y-7229480D01*
X-3356180Y-7213390D01*
X-3337220Y-7206960D01*
G01X-3459820Y-7239130D02*
X-3474040Y-7219830D01*
X-3490640Y-7210180D01*
X-3509600Y-7206960D01*
X-3533310Y-7213390D01*
X-3549900Y-7229480D01*
X-3554640Y-7248780D01*
X-3552270Y-7268090D01*
X-3542790Y-7284180D01*
X-3495380Y-7316350D01*
X-3474040Y-7338870D01*
X-3459820Y-7371050D01*
X-3455080Y-7400000D01*
X-3554640D01*
G01X-1941580Y-7100000D02*
Y-6906960D01*
X-2050620Y-7100000D01*
Y-6906960D01*
G01X-2135290D02*
X-2192180D01*
G01X-2163740D02*
Y-7100000D01*
G01X-2135290D02*
X-2192180D01*
G01X-2276860D02*
Y-6906960D01*
X-2385900Y-7100000D01*
Y-6906960D01*
G01X-2513240Y-7003480D02*
X-2560660D01*
Y-7061390D01*
X-2546430Y-7080700D01*
X-2529840Y-7093570D01*
X-2506130Y-7100000D01*
X-2482430Y-7093570D01*
X-2465830Y-7080700D01*
X-2451610Y-7061390D01*
X-2442120Y-7038870D01*
X-2437380Y-7013130D01*
Y-6990610D01*
X-2442120Y-6971310D01*
X-2451610Y-6948780D01*
X-2465830Y-6929480D01*
X-2480050Y-6916620D01*
X-2499020Y-6906960D01*
X-2515610D01*
X-2534580Y-6913390D01*
X-2548800Y-6926270D01*
G01X-2666660Y-7106430D02*
X-2661920Y-7103220D01*
Y-7096780D01*
X-2666660Y-7093570D01*
X-2671400Y-7096780D01*
Y-7103220D01*
X-2666660Y-7106430D01*
G01X-2786890Y-7061390D02*
X-2798740Y-7080700D01*
X-2812960Y-7093570D01*
X-2829560Y-7100000D01*
X-2848520Y-7093570D01*
X-2862750Y-7080700D01*
X-2876970Y-7061390D01*
X-2881710Y-7035660D01*
Y-6906960D01*
G01X-2973490D02*
X-3030380D01*
G01X-3001940D02*
Y-7100000D01*
G01X-2973490D02*
X-3030380D01*
G01X-3110310D02*
X-3169580Y-6906960D01*
X-3228850Y-7100000D01*
G01X-3207510Y-7032440D02*
X-3131650D01*
G01X-3282700Y-7100000D02*
Y-6906960D01*
X-3391740Y-7100000D01*
Y-6906960D01*
G01X-3457450D02*
Y-7100000D01*
X-3552270D01*
G01X-3644050Y-6906960D02*
X-3700940D01*
G01X-3672500D02*
Y-7100000D01*
G01X-3644050D02*
X-3700940D01*
G01X-3059440Y-9950660D02*
Y-9549340D01*
X-2876170Y-9836950D01*
X-3123830D01*
G01X-3059440Y19249340D02*
Y19650660D01*
X-2876170Y19363050D01*
X-3123830D01*
G01X7108970Y-9870400D02*
X7079250Y-9917220D01*
X7039630Y-9943970D01*
X6995040Y-9950660D01*
X6955420Y-9943970D01*
X6915790Y-9910540D01*
X6891030Y-9870400D01*
X6886080Y-9830270D01*
X6895990Y-9783450D01*
X6930660Y-9750010D01*
X6965330Y-9736620D01*
X7009910D01*
G01X6965330D02*
X6935610Y-9716560D01*
X6910840Y-9683120D01*
X6900940Y-9642990D01*
X6910840Y-9602850D01*
X6935610Y-9569410D01*
X6980190Y-9549340D01*
X7024760Y-9556030D01*
X7069340Y-9582790D01*
G01X7108970Y19329600D02*
X7079250Y19282780D01*
X7039630Y19256030D01*
X6995040Y19249340D01*
X6955420Y19256030D01*
X6915790Y19289460D01*
X6891030Y19329600D01*
X6886080Y19369730D01*
X6895990Y19416550D01*
X6930660Y19449990D01*
X6965330Y19463380D01*
X7009910D01*
G01X6965330D02*
X6935610Y19483440D01*
X6910840Y19516880D01*
X6900940Y19557010D01*
X6910840Y19597150D01*
X6935610Y19630590D01*
X6980190Y19650660D01*
X7024760Y19643970D01*
X7069340Y19617210D01*
G01X17094110Y-9616220D02*
X17064390Y-9576100D01*
X17029720Y-9556030D01*
X16990090Y-9549340D01*
X16940560Y-9562710D01*
X16905890Y-9596160D01*
X16895990Y-9636290D01*
X16900940Y-9676430D01*
X16920760Y-9709870D01*
X17019810Y-9776760D01*
X17064390Y-9823580D01*
X17094110Y-9890470D01*
X17104010Y-9950660D01*
X16895990D01*
G01X17094110Y19583780D02*
X17064390Y19623900D01*
X17029720Y19643970D01*
X16990090Y19650660D01*
X16940560Y19637290D01*
X16905890Y19603840D01*
X16895990Y19563710D01*
X16900940Y19523570D01*
X16920760Y19490130D01*
X17019810Y19423240D01*
X17064390Y19376420D01*
X17094110Y19309530D01*
X17104010Y19249340D01*
X16895990D01*
G01X27000000Y-9950660D02*
Y-9549340D01*
X27059440Y-9629600D01*
G01Y-9950660D02*
X26940570D01*
G01X27000000Y19249340D02*
Y19650660D01*
X27059440Y19570400D01*
G01Y19249340D02*
X26940570D01*
G01X31641050Y-5132790D02*
X31670780Y-5112710D01*
X31705440Y-5099340D01*
X31745060D01*
X31789650Y-5119410D01*
X31824310Y-5152850D01*
X31849080Y-5192990D01*
X31868900Y-5259870D01*
X31873850Y-5320070D01*
X31863940Y-5380270D01*
X31849080Y-5420400D01*
X31819360Y-5460540D01*
X31784690Y-5487290D01*
X31750020Y-5500660D01*
X31715350D01*
X31680680Y-5487290D01*
X31650960Y-5467220D01*
X31626190Y-5440470D01*
G01X31710400Y4713380D02*
X31690580Y4733440D01*
X31675730Y4766880D01*
X31665810Y4813710D01*
X31675730Y4853840D01*
X31695540Y4880590D01*
X31730210Y4900660D01*
X31863940D01*
Y4499340D01*
X31700490D01*
X31665810Y4526090D01*
X31646010Y4566220D01*
X31636100Y4613050D01*
X31646010Y4659860D01*
X31675730Y4699990D01*
X31710400Y4713380D01*
X31863940D01*
G01X31873850Y14499340D02*
X31750020Y14900660D01*
X31626190Y14499340D01*
G01X31670780Y14639800D02*
X31829270D01*
G54D11*
G01X-10000000Y19700000D02*
X-9999980D01*
Y-10000000D01*
X32000000D01*
G01X-9500000Y19200000D02*
X-9499980D01*
Y-9500000D01*
X31500000D01*
G01X-1499980Y-8500000D02*
X-9499980D01*
G01X-1499980Y-7500000D02*
X-9499980D01*
G01X-1499980Y-6500000D02*
X-9499980D01*
G01X-1499980Y-9500000D02*
Y-5500000D01*
X-9499980D01*
G01Y-300000D02*
X-9999980D01*
G01X-9499980Y9700000D02*
X-9999980D01*
G01X31500020Y19200000D02*
X-9500000D01*
G01X32000020Y19700000D02*
X-10000000D01*
G01X-8000000Y-9500000D02*
Y-10000000D01*
G01Y19700000D02*
Y19200000D01*
G01X-7000000Y-6500000D02*
Y-8500000D01*
G01X-5499980Y-6500000D02*
Y-9500000D01*
X-5399980D01*
G01X-4499980Y-5500000D02*
Y-6500000D01*
G01X0Y0D02*
X3000000D01*
Y3000000D01*
X0D01*
Y0D01*
G01X2000000Y-10000000D02*
Y-9500000D01*
G01Y19200000D02*
Y19700000D01*
G01X12000000Y-9500000D02*
Y-10000000D01*
G01Y19700000D02*
Y19200000D01*
G01X22000000Y-9500000D02*
Y-10000000D01*
G01Y19700000D02*
Y19200000D01*
G01X31500020D02*
Y-9500000D01*
X31500000D01*
G01X32000020Y-300000D02*
X31500020D01*
G01X32000020Y9700000D02*
X31500020D01*
G01X32000020Y19700000D02*
X31500020D01*
G01X32000020D02*
Y-10000000D01*
X32000000D01*
G54D12*
G01X-7241070Y-6800000D02*
Y-6670460D01*
X-7281280D01*
X-7294150Y-6676940D01*
X-7302200Y-6685570D01*
X-7305410Y-6702850D01*
X-7302200Y-6720120D01*
X-7292540Y-6730910D01*
X-7281280Y-6737390D01*
X-7241070D01*
G01X-7281280D02*
X-7305410Y-6800000D01*
G01X-7417170D02*
X-7352830D01*
Y-6670460D01*
X-7417170D01*
G01X-7391430Y-6733070D02*
X-7352830D01*
G01X-7456540Y-6670460D02*
X-7496760Y-6800000D01*
X-7536980Y-6670460D01*
G01X-7608520Y-6804320D02*
X-7605300Y-6802160D01*
Y-6797840D01*
X-7608520Y-6795680D01*
X-7611740Y-6797840D01*
Y-6802160D01*
X-7608520Y-6804320D01*
G01X-5739460Y-7782730D02*
X-5752330Y-7793520D01*
X-5766810Y-7800000D01*
X-5779670D01*
X-5792540Y-7793520D01*
X-5802200Y-7782730D01*
X-5807020Y-7767610D01*
X-5803810Y-7752500D01*
X-5795760Y-7739550D01*
X-5781280Y-7730910D01*
X-5761980Y-7726590D01*
X-5750720Y-7717960D01*
X-5745890Y-7702850D01*
X-5749110Y-7687730D01*
X-5757150Y-7676940D01*
X-5768410Y-7670460D01*
X-5779670D01*
X-5790940Y-7674780D01*
X-5800590Y-7685570D01*
G01X-5920390Y-7681260D02*
X-5910740Y-7674780D01*
X-5899480Y-7670460D01*
X-5886610D01*
X-5872130Y-7676940D01*
X-5860870Y-7687730D01*
X-5852830Y-7700690D01*
X-5846390Y-7722280D01*
X-5844780Y-7741710D01*
X-5848000Y-7761140D01*
X-5852830Y-7774090D01*
X-5862480Y-7787050D01*
X-5873740Y-7795680D01*
X-5885000Y-7800000D01*
X-5896260D01*
X-5907520Y-7795680D01*
X-5917170Y-7789210D01*
X-5925220Y-7780570D01*
G01X-5956540Y-7800000D02*
X-5996760Y-7670460D01*
X-6036980Y-7800000D01*
G01X-6022500Y-7754660D02*
X-5971020D01*
G01X-6076350Y-7670460D02*
Y-7800000D01*
X-6140690D01*
G01X-6252450D02*
X-6188110D01*
Y-7670460D01*
X-6252450D01*
G01X-6226710Y-7733070D02*
X-6188110D01*
G01X-5739460Y-6782730D02*
X-5752330Y-6793520D01*
X-5766810Y-6800000D01*
X-5779670D01*
X-5792540Y-6793520D01*
X-5802200Y-6782730D01*
X-5807020Y-6767610D01*
X-5803810Y-6752500D01*
X-5795760Y-6739550D01*
X-5781280Y-6730910D01*
X-5761980Y-6726590D01*
X-5750720Y-6717960D01*
X-5745890Y-6702850D01*
X-5749110Y-6687730D01*
X-5757150Y-6676940D01*
X-5768410Y-6670460D01*
X-5779670D01*
X-5790940Y-6674780D01*
X-5800590Y-6685570D01*
G01X-5865700Y-6670460D02*
X-5904300D01*
G01X-5885000D02*
Y-6800000D01*
G01X-5865700D02*
X-5904300D01*
G01X-5966190Y-6670460D02*
X-6027330D01*
X-5966190Y-6800000D01*
X-6027330D01*
G01X-6140690D02*
X-6076350D01*
Y-6670460D01*
X-6140690D01*
G01X-6114950Y-6733070D02*
X-6076350D01*
G01X-1733020Y-8800000D02*
X-1773240Y-8670460D01*
X-1813460Y-8800000D01*
G01X-1798980Y-8754660D02*
X-1747500D01*
G01X-1852830Y-8800000D02*
Y-8670460D01*
X-1891430D01*
X-1904300Y-8676940D01*
X-1913960Y-8692050D01*
X-1917170Y-8709320D01*
X-1913960Y-8726590D01*
X-1905910Y-8739550D01*
X-1891430Y-8746030D01*
X-1852830D01*
G01X-1964590Y-8800000D02*
Y-8670460D01*
X-2003190D01*
X-2016060Y-8676940D01*
X-2025720Y-8692050D01*
X-2028930Y-8709320D01*
X-2025720Y-8726590D01*
X-2017670Y-8739550D01*
X-2003190Y-8746030D01*
X-1964590D01*
G01X-2076350Y-8800000D02*
Y-8670460D01*
X-2116560D01*
X-2129430Y-8676940D01*
X-2137480Y-8685570D01*
X-2140690Y-8702850D01*
X-2137480Y-8720120D01*
X-2127820Y-8730910D01*
X-2116560Y-8737390D01*
X-2076350D01*
G01X-2116560D02*
X-2140690Y-8800000D01*
G01X-2220280D02*
X-2207410Y-8797840D01*
X-2196150Y-8789210D01*
X-2186500Y-8776250D01*
X-2180060Y-8761140D01*
X-2176840Y-8743870D01*
Y-8726590D01*
X-2180060Y-8709320D01*
X-2186500Y-8694210D01*
X-2196150Y-8681260D01*
X-2207410Y-8672620D01*
X-2220280Y-8670460D01*
X-2233150Y-8672620D01*
X-2244410Y-8681260D01*
X-2254060Y-8694210D01*
X-2260500Y-8709320D01*
X-2263720Y-8726590D01*
Y-8743870D01*
X-2260500Y-8761140D01*
X-2254060Y-8776250D01*
X-2244410Y-8789210D01*
X-2233150Y-8797840D01*
X-2220280Y-8800000D01*
G01X-2291820Y-8670460D02*
X-2332040Y-8800000D01*
X-2372260Y-8670460D01*
G01X-2403580Y-8800000D02*
X-2443800Y-8670460D01*
X-2484020Y-8800000D01*
G01X-2469540Y-8754660D02*
X-2418060D01*
G01X-2523390Y-8670460D02*
Y-8800000D01*
X-2587730D01*
G01X-2791950Y-8730910D02*
X-2798380Y-8724440D01*
X-2803210Y-8713640D01*
X-2806430Y-8698520D01*
X-2803210Y-8685570D01*
X-2796780Y-8676940D01*
X-2785510Y-8670460D01*
X-2742080D01*
Y-8800000D01*
X-2795170D01*
X-2806430Y-8791370D01*
X-2812860Y-8778410D01*
X-2816080Y-8763300D01*
X-2812860Y-8748190D01*
X-2803210Y-8735230D01*
X-2791950Y-8730910D01*
X-2742080D01*
G01X-2890840Y-8800000D02*
Y-8741710D01*
X-2858670Y-8670460D01*
G01X-2923010D02*
X-2890840Y-8741710D01*
G01X-3114360Y-8804320D02*
X-3111140Y-8802160D01*
Y-8797840D01*
X-3114360Y-8795680D01*
X-3117580Y-8797840D01*
Y-8802160D01*
X-3114360Y-8804320D01*
G01Y-8746030D02*
X-3111140Y-8743870D01*
Y-8739550D01*
X-3114360Y-8737390D01*
X-3117580Y-8739550D01*
Y-8743870D01*
X-3114360Y-8746030D01*
G01X-1808630Y-7681260D02*
X-1798980Y-7674780D01*
X-1787720Y-7670460D01*
X-1774850D01*
X-1760370Y-7676940D01*
X-1749110Y-7687730D01*
X-1741070Y-7700690D01*
X-1734630Y-7722280D01*
X-1733020Y-7741710D01*
X-1736240Y-7761140D01*
X-1741070Y-7774090D01*
X-1750720Y-7787050D01*
X-1761980Y-7795680D01*
X-1773240Y-7800000D01*
X-1784500D01*
X-1795760Y-7795680D01*
X-1805410Y-7789210D01*
X-1813460Y-7780570D01*
G01X-1851220Y-7800000D02*
Y-7670460D01*
G01X-1918780D02*
Y-7800000D01*
G01Y-7735230D02*
X-1851220D01*
G01X-2028930Y-7800000D02*
X-1964590D01*
Y-7670460D01*
X-2028930D01*
G01X-2003190Y-7733070D02*
X-1964590D01*
G01X-2143910Y-7681260D02*
X-2134260Y-7674780D01*
X-2123000Y-7670460D01*
X-2110130D01*
X-2095650Y-7676940D01*
X-2084390Y-7687730D01*
X-2076350Y-7700690D01*
X-2069910Y-7722280D01*
X-2068300Y-7741710D01*
X-2071520Y-7761140D01*
X-2076350Y-7774090D01*
X-2086000Y-7787050D01*
X-2097260Y-7795680D01*
X-2108520Y-7800000D01*
X-2119780D01*
X-2131040Y-7795680D01*
X-2140690Y-7789210D01*
X-2148740Y-7780570D01*
G01X-2184890Y-7800000D02*
Y-7670460D01*
G01X-2246020D02*
X-2184890Y-7750350D01*
G01X-2255670Y-7800000D02*
X-2212240Y-7713640D01*
G01X-2364210Y-7800000D02*
X-2299870D01*
Y-7670460D01*
X-2364210D01*
G01X-2338470Y-7733070D02*
X-2299870D01*
G01X-2408410Y-7800000D02*
Y-7670460D01*
X-2440580D01*
X-2453450Y-7676940D01*
X-2463100Y-7685570D01*
X-2471150Y-7698520D01*
X-2477580Y-7713640D01*
X-2479190Y-7735230D01*
X-2477580Y-7756820D01*
X-2471150Y-7771940D01*
X-2463100Y-7784890D01*
X-2453450Y-7793520D01*
X-2440580Y-7800000D01*
X-2408410D01*
G01X-2680190Y-7730910D02*
X-2686620Y-7724440D01*
X-2691450Y-7713640D01*
X-2694670Y-7698520D01*
X-2691450Y-7685570D01*
X-2685020Y-7676940D01*
X-2673750Y-7670460D01*
X-2630320D01*
Y-7800000D01*
X-2683410D01*
X-2694670Y-7791370D01*
X-2701100Y-7778410D01*
X-2704320Y-7763300D01*
X-2701100Y-7748190D01*
X-2691450Y-7735230D01*
X-2680190Y-7730910D01*
X-2630320D01*
G01X-2779080Y-7800000D02*
Y-7741710D01*
X-2746910Y-7670460D01*
G01X-2811250D02*
X-2779080Y-7741710D01*
G01X-3002600Y-7804320D02*
X-2999380Y-7802160D01*
Y-7797840D01*
X-3002600Y-7795680D01*
X-3005820Y-7797840D01*
Y-7802160D01*
X-3002600Y-7804320D01*
G01Y-7746030D02*
X-2999380Y-7743870D01*
Y-7739550D01*
X-3002600Y-7737390D01*
X-3005820Y-7739550D01*
Y-7743870D01*
X-3002600Y-7746030D01*
G01X-1737850Y-6800000D02*
Y-6670460D01*
X-1770020D01*
X-1782890Y-6676940D01*
X-1792540Y-6685570D01*
X-1800590Y-6698520D01*
X-1807020Y-6713640D01*
X-1808630Y-6735230D01*
X-1807020Y-6756820D01*
X-1800590Y-6771940D01*
X-1792540Y-6784890D01*
X-1782890Y-6793520D01*
X-1770020Y-6800000D01*
X-1737850D01*
G01X-1852830D02*
Y-6670460D01*
X-1893040D01*
X-1905910Y-6676940D01*
X-1913960Y-6685570D01*
X-1917170Y-6702850D01*
X-1913960Y-6720120D01*
X-1904300Y-6730910D01*
X-1893040Y-6737390D01*
X-1852830D01*
G01X-1893040D02*
X-1917170Y-6800000D01*
G01X-1996760D02*
X-1983890Y-6797840D01*
X-1972630Y-6789210D01*
X-1962980Y-6776250D01*
X-1956540Y-6761140D01*
X-1953320Y-6743870D01*
Y-6726590D01*
X-1956540Y-6709320D01*
X-1962980Y-6694210D01*
X-1972630Y-6681260D01*
X-1983890Y-6672620D01*
X-1996760Y-6670460D01*
X-2009630Y-6672620D01*
X-2020890Y-6681260D01*
X-2030540Y-6694210D01*
X-2036980Y-6709320D01*
X-2040200Y-6726590D01*
Y-6743870D01*
X-2036980Y-6761140D01*
X-2030540Y-6776250D01*
X-2020890Y-6789210D01*
X-2009630Y-6797840D01*
X-1996760Y-6800000D01*
G01X-2060260Y-6670460D02*
X-2082780Y-6800000D01*
X-2108520Y-6670460D01*
X-2134260Y-6800000D01*
X-2156780Y-6670460D01*
G01X-2183280Y-6800000D02*
Y-6670460D01*
X-2257280Y-6800000D01*
Y-6670460D01*
G01X-2456670Y-6730910D02*
X-2463100Y-6724440D01*
X-2467930Y-6713640D01*
X-2471150Y-6698520D01*
X-2467930Y-6685570D01*
X-2461500Y-6676940D01*
X-2450230Y-6670460D01*
X-2406800D01*
Y-6800000D01*
X-2459890D01*
X-2471150Y-6791370D01*
X-2477580Y-6778410D01*
X-2480800Y-6763300D01*
X-2477580Y-6748190D01*
X-2467930Y-6735230D01*
X-2456670Y-6730910D01*
X-2406800D01*
G01X-2555560Y-6800000D02*
Y-6741710D01*
X-2523390Y-6670460D01*
G01X-2587730D02*
X-2555560Y-6741710D01*
G01X-2779080Y-6804320D02*
X-2775860Y-6802160D01*
Y-6797840D01*
X-2779080Y-6795680D01*
X-2782300Y-6797840D01*
Y-6802160D01*
X-2779080Y-6804320D01*
G01Y-6746030D02*
X-2775860Y-6743870D01*
Y-6739550D01*
X-2779080Y-6737390D01*
X-2782300Y-6739550D01*
Y-6743870D01*
X-2779080Y-6746030D01*
G54D13*
G01X-3330720Y-6293320D02*
X-3272300D01*
G01X-3333260Y-6290780D02*
X-3277380D01*
G01X-3335800Y-6288240D02*
X-3279920D01*
G01X-3338340Y-6285700D02*
X-3285000D01*
G01X-3340880Y-6283160D02*
X-3287540D01*
G01X-3343420Y-6280620D02*
X-3290080D01*
G01X-3345960Y-6278080D02*
X-3292620D01*
G01X-3348500Y-6275540D02*
X-3295160D01*
G01X-3351040Y-6273000D02*
X-3297700D01*
G01X-3353580Y-6270460D02*
X-3300240D01*
G01X-3356120Y-6267920D02*
X-3302780D01*
G01X-3356120Y-6265380D02*
X-3307860D01*
G01X-3358660Y-6262840D02*
X-3310400D01*
G01X-3361200Y-6260300D02*
X-3312940D01*
G01X-3363740Y-6257760D02*
X-3315480D01*
G01X-3366280Y-6255220D02*
X-3318020D01*
G01X-3368820Y-6252680D02*
X-3320560D01*
G01X-3368820Y-6250140D02*
X-3323100D01*
G01X-3371360Y-6247600D02*
X-3325640D01*
G01X-3373900Y-6245060D02*
X-3325640D01*
G01X-3376440Y-6242520D02*
X-3328180D01*
G01X-3378980Y-6239980D02*
X-3330720D01*
G01X-3378980Y-6237440D02*
X-3333260D01*
G01X-3381520Y-6234900D02*
X-3335800D01*
G01X-3384060Y-6232360D02*
X-3338340D01*
G01X-3386600Y-6229820D02*
X-3340880D01*
G01X-3386600Y-6227280D02*
X-3343420D01*
G01X-3389140Y-6224740D02*
X-3345960D01*
G01X-3389140Y-6222200D02*
X-3345960D01*
G01X-3391680Y-6219660D02*
X-3348500D01*
G01X-3394220Y-6217120D02*
X-3351040D01*
G01X-3396760Y-6214580D02*
X-3351040D01*
G01X-3396760Y-6212040D02*
X-3353580D01*
G01X-3399300Y-6209500D02*
X-3356120D01*
G01X-3399300Y-6206960D02*
X-3358660D01*
G01X-3401840Y-6204420D02*
X-3361200D01*
G01X-3404380Y-6201880D02*
X-3361200D01*
G01X-3404380Y-6199340D02*
X-3363740D01*
G01X-3406920Y-6196800D02*
X-3363740D01*
G01X-3406920Y-6194260D02*
X-3366280D01*
G01X-3409460Y-6191720D02*
X-3366280D01*
G01X-3409460Y-6189180D02*
X-3368820D01*
G01X-3412000Y-6186640D02*
X-3371360D01*
G01X-3414540Y-6184100D02*
X-3373900D01*
G01X-3414540Y-6181560D02*
X-3373900D01*
G01X-3414540Y-6179020D02*
X-3376440D01*
G01X-3417080Y-6176480D02*
X-3376440D01*
G01X-3419620Y-6173940D02*
X-3378980D01*
G01X-3419620Y-6171400D02*
X-3378980D01*
G01X-3422160Y-6168860D02*
X-3381520D01*
G01X-3422160Y-6166320D02*
X-3381520D01*
G01X-3422160Y-6163780D02*
X-3384060D01*
G01X-3424700Y-6161240D02*
X-3386600D01*
G01X-3424700Y-6158700D02*
X-3386600D01*
G01X-3427240Y-6156160D02*
X-3386600D01*
G01X-3427240Y-6153620D02*
X-3389140D01*
G01X-3427240Y-6151080D02*
X-3389140D01*
G01X-3429780Y-6148540D02*
X-3391680D01*
G01X-3429780Y-6146000D02*
X-3391680D01*
G01X-3432320Y-6143460D02*
X-3394220D01*
G01X-3432320Y-6140920D02*
X-3394220D01*
G01X-3434860Y-6138380D02*
X-3396760D01*
G01X-3434860Y-6135840D02*
X-3396760D01*
G01X-3434860Y-6133300D02*
X-3396760D01*
G01X-3434860Y-6130760D02*
X-3399300D01*
G01X-3437400Y-6128220D02*
X-3399300D01*
G01X-3437400Y-6125680D02*
X-3399300D01*
G01X-3439940Y-6123140D02*
X-3401840D01*
G01X-3439940Y-6120600D02*
X-3401840D01*
G01X-3439940Y-6118060D02*
X-3404380D01*
G01X-3439940Y-6115520D02*
X-3404380D01*
G01X-3442480Y-6112980D02*
X-3404380D01*
G01X-3442480Y-6110440D02*
X-3406920D01*
G01X-3445020Y-6107900D02*
X-3406920D01*
G01X-3445020Y-6105360D02*
X-3406920D01*
G01X-3445020Y-6102820D02*
X-3409460D01*
G01X-3445020Y-6100280D02*
X-3409460D01*
G01X-3445020Y-6097740D02*
X-3409460D01*
G01X-3447560Y-6095200D02*
X-3409460D01*
G01X-3447560Y-6092660D02*
X-3409460D01*
G01X-3447560Y-6090120D02*
X-3412000D01*
G01X-3450100Y-6087580D02*
X-3412000D01*
G01X-3450100Y-6085040D02*
X-3412000D01*
G01X-3450100Y-6082500D02*
X-3414540D01*
G01X-3450100Y-6079960D02*
X-3414540D01*
G01X-3452640Y-6077420D02*
X-3414540D01*
G01X-3450100Y-6074880D02*
X-3417080D01*
G01X-3452640Y-6072340D02*
X-3417080D01*
G01X-3452640Y-6069800D02*
X-3417080D01*
G01X-3452640Y-6067260D02*
X-3417080D01*
G01X-3452640Y-6064720D02*
X-3417080D01*
G01X-3455180Y-6062180D02*
X-3417080D01*
G01X-3455180Y-6059640D02*
X-3417080D01*
G01X-3455180Y-6057100D02*
X-3419620D01*
G01X-3455180Y-6054560D02*
X-3419620D01*
G01X-3455180Y-6052020D02*
X-3419620D01*
G01X-3455180Y-6049480D02*
X-3419620D01*
G01X-3457720Y-6046940D02*
X-3422160D01*
G01X-3457720Y-6044400D02*
X-3422160D01*
G01X-3457720Y-6041860D02*
X-3422160D01*
G01X-3457720Y-6039320D02*
X-3422160D01*
G01X-3457720Y-6036780D02*
X-3422160D01*
G01X-3457720Y-6034240D02*
X-3422160D01*
G01X-3457720Y-6031700D02*
X-3422160D01*
G01X-3457720Y-6029160D02*
X-3422160D01*
G01X-3457720Y-6026620D02*
X-3422160D01*
G01X-3457720Y-6024080D02*
X-3422160D01*
G01X-3457720Y-6021540D02*
X-3422160D01*
G01X-3457720Y-6019000D02*
X-3422160D01*
G01X-3457720Y-6016460D02*
X-3422160D01*
G01X-3457720Y-6013920D02*
X-3422160D01*
G01X-3457720Y-6011380D02*
X-3422160D01*
G01X-3457720Y-6008840D02*
X-3422160D01*
G01X-3457720Y-6006300D02*
X-3422160D01*
G01X-3457720Y-6003760D02*
X-3422160D01*
G01X-3457720Y-6001220D02*
X-3424700D01*
G01X-3457720Y-5998680D02*
X-3424700D01*
G01X-3330720D02*
X-3305320D01*
G01X-3457720Y-5996140D02*
X-3424700D01*
G01X-3330720D02*
X-3305320D01*
G01X-3457720Y-5993600D02*
X-3424700D01*
G01X-3330720D02*
X-3305320D01*
G01X-3457720Y-5991060D02*
X-3424700D01*
G01X-3330720D02*
X-3305320D01*
G01X-3457720Y-5988520D02*
X-3422160D01*
G01X-3330720D02*
X-3305320D01*
G01X-3457720Y-5985980D02*
X-3422160D01*
G01X-3333260D02*
X-3307860D01*
G01X-3457720Y-5983440D02*
X-3422160D01*
G01X-3333260D02*
X-3307860D01*
G01X-3457720Y-5980900D02*
X-3422160D01*
G01X-3333260D02*
X-3307860D01*
G01X-3457720Y-5978360D02*
X-3422160D01*
G01X-3333260D02*
X-3307860D01*
G01X-3457720Y-5975820D02*
X-3422160D01*
G01X-3333260D02*
X-3307860D01*
G01X-3457720Y-5973280D02*
X-3422160D01*
G01X-3333260D02*
X-3310400D01*
G01X-3457720Y-5970740D02*
X-3422160D01*
G01X-3333260D02*
X-3310400D01*
G01X-3457720Y-5968200D02*
X-3422160D01*
G01X-3333260D02*
X-3310400D01*
G01X-3457720Y-5965660D02*
X-3422160D01*
G01X-3333260D02*
X-3310400D01*
G01X-3457720Y-5963120D02*
X-3422160D01*
G01X-3335800D02*
X-3310400D01*
G01X-3457720Y-5960580D02*
X-3422160D01*
G01X-3335800D02*
X-3310400D01*
G01X-3457720Y-5958040D02*
X-3422160D01*
G01X-3335800D02*
X-3310400D01*
G01X-3457720Y-5955500D02*
X-3422160D01*
G01X-3335800D02*
X-3310400D01*
G01X-3457720Y-5952960D02*
X-3422160D01*
G01X-3335800D02*
X-3310400D01*
G01X-3457720Y-5950420D02*
X-3422160D01*
G01X-3338340D02*
X-3312940D01*
G01X-3457720Y-5947880D02*
X-3422160D01*
G01X-3338340D02*
X-3312940D01*
G01X-3457720Y-5945340D02*
X-3422160D01*
G01X-3338340D02*
X-3312940D01*
G01X-3455180Y-5942800D02*
X-3419620D01*
G01X-3338340D02*
X-3312940D01*
G01X-3455180Y-5940260D02*
X-3419620D01*
G01X-3338340D02*
X-3312940D01*
G01X-3455180Y-5937720D02*
X-3419620D01*
G01X-3340880D02*
X-3315480D01*
G01X-3455180Y-5935180D02*
X-3419620D01*
G01X-3340880D02*
X-3315480D01*
G01X-3455180Y-5932640D02*
X-3417080D01*
G01X-3340880D02*
X-3315480D01*
G01X-3452640Y-5930100D02*
X-3417080D01*
G01X-3340880D02*
X-3315480D01*
G01X-3452640Y-5927560D02*
X-3417080D01*
G01X-3340880D02*
X-3315480D01*
G01X-3452640Y-5925020D02*
X-3417080D01*
G01X-3340880D02*
X-3315480D01*
G01X-3452640Y-5922480D02*
X-3417080D01*
G01X-3340880D02*
X-3315480D01*
G01X-3452640Y-5919940D02*
X-3417080D01*
G01X-3340880D02*
X-3315480D01*
G01X-3450100Y-5917400D02*
X-3417080D01*
G01X-3343420D02*
X-3315480D01*
G01X-3452640Y-5914860D02*
X-3414540D01*
G01X-3343420D02*
X-3318020D01*
G01X-3450100Y-5912320D02*
X-3414540D01*
G01X-3343420D02*
X-3318020D01*
G01X-3450100Y-5909780D02*
X-3414540D01*
G01X-3343420D02*
X-3318020D01*
G01X-3450100Y-5907240D02*
X-3412000D01*
G01X-3343420D02*
X-3318020D01*
G01X-3450100Y-5904700D02*
X-3412000D01*
G01X-3343420D02*
X-3320560D01*
G01X-3447560Y-5902160D02*
X-3412000D01*
G01X-3345960D02*
X-3320560D01*
G01X-3447560Y-5899620D02*
X-3409460D01*
G01X-3345960D02*
X-3320560D01*
G01X-3447560Y-5897080D02*
X-3409460D01*
G01X-3345960D02*
X-3320560D01*
G01X-3445020Y-5894540D02*
X-3409460D01*
G01X-3345960D02*
X-3320560D01*
G01X-3445020Y-5892000D02*
X-3409460D01*
G01X-3345960D02*
X-3320560D01*
G01X-3445020Y-5889460D02*
X-3409460D01*
G01X-3345960D02*
X-3323100D01*
G01X-3445020Y-5886920D02*
X-3406920D01*
G01X-3345960D02*
X-3323100D01*
G01X-3445020Y-5884380D02*
X-3406920D01*
G01X-3345960D02*
X-3323100D01*
G01X-3442480Y-5881840D02*
X-3404380D01*
G01X-3348500D02*
X-3323100D01*
G01X-3442480Y-5879300D02*
X-3404380D01*
G01X-3348500D02*
X-3323100D01*
G01X-3439940Y-5876760D02*
X-3404380D01*
G01X-3348500D02*
X-3323100D01*
G01X-3439940Y-5874220D02*
X-3404380D01*
G01X-3348500D02*
X-3323100D01*
G01X-3439940Y-5871680D02*
X-3401840D01*
G01X-3348500D02*
X-3323100D01*
G01X-3439940Y-5869140D02*
X-3401840D01*
G01X-3351040D02*
X-3325640D01*
G01X-3437400Y-5866600D02*
X-3399300D01*
G01X-3351040D02*
X-3325640D01*
G01X-3437400Y-5864060D02*
X-3399300D01*
G01X-3351040D02*
X-3325640D01*
G01X-3434860Y-5861520D02*
X-3399300D01*
G01X-3351040D02*
X-3325640D01*
G01X-3434860Y-5858980D02*
X-3396760D01*
G01X-3351040D02*
X-3325640D01*
G01X-3434860Y-5856440D02*
X-3396760D01*
G01X-3351040D02*
X-3325640D01*
G01X-3434860Y-5853900D02*
X-3396760D01*
G01X-3351040D02*
X-3328180D01*
G01X-3432320Y-5851360D02*
X-3394220D01*
G01X-3351040D02*
X-3328180D01*
G01X-3432320Y-5848820D02*
X-3394220D01*
G01X-3353580D02*
X-3328180D01*
G01X-3429780Y-5846280D02*
X-3391680D01*
G01X-3353580D02*
X-3328180D01*
G01X-3429780Y-5843740D02*
X-3391680D01*
G01X-3353580D02*
X-3328180D01*
G01X-3427240Y-5841200D02*
X-3389140D01*
G01X-3353580D02*
X-3328180D01*
G01X-3427240Y-5838660D02*
X-3389140D01*
G01X-3353580D02*
X-3328180D01*
G01X-3427240Y-5836120D02*
X-3386600D01*
G01X-3353580D02*
X-3330720D01*
G01X-3424700Y-5833580D02*
X-3386600D01*
G01X-3424700Y-5831040D02*
X-3386600D01*
G01X-3422160Y-5828500D02*
X-3384060D01*
G01X-3422160Y-5825960D02*
X-3381520D01*
G01X-3419620Y-5823420D02*
X-3381520D01*
G01X-3419620Y-5820880D02*
X-3378980D01*
G01X-3417080Y-5818340D02*
X-3378980D01*
G01X-3417080Y-5815800D02*
X-3376440D01*
G01X-3414540Y-5813260D02*
X-3376440D01*
G01X-3414540Y-5810720D02*
X-3373900D01*
G01X-3412000Y-5808180D02*
X-3371360D01*
G01X-3412000Y-5805640D02*
X-3371360D01*
G01X-3409460Y-5803100D02*
X-3368820D01*
G01X-3409460Y-5800560D02*
X-3366280D01*
G01X-3406920Y-5798020D02*
X-3366280D01*
G01X-3406920Y-5795480D02*
X-3363740D01*
G01X-3404380Y-5792940D02*
X-3363740D01*
G01X-3404380Y-5790400D02*
X-3361200D01*
G01X-3401840Y-5787860D02*
X-3358660D01*
G01X-3399300Y-5785320D02*
X-3358660D01*
G01X-3399300Y-5782780D02*
X-3356120D01*
G01X-3396760Y-5780240D02*
X-3353580D01*
G01X-3394220Y-5777700D02*
X-3351040D01*
G01X-3394220Y-5775160D02*
X-3351040D01*
G01X-3391680Y-5772620D02*
X-3348500D01*
G01X-3389140Y-5770080D02*
X-3345960D01*
G01X-3389140Y-5767540D02*
X-3345960D01*
G01X-3386600Y-5765000D02*
X-3343420D01*
G01X-3384060Y-5762460D02*
X-3340880D01*
G01X-3384060Y-5759920D02*
X-3338340D01*
G01X-3381520Y-5757380D02*
X-3335800D01*
G01X-3378980Y-5754840D02*
X-3333260D01*
G01X-3378980Y-5752300D02*
X-3330720D01*
G01X-3376440Y-5749760D02*
X-3328180D01*
G01X-3373900Y-5747220D02*
X-3325640D01*
G01X-3371360Y-5744680D02*
X-3323100D01*
G01X-3368820Y-5742140D02*
X-3320560D01*
G01X-3366280Y-5739600D02*
X-3320560D01*
G01X-3366280Y-5737060D02*
X-3318020D01*
G01X-3363740Y-5734520D02*
X-3315480D01*
G01X-3361200Y-5731980D02*
X-3312940D01*
G01X-3358660Y-5729440D02*
X-3307860D01*
G01X-3356120Y-5726900D02*
X-3305320D01*
G01X-3356120Y-5724360D02*
X-3302780D01*
G01X-3353580Y-5721820D02*
X-3300240D01*
G01X-3351040Y-5719280D02*
X-3297700D01*
G01X-3348500Y-5716740D02*
X-3295160D01*
G01X-3345960Y-5714200D02*
X-3292620D01*
G01X-3343420Y-5711660D02*
X-3290080D01*
G01X-3340880Y-5709120D02*
X-3287540D01*
G01X-3338340Y-5706580D02*
X-3285000D01*
G01X-3335800Y-5704040D02*
X-3279920D01*
G01X-3333260Y-5701500D02*
X-3277380D01*
G01X-3330720Y-5698960D02*
X-3272300D01*
G01X-3066560Y-6400000D02*
X-3043700D01*
G01X-3109740Y-6397460D02*
X-3000520D01*
G01X-3122440Y-6394920D02*
X-2987820D01*
G01X-3140220Y-6392380D02*
X-2970040D01*
G01X-3147840Y-6389840D02*
X-2962420D01*
G01X-3155460Y-6387300D02*
X-2954800D01*
G01X-3168160Y-6384760D02*
X-2942100D01*
G01X-3175780Y-6382220D02*
X-2934480D01*
G01X-3183400Y-6379680D02*
X-2926860D01*
G01X-3191020Y-6377140D02*
X-2919240D01*
G01X-3198640Y-6374600D02*
X-2911620D01*
G01X-3203720Y-6372060D02*
X-2906540D01*
G01X-3208800Y-6369520D02*
X-2901460D01*
G01X-3216420Y-6366980D02*
X-2893840D01*
G01X-3221500Y-6364440D02*
X-3071640D01*
G01X-3038620D02*
X-2888760D01*
G01X-3226580Y-6361900D02*
X-3109740D01*
G01X-3000520D02*
X-2881140D01*
G01X-3234200Y-6359360D02*
X-3119900D01*
G01X-2990360D02*
X-2876060D01*
G01X-3239280Y-6356820D02*
X-3135140D01*
G01X-2975120D02*
X-2870980D01*
G01X-3244360Y-6354280D02*
X-3145300D01*
G01X-2964960D02*
X-2865900D01*
G01X-3249440Y-6351740D02*
X-3152920D01*
G01X-2957340D02*
X-2860820D01*
G01X-3251980Y-6349200D02*
X-3163080D01*
G01X-2947180D02*
X-2858280D01*
G01X-3257060Y-6346660D02*
X-3170700D01*
G01X-2939560D02*
X-2853200D01*
G01X-3262140Y-6344120D02*
X-3178320D01*
G01X-2931940D02*
X-2848120D01*
G01X-3264680Y-6341580D02*
X-3183400D01*
G01X-2924320D02*
X-2845580D01*
G01X-3269760Y-6339040D02*
X-3191020D01*
G01X-2916700D02*
X-2840500D01*
G01X-3274840Y-6336500D02*
X-3198640D01*
G01X-2911620D02*
X-2835420D01*
G01X-3277380Y-6333960D02*
X-3203720D01*
G01X-2906540D02*
X-2832880D01*
G01X-3279920Y-6331420D02*
X-3208800D01*
G01X-2901460D02*
X-2830340D01*
G01X-3285000Y-6328880D02*
X-3213880D01*
G01X-2896380D02*
X-2825260D01*
G01X-3290080Y-6326340D02*
X-3221500D01*
G01X-2888760D02*
X-2820180D01*
G01X-3292620Y-6323800D02*
X-3224040D01*
G01X-2886220D02*
X-2817640D01*
G01X-2878600Y-6321260D02*
X-2815100D01*
G01X-2876060Y-6318720D02*
X-2810020D01*
G01X-2870980Y-6316180D02*
X-2807480D01*
G01X-2865900Y-6313640D02*
X-2804940D01*
G01X-2863360Y-6311100D02*
X-2802400D01*
G01X-2858280Y-6308560D02*
X-2797320D01*
G01X-2855740Y-6306020D02*
X-2794780D01*
G01X-2850660Y-6303480D02*
X-2792240D01*
G01X-2845580Y-6300940D02*
X-2789700D01*
G01X-2843040Y-6298400D02*
X-2784620D01*
G01X-2840500Y-6295860D02*
X-2782080D01*
G01X-2837960Y-6293320D02*
X-2779540D01*
G01X-2832880Y-6290780D02*
X-2777000D01*
G01X-2830340Y-6288240D02*
X-2774460D01*
G01X-2825260Y-6285700D02*
X-2771920D01*
G01X-2822720Y-6283160D02*
X-2769380D01*
G01X-2820180Y-6280620D02*
X-2766840D01*
G01X-2817640Y-6278080D02*
X-2764300D01*
G01X-2815100Y-6275540D02*
X-2761760D01*
G01X-2812560Y-6273000D02*
X-2759220D01*
G01X-2810020Y-6270460D02*
X-2756680D01*
G01X-2804940Y-6267920D02*
X-2754140D01*
G01X-2802400Y-6265380D02*
X-2751600D01*
G01X-2799860Y-6262840D02*
X-2751600D01*
G01X-2797320Y-6260300D02*
X-2749060D01*
G01X-2794780Y-6257760D02*
X-2746520D01*
G01X-2792240Y-6255220D02*
X-2743980D01*
G01X-2789700Y-6252680D02*
X-2741440D01*
G01X-2787160Y-6250140D02*
X-2741440D01*
G01X-2784620Y-6247600D02*
X-2738900D01*
G01X-2782080Y-6245060D02*
X-2736360D01*
G01X-2782080Y-6242520D02*
X-2733820D01*
G01X-2779540Y-6239980D02*
X-2731280D01*
G01X-2777000Y-6237440D02*
X-2731280D01*
G01X-2774460Y-6234900D02*
X-2728740D01*
G01X-2771920Y-6232360D02*
X-2726200D01*
G01X-2769380Y-6229820D02*
X-2723660D01*
G01X-2766840Y-6227280D02*
X-2723660D01*
G01X-2764300Y-6224740D02*
X-2721120D01*
G01X-2764300Y-6222200D02*
X-2721120D01*
G01X-2761760Y-6219660D02*
X-2718580D01*
G01X-2759220Y-6217120D02*
X-2716040D01*
G01X-2759220Y-6214580D02*
X-2713500D01*
G01X-2756680Y-6212040D02*
X-2713500D01*
G01X-2754140Y-6209500D02*
X-2710960D01*
G01X-2751600Y-6206960D02*
X-2710960D01*
G01X-2749060Y-6204420D02*
X-2708420D01*
G01X-2749060Y-6201880D02*
X-2705880D01*
G01X-2746520Y-6199340D02*
X-2705880D01*
G01X-2746520Y-6196800D02*
X-2703340D01*
G01X-2743980Y-6194260D02*
X-2703340D01*
G01X-2741440Y-6191720D02*
X-2700800D01*
G01X-2741440Y-6189180D02*
X-2698260D01*
G01X-2738900Y-6186640D02*
X-2698260D01*
G01X-2736360Y-6184100D02*
X-2695720D01*
G01X-2736360Y-6181560D02*
X-2695720D01*
G01X-2733820Y-6179020D02*
X-2693180D01*
G01X-2733820Y-6176480D02*
X-2693180D01*
G01X-2731280Y-6173940D02*
X-2690640D01*
G01X-2731280Y-6171400D02*
X-2690640D01*
G01X-2728740Y-6168860D02*
X-2688100D01*
G01X-2728740Y-6166320D02*
X-2688100D01*
G01X-2726200Y-6163780D02*
X-2688100D01*
G01X-2723660Y-6161240D02*
X-2685560D01*
G01X-2723660Y-6158700D02*
X-2685560D01*
G01X-3158000Y-6156160D02*
X-3135140D01*
G01X-3099580D02*
X-3069100D01*
G01X-3031000D02*
X-3008140D01*
G01X-2954800D02*
X-2929400D01*
G01X-2779540D02*
X-2754140D01*
G01X-2723660D02*
X-2683020D01*
G01X-3158000Y-6153620D02*
X-3135140D01*
G01X-3099580D02*
X-3069100D01*
G01X-3031000D02*
X-3008140D01*
G01X-2954800D02*
X-2929400D01*
G01X-2782080D02*
X-2756680D01*
G01X-2721120D02*
X-2683020D01*
G01X-3158000Y-6151080D02*
X-3135140D01*
G01X-3102120D02*
X-3069100D01*
G01X-3031000D02*
X-3008140D01*
G01X-2954800D02*
X-2929400D01*
G01X-2782080D02*
X-2756680D01*
G01X-2721120D02*
X-2683020D01*
G01X-3158000Y-6148540D02*
X-3135140D01*
G01X-3102120D02*
X-3069100D01*
G01X-3033540D02*
X-3008140D01*
G01X-2957340D02*
X-2931940D01*
G01X-2782080D02*
X-2756680D01*
G01X-2718580D02*
X-2680480D01*
G01X-3160540Y-6146000D02*
X-3135140D01*
G01X-3102120D02*
X-3069100D01*
G01X-3033540D02*
X-3008140D01*
G01X-2957340D02*
X-2931940D01*
G01X-2782080D02*
X-2756680D01*
G01X-2718580D02*
X-2680480D01*
G01X-3160540Y-6143460D02*
X-3135140D01*
G01X-3102120D02*
X-3071640D01*
G01X-3033540D02*
X-3008140D01*
G01X-2957340D02*
X-2931940D01*
G01X-2782080D02*
X-2756680D01*
G01X-2716040D02*
X-2677940D01*
G01X-3160540Y-6140920D02*
X-3135140D01*
G01X-3102120D02*
X-3071640D01*
G01X-3033540D02*
X-3010680D01*
G01X-2957340D02*
X-2931940D01*
G01X-2782080D02*
X-2759220D01*
G01X-2716040D02*
X-2677940D01*
G01X-3160540Y-6138380D02*
X-3135140D01*
G01X-3102120D02*
X-3071640D01*
G01X-3033540D02*
X-3010680D01*
G01X-2957340D02*
X-2931940D01*
G01X-2782080D02*
X-2759220D01*
G01X-2713500D02*
X-2675400D01*
G01X-3160540Y-6135840D02*
X-3137680D01*
G01X-3104660D02*
X-3071640D01*
G01X-3036080D02*
X-3010680D01*
G01X-2957340D02*
X-2934480D01*
G01X-2782080D02*
X-2759220D01*
G01X-2713500D02*
X-2675400D01*
G01X-3163080Y-6133300D02*
X-3137680D01*
G01X-3104660D02*
X-3074180D01*
G01X-3033540D02*
X-3010680D01*
G01X-2957340D02*
X-2934480D01*
G01X-2784620D02*
X-2759220D01*
G01X-2710960D02*
X-2675400D01*
G01X-3163080Y-6130760D02*
X-3137680D01*
G01X-3104660D02*
X-3074180D01*
G01X-3033540D02*
X-3010680D01*
G01X-2957340D02*
X-2934480D01*
G01X-2784620D02*
X-2759220D01*
G01X-2710960D02*
X-2672860D01*
G01X-3163080Y-6128220D02*
X-3137680D01*
G01X-3104660D02*
X-3074180D01*
G01X-3033540D02*
X-3010680D01*
G01X-2959880D02*
X-2934480D01*
G01X-2784620D02*
X-2759220D01*
G01X-2710960D02*
X-2672860D01*
G01X-3163080Y-6125680D02*
X-3137680D01*
G01X-3104660D02*
X-3074180D01*
G01X-3036080D02*
X-3010680D01*
G01X-2959880D02*
X-2934480D01*
G01X-2784620D02*
X-2759220D01*
G01X-2710960D02*
X-2672860D01*
G01X-3163080Y-6123140D02*
X-3140220D01*
G01X-3104660D02*
X-3074180D01*
G01X-3036080D02*
X-3010680D01*
G01X-2959880D02*
X-2934480D01*
G01X-2784620D02*
X-2759220D01*
G01X-2708420D02*
X-2670320D01*
G01X-3163080Y-6120600D02*
X-3140220D01*
G01X-3104660D02*
X-3074180D01*
G01X-3036080D02*
X-3010680D01*
G01X-2959880D02*
X-2934480D01*
G01X-2787160D02*
X-2761760D01*
G01X-2708420D02*
X-2670320D01*
G01X-3163080Y-6118060D02*
X-3140220D01*
G01X-3104660D02*
X-3076720D01*
G01X-3036080D02*
X-3013220D01*
G01X-2959880D02*
X-2934480D01*
G01X-2787160D02*
X-2761760D01*
G01X-2705880D02*
X-2670320D01*
G01X-3163080Y-6115520D02*
X-3140220D01*
G01X-3104660D02*
X-3076720D01*
G01X-3036080D02*
X-3013220D01*
G01X-2962420D02*
X-2934480D01*
G01X-2787160D02*
X-2761760D01*
G01X-2705880D02*
X-2667780D01*
G01X-3165620Y-6112980D02*
X-3140220D01*
G01X-3038620D02*
X-3013220D01*
G01X-2962420D02*
X-2937020D01*
G01X-2787160D02*
X-2761760D01*
G01X-2705880D02*
X-2667780D01*
G01X-3165620Y-6110440D02*
X-3140220D01*
G01X-3038620D02*
X-3013220D01*
G01X-2962420D02*
X-2937020D01*
G01X-2787160D02*
X-2761760D01*
G01X-2703340D02*
X-2667780D01*
G01X-3165620Y-6107900D02*
X-3140220D01*
G01X-3038620D02*
X-3013220D01*
G01X-2962420D02*
X-2937020D01*
G01X-2787160D02*
X-2764300D01*
G01X-2703340D02*
X-2665240D01*
G01X-3165620Y-6105360D02*
X-3140220D01*
G01X-3038620D02*
X-3015760D01*
G01X-2962420D02*
X-2937020D01*
G01X-2787160D02*
X-2764300D01*
G01X-2703340D02*
X-2665240D01*
G01X-3165620Y-6102820D02*
X-3140220D01*
G01X-3038620D02*
X-3015760D01*
G01X-2964960D02*
X-2939560D01*
G01X-2787160D02*
X-2764300D01*
G01X-2700800D02*
X-2665240D01*
G01X-3168160Y-6100280D02*
X-3142760D01*
G01X-3041160D02*
X-3015760D01*
G01X-2964960D02*
X-2939560D01*
G01X-2789700D02*
X-2764300D01*
G01X-2700800D02*
X-2665240D01*
G01X-3168160Y-6097740D02*
X-3142760D01*
G01X-3041160D02*
X-3015760D01*
G01X-2964960D02*
X-2939560D01*
G01X-2876060D02*
X-2853200D01*
G01X-2789700D02*
X-2764300D01*
G01X-2700800D02*
X-2665240D01*
G01X-3168160Y-6095200D02*
X-3142760D01*
G01X-3041160D02*
X-3015760D01*
G01X-2964960D02*
X-2939560D01*
G01X-2878600D02*
X-2853200D01*
G01X-2789700D02*
X-2764300D01*
G01X-2700800D02*
X-2662700D01*
G01X-3168160Y-6092660D02*
X-3142760D01*
G01X-3041160D02*
X-3018300D01*
G01X-2964960D02*
X-2939560D01*
G01X-2878600D02*
X-2853200D01*
G01X-2789700D02*
X-2764300D01*
G01X-2698260D02*
X-2662700D01*
G01X-3168160Y-6090120D02*
X-3145300D01*
G01X-3041160D02*
X-3015760D01*
G01X-2964960D02*
X-2942100D01*
G01X-2881140D02*
X-2853200D01*
G01X-2789700D02*
X-2764300D01*
G01X-2698260D02*
X-2662700D01*
G01X-3170700Y-6087580D02*
X-3145300D01*
G01X-3041160D02*
X-3015760D01*
G01X-2964960D02*
X-2939560D01*
G01X-2881140D02*
X-2853200D01*
G01X-2789700D02*
X-2764300D01*
G01X-2698260D02*
X-2660160D01*
G01X-3170700Y-6085040D02*
X-3145300D01*
G01X-3041160D02*
X-3018300D01*
G01X-2964960D02*
X-2939560D01*
G01X-2883680D02*
X-2850660D01*
G01X-2792240D02*
X-2766840D01*
G01X-2695720D02*
X-2660160D01*
G01X-3170700Y-6082500D02*
X-3145300D01*
G01X-3041160D02*
X-3018300D01*
G01X-2964960D02*
X-2939560D01*
G01X-2883680D02*
X-2850660D01*
G01X-2792240D02*
X-2766840D01*
G01X-2695720D02*
X-2660160D01*
G01X-3170700Y-6079960D02*
X-3145300D01*
G01X-3041160D02*
X-3018300D01*
G01X-2967500D02*
X-2942100D01*
G01X-2886220D02*
X-2850660D01*
G01X-2792240D02*
X-2766840D01*
G01X-2695720D02*
X-2657620D01*
G01X-3170700Y-6077420D02*
X-3145300D01*
G01X-3043700D02*
X-3018300D01*
G01X-2967500D02*
X-2942100D01*
G01X-2886220D02*
X-2850660D01*
G01X-2792240D02*
X-2766840D01*
G01X-2695720D02*
X-2657620D01*
G01X-3170700Y-6074880D02*
X-3145300D01*
G01X-3043700D02*
X-3018300D01*
G01X-2967500D02*
X-2942100D01*
G01X-2888760D02*
X-2848120D01*
G01X-2794780D02*
X-2766840D01*
G01X-2693180D02*
X-2657620D01*
G01X-3170700Y-6072340D02*
X-3145300D01*
G01X-3043700D02*
X-3018300D01*
G01X-2967500D02*
X-2942100D01*
G01X-2888760D02*
X-2848120D01*
G01X-2794780D02*
X-2769380D01*
G01X-2693180D02*
X-2657620D01*
G01X-3170700Y-6069800D02*
X-3145300D01*
G01X-3043700D02*
X-3020840D01*
G01X-2967500D02*
X-2942100D01*
G01X-2891300D02*
X-2848120D01*
G01X-2794780D02*
X-2769380D01*
G01X-2693180D02*
X-2657620D01*
G01X-3170700Y-6067260D02*
X-3147840D01*
G01X-3046240D02*
X-3020840D01*
G01X-2970040D02*
X-2944640D01*
G01X-2891300D02*
X-2848120D01*
G01X-2794780D02*
X-2769380D01*
G01X-2693180D02*
X-2657620D01*
G01X-3173240Y-6064720D02*
X-3147840D01*
G01X-3046240D02*
X-3020840D01*
G01X-2970040D02*
X-2944640D01*
G01X-2893840D02*
X-2845580D01*
G01X-2794780D02*
X-2769380D01*
G01X-2693180D02*
X-2657620D01*
G01X-3173240Y-6062180D02*
X-3147840D01*
G01X-3046240D02*
X-3020840D01*
G01X-2970040D02*
X-2944640D01*
G01X-2893840D02*
X-2845580D01*
G01X-2794780D02*
X-2769380D01*
G01X-2693180D02*
X-2655080D01*
G01X-3173240Y-6059640D02*
X-3147840D01*
G01X-3046240D02*
X-3023380D01*
G01X-2970040D02*
X-2944640D01*
G01X-2896380D02*
X-2848120D01*
G01X-2794780D02*
X-2769380D01*
G01X-2690640D02*
X-2655080D01*
G01X-3173240Y-6057100D02*
X-3147840D01*
G01X-3046240D02*
X-3023380D01*
G01X-2970040D02*
X-2944640D01*
G01X-2896380D02*
X-2870980D01*
G01X-2868440D02*
X-2845580D01*
G01X-2794780D02*
X-2769380D01*
G01X-2690640D02*
X-2655080D01*
G01X-3175780Y-6054560D02*
X-3150380D01*
G01X-3046240D02*
X-3023380D01*
G01X-2970040D02*
X-2947180D01*
G01X-2898920D02*
X-2870980D01*
G01X-2868440D02*
X-2845580D01*
G01X-2794780D02*
X-2769380D01*
G01X-2690640D02*
X-2655080D01*
G01X-3175780Y-6052020D02*
X-3150380D01*
G01X-3046240D02*
X-3023380D01*
G01X-2970040D02*
X-2947180D01*
G01X-2898920D02*
X-2873520D01*
G01X-2868440D02*
X-2845580D01*
G01X-2797320D02*
X-2769380D01*
G01X-2690640D02*
X-2655080D01*
G01X-3175780Y-6049480D02*
X-3150380D01*
G01X-3046240D02*
X-3023380D01*
G01X-2970040D02*
X-2947180D01*
G01X-2901460D02*
X-2876060D01*
G01X-2868440D02*
X-2845580D01*
G01X-2797320D02*
X-2771920D01*
G01X-2688100D02*
X-2652540D01*
G01X-3175780Y-6046940D02*
X-3150380D01*
G01X-3048780D02*
X-3023380D01*
G01X-2972580D02*
X-2947180D01*
G01X-2901460D02*
X-2876060D01*
G01X-2868440D02*
X-2845580D01*
G01X-2797320D02*
X-2771920D01*
G01X-2688100D02*
X-2652540D01*
G01X-3175780Y-6044400D02*
X-3150380D01*
G01X-3048780D02*
X-3023380D01*
G01X-2972580D02*
X-2947180D01*
G01X-2904000D02*
X-2876060D01*
G01X-2865900D02*
X-2843040D01*
G01X-2797320D02*
X-2771920D01*
G01X-2688100D02*
X-2652540D01*
G01X-3175780Y-6041860D02*
X-3152920D01*
G01X-3048780D02*
X-3023380D01*
G01X-2972580D02*
X-2947180D01*
G01X-2904000D02*
X-2878600D01*
G01X-2865900D02*
X-2843040D01*
G01X-2797320D02*
X-2771920D01*
G01X-2688100D02*
X-2652540D01*
G01X-3175780Y-6039320D02*
X-3152920D01*
G01X-3051320D02*
X-3023380D01*
G01X-2972580D02*
X-2947180D01*
G01X-2906540D02*
X-2878600D01*
G01X-2865900D02*
X-2843040D01*
G01X-2799860D02*
X-2774460D01*
G01X-2688100D02*
X-2652540D01*
G01X-3175780Y-6036780D02*
X-3152920D01*
G01X-3051320D02*
X-3023380D01*
G01X-2972580D02*
X-2947180D01*
G01X-2906540D02*
X-2881140D01*
G01X-2865900D02*
X-2840500D01*
G01X-2799860D02*
X-2774460D01*
G01X-2688100D02*
X-2652540D01*
G01X-3175780Y-6034240D02*
X-3152920D01*
G01X-3051320D02*
X-3025920D01*
G01X-2972580D02*
X-2949720D01*
G01X-2909080D02*
X-2881140D01*
G01X-2863360D02*
X-2840500D01*
G01X-2799860D02*
X-2774460D01*
G01X-2688100D02*
X-2652540D01*
G01X-3178320Y-6031700D02*
X-3152920D01*
G01X-3053860D02*
X-3025920D01*
G01X-2975120D02*
X-2949720D01*
G01X-2909080D02*
X-2883680D01*
G01X-2863360D02*
X-2840500D01*
G01X-2799860D02*
X-2774460D01*
G01X-2688100D02*
X-2652540D01*
G01X-3178320Y-6029160D02*
X-3152920D01*
G01X-3053860D02*
X-3025920D01*
G01X-2975120D02*
X-2949720D01*
G01X-2909080D02*
X-2883680D01*
G01X-2863360D02*
X-2840500D01*
G01X-2799860D02*
X-2774460D01*
G01X-2688100D02*
X-2652540D01*
G01X-3178320Y-6026620D02*
X-3152920D01*
G01X-3056400D02*
X-3025920D01*
G01X-2975120D02*
X-2949720D01*
G01X-2911620D02*
X-2886220D01*
G01X-2863360D02*
X-2840500D01*
G01X-2799860D02*
X-2774460D01*
G01X-2688100D02*
X-2652540D01*
G01X-3178320Y-6024080D02*
X-3152920D01*
G01X-3056400D02*
X-3023380D01*
G01X-2975120D02*
X-2949720D01*
G01X-2911620D02*
X-2886220D01*
G01X-2863360D02*
X-2840500D01*
G01X-2799860D02*
X-2777000D01*
G01X-2688100D02*
X-2652540D01*
G01X-3178320Y-6021540D02*
X-3152920D01*
G01X-3058940D02*
X-3023380D01*
G01X-2975120D02*
X-2949720D01*
G01X-2914160D02*
X-2888760D01*
G01X-2863360D02*
X-2840500D01*
G01X-2799860D02*
X-2777000D01*
G01X-2688100D02*
X-2652540D01*
G01X-3180860Y-6019000D02*
X-3155460D01*
G01X-3058940D02*
X-3023380D01*
G01X-2975120D02*
X-2952260D01*
G01X-2914160D02*
X-2888760D01*
G01X-2863360D02*
X-2837960D01*
G01X-2799860D02*
X-2777000D01*
G01X-2688100D02*
X-2652540D01*
G01X-3180860Y-6016460D02*
X-3155460D01*
G01X-3107200D02*
X-3104660D01*
G01X-3061480D02*
X-3020840D01*
G01X-2975120D02*
X-2952260D01*
G01X-2916700D02*
X-2891300D01*
G01X-2860820D02*
X-2837960D01*
G01X-2802400D02*
X-2777000D01*
G01X-2688100D02*
X-2652540D01*
G01X-3180860Y-6013920D02*
X-3155460D01*
G01X-3114820D02*
X-3099580D01*
G01X-3064020D02*
X-3018300D01*
G01X-2975120D02*
X-2952260D01*
G01X-2916700D02*
X-2891300D01*
G01X-2860820D02*
X-2837960D01*
G01X-2802400D02*
X-2777000D01*
G01X-2688100D02*
X-2652540D01*
G01X-3180860Y-6011380D02*
X-3155460D01*
G01X-3117360D02*
X-3094500D01*
G01X-3066560D02*
X-3015760D01*
G01X-2977660D02*
X-2952260D01*
G01X-2919240D02*
X-2893840D01*
G01X-2860820D02*
X-2837960D01*
G01X-2802400D02*
X-2777000D01*
G01X-2685560D02*
X-2652540D01*
G01X-3180860Y-6008840D02*
X-3155460D01*
G01X-3119900D02*
X-3089420D01*
G01X-3074180D02*
X-3043700D01*
G01X-3041160D02*
X-3010680D01*
G01X-2977660D02*
X-2952260D01*
G01X-2919240D02*
X-2893840D01*
G01X-2860820D02*
X-2835420D01*
G01X-2802400D02*
X-2777000D01*
G01X-2685560D02*
X-2652540D01*
G01X-3180860Y-6006300D02*
X-3158000D01*
G01X-3119900D02*
X-3043700D01*
G01X-3041160D02*
X-3005600D01*
G01X-2977660D02*
X-2952260D01*
G01X-2921780D02*
X-2896380D01*
G01X-2858280D02*
X-2835420D01*
G01X-2802400D02*
X-2777000D01*
G01X-2685560D02*
X-2652540D01*
G01X-3180860Y-6003760D02*
X-3158000D01*
G01X-3122440D02*
X-3046240D01*
G01X-3038620D02*
X-3003060D01*
G01X-2977660D02*
X-2952260D01*
G01X-2921780D02*
X-2896380D01*
G01X-2858280D02*
X-2835420D01*
G01X-2804940D02*
X-2779540D01*
G01X-2685560D02*
X-2650000D01*
G01X-3180860Y-6001220D02*
X-3158000D01*
G01X-3122440D02*
X-3048780D01*
G01X-3036080D02*
X-3000520D01*
G01X-2977660D02*
X-2954800D01*
G01X-2924320D02*
X-2898920D01*
G01X-2858280D02*
X-2835420D01*
G01X-2804940D02*
X-2779540D01*
G01X-2685560D02*
X-2650000D01*
G01X-3180860Y-5998680D02*
X-3158000D01*
G01X-3122440D02*
X-3048780D01*
G01X-3036080D02*
X-3000520D01*
G01X-2980200D02*
X-2954800D01*
G01X-2924320D02*
X-2898920D01*
G01X-2858280D02*
X-2835420D01*
G01X-2804940D02*
X-2779540D01*
G01X-2685560D02*
X-2650000D01*
G01X-3257060Y-5996140D02*
X-3229120D01*
G01X-3183400D02*
X-3158000D01*
G01X-3122440D02*
X-3051320D01*
G01X-3033540D02*
X-3000520D01*
G01X-2980200D02*
X-2954800D01*
G01X-2926860D02*
X-2901460D01*
G01X-2858280D02*
X-2835420D01*
G01X-2804940D02*
X-2779540D01*
G01X-2685560D02*
X-2650000D01*
G01X-3257060Y-5993600D02*
X-3229120D01*
G01X-3183400D02*
X-3158000D01*
G01X-3119900D02*
X-3053860D01*
G01X-3031000D02*
X-3000520D01*
G01X-2980200D02*
X-2954800D01*
G01X-2926860D02*
X-2901460D01*
G01X-2858280D02*
X-2835420D01*
G01X-2804940D02*
X-2779540D01*
G01X-2685560D02*
X-2650000D01*
G01X-3257060Y-5991060D02*
X-3229120D01*
G01X-3183400D02*
X-3158000D01*
G01X-3117360D02*
X-3056400D01*
G01X-3028460D02*
X-3003060D01*
G01X-2980200D02*
X-2954800D01*
G01X-2929400D02*
X-2904000D01*
G01X-2858280D02*
X-2832880D01*
G01X-2804940D02*
X-2779540D01*
G01X-2685560D02*
X-2650000D01*
G01X-3254520Y-5988520D02*
X-3229120D01*
G01X-3183400D02*
X-3158000D01*
G01X-3114820D02*
X-3061480D01*
G01X-3025920D02*
X-3003060D01*
G01X-2982740D02*
X-2954800D01*
G01X-2929400D02*
X-2904000D01*
G01X-2855740D02*
X-2832880D01*
G01X-2804940D02*
X-2782080D01*
G01X-2685560D02*
X-2650000D01*
G01X-3254520Y-5985980D02*
X-3226580D01*
G01X-3185940D02*
X-3158000D01*
G01X-3112280D02*
X-3064020D01*
G01X-3018300D02*
X-3008140D01*
G01X-2982740D02*
X-2957340D01*
G01X-2931940D02*
X-2906540D01*
G01X-2855740D02*
X-2832880D01*
G01X-2804940D02*
X-2782080D01*
G01X-2685560D02*
X-2652540D01*
G01X-3254520Y-5983440D02*
X-3226580D01*
G01X-3185940D02*
X-3160540D01*
G01X-3109740D02*
X-3069100D01*
G01X-2982740D02*
X-2957340D01*
G01X-2931940D02*
X-2906540D01*
G01X-2855740D02*
X-2832880D01*
G01X-2807480D02*
X-2782080D01*
G01X-2685560D02*
X-2652540D01*
G01X-3251980Y-5980900D02*
X-3224040D01*
G01X-3185940D02*
X-3160540D01*
G01X-3097040D02*
X-3081800D01*
G01X-2982740D02*
X-2957340D01*
G01X-2934480D02*
X-2909080D01*
G01X-2855740D02*
X-2830340D01*
G01X-2807480D02*
X-2782080D01*
G01X-2688100D02*
X-2652540D01*
G01X-3251980Y-5978360D02*
X-3224040D01*
G01X-3185940D02*
X-3160540D01*
G01X-2982740D02*
X-2957340D01*
G01X-2934480D02*
X-2909080D01*
G01X-2853200D02*
X-2830340D01*
G01X-2807480D02*
X-2782080D01*
G01X-2688100D02*
X-2652540D01*
G01X-3251980Y-5975820D02*
X-3224040D01*
G01X-3185940D02*
X-3160540D01*
G01X-2982740D02*
X-2957340D01*
G01X-2937020D02*
X-2911620D01*
G01X-2853200D02*
X-2830340D01*
G01X-2807480D02*
X-2782080D01*
G01X-2688100D02*
X-2652540D01*
G01X-3251980Y-5973280D02*
X-3224040D01*
G01X-3185940D02*
X-3163080D01*
G01X-2982740D02*
X-2957340D01*
G01X-2937020D02*
X-2911620D01*
G01X-2853200D02*
X-2830340D01*
G01X-2807480D02*
X-2782080D01*
G01X-2688100D02*
X-2652540D01*
G01X-3249440Y-5970740D02*
X-3221500D01*
G01X-3188480D02*
X-3163080D01*
G01X-2982740D02*
X-2957340D01*
G01X-2939560D02*
X-2914160D01*
G01X-2853200D02*
X-2830340D01*
G01X-2810020D02*
X-2782080D01*
G01X-2688100D02*
X-2652540D01*
G01X-3249440Y-5968200D02*
X-3221500D01*
G01X-3188480D02*
X-3163080D01*
G01X-2982740D02*
X-2957340D01*
G01X-2939560D02*
X-2914160D01*
G01X-2853200D02*
X-2827800D01*
G01X-2810020D02*
X-2784620D01*
G01X-2688100D02*
X-2652540D01*
G01X-3246900Y-5965660D02*
X-3221500D01*
G01X-3185940D02*
X-3163080D01*
G01X-2982740D02*
X-2959880D01*
G01X-2942100D02*
X-2916700D01*
G01X-2853200D02*
X-2830340D01*
G01X-2810020D02*
X-2784620D01*
G01X-2688100D02*
X-2652540D01*
G01X-3246900Y-5963120D02*
X-3218960D01*
G01X-3188480D02*
X-3163080D01*
G01X-2985280D02*
X-2959880D01*
G01X-2942100D02*
X-2916700D01*
G01X-2853200D02*
X-2827800D01*
G01X-2810020D02*
X-2784620D01*
G01X-2688100D02*
X-2652540D01*
G01X-3246900Y-5960580D02*
X-3218960D01*
G01X-3188480D02*
X-3163080D01*
G01X-2985280D02*
X-2959880D01*
G01X-2944640D02*
X-2919240D01*
G01X-2850660D02*
X-2827800D01*
G01X-2810020D02*
X-2784620D01*
G01X-2688100D02*
X-2652540D01*
G01X-3246900Y-5958040D02*
X-3218960D01*
G01X-3188480D02*
X-3163080D01*
G01X-2985280D02*
X-2959880D01*
G01X-2944640D02*
X-2919240D01*
G01X-2850660D02*
X-2827800D01*
G01X-2812560D02*
X-2784620D01*
G01X-2688100D02*
X-2652540D01*
G01X-3244360Y-5955500D02*
X-3216420D01*
G01X-3188480D02*
X-3163080D01*
G01X-2985280D02*
X-2959880D01*
G01X-2947180D02*
X-2921780D01*
G01X-2850660D02*
X-2827800D01*
G01X-2812560D02*
X-2787160D01*
G01X-2688100D02*
X-2652540D01*
G01X-3244360Y-5952960D02*
X-3216420D01*
G01X-3188480D02*
X-3163080D01*
G01X-2987820D02*
X-2959880D01*
G01X-2947180D02*
X-2921780D01*
G01X-2850660D02*
X-2827800D01*
G01X-2812560D02*
X-2787160D01*
G01X-2688100D02*
X-2652540D01*
G01X-3241820Y-5950420D02*
X-3216420D01*
G01X-3191020D02*
X-3163080D01*
G01X-2987820D02*
X-2962420D01*
G01X-2949720D02*
X-2924320D01*
G01X-2850660D02*
X-2825260D01*
G01X-2812560D02*
X-2787160D01*
G01X-2688100D02*
X-2652540D01*
G01X-3241820Y-5947880D02*
X-3213880D01*
G01X-3191020D02*
X-3165620D01*
G01X-2987820D02*
X-2962420D01*
G01X-2949720D02*
X-2924320D01*
G01X-2848120D02*
X-2825260D01*
G01X-2812560D02*
X-2787160D01*
G01X-2688100D02*
X-2652540D01*
G01X-3241820Y-5945340D02*
X-3213880D01*
G01X-3191020D02*
X-3165620D01*
G01X-2987820D02*
X-2962420D01*
G01X-2952260D02*
X-2926860D01*
G01X-2848120D02*
X-2825260D01*
G01X-2812560D02*
X-2787160D01*
G01X-2688100D02*
X-2652540D01*
G01X-3239280Y-5942800D02*
X-3213880D01*
G01X-3191020D02*
X-3165620D01*
G01X-2987820D02*
X-2962420D01*
G01X-2952260D02*
X-2926860D01*
G01X-2848120D02*
X-2822720D01*
G01X-2812560D02*
X-2787160D01*
G01X-2688100D02*
X-2652540D01*
G01X-3239280Y-5940260D02*
X-3211340D01*
G01X-3191020D02*
X-3165620D01*
G01X-2987820D02*
X-2964960D01*
G01X-2954800D02*
X-2929400D01*
G01X-2848120D02*
X-2822720D01*
G01X-2812560D02*
X-2787160D01*
G01X-2690640D02*
X-2655080D01*
G01X-3239280Y-5937720D02*
X-3211340D01*
G01X-3191020D02*
X-3168160D01*
G01X-2987820D02*
X-2964960D01*
G01X-2954800D02*
X-2929400D01*
G01X-2845580D02*
X-2822720D01*
G01X-2812560D02*
X-2787160D01*
G01X-2690640D02*
X-2655080D01*
G01X-3239280Y-5935180D02*
X-3211340D01*
G01X-3193560D02*
X-3168160D01*
G01X-2987820D02*
X-2964960D01*
G01X-2957340D02*
X-2929400D01*
G01X-2845580D02*
X-2822720D01*
G01X-2815100D02*
X-2787160D01*
G01X-2690640D02*
X-2655080D01*
G01X-3236740Y-5932640D02*
X-3211340D01*
G01X-3193560D02*
X-3168160D01*
G01X-2987820D02*
X-2964960D01*
G01X-2957340D02*
X-2931940D01*
G01X-2848120D02*
X-2822720D01*
G01X-2815100D02*
X-2789700D01*
G01X-2690640D02*
X-2655080D01*
G01X-3236740Y-5930100D02*
X-3208800D01*
G01X-3193560D02*
X-3168160D01*
G01X-2990360D02*
X-2964960D01*
G01X-2957340D02*
X-2931940D01*
G01X-2845580D02*
X-2822720D01*
G01X-2815100D02*
X-2789700D01*
G01X-2693180D02*
X-2655080D01*
G01X-3236740Y-5927560D02*
X-3208800D01*
G01X-3193560D02*
X-3168160D01*
G01X-2990360D02*
X-2964960D01*
G01X-2959880D02*
X-2934480D01*
G01X-2845580D02*
X-2822720D01*
G01X-2815100D02*
X-2789700D01*
G01X-2693180D02*
X-2657620D01*
G01X-3234200Y-5925020D02*
X-3208800D01*
G01X-3193560D02*
X-3170700D01*
G01X-2990360D02*
X-2964960D01*
G01X-2959880D02*
X-2934480D01*
G01X-2845580D02*
X-2822720D01*
G01X-2815100D02*
X-2789700D01*
G01X-2693180D02*
X-2657620D01*
G01X-3234200Y-5922480D02*
X-3206260D01*
G01X-3193560D02*
X-3170700D01*
G01X-2990360D02*
X-2964960D01*
G01X-2962420D02*
X-2937020D01*
G01X-2845580D02*
X-2820180D01*
G01X-2817640D02*
X-2792240D01*
G01X-2693180D02*
X-2657620D01*
G01X-3234200Y-5919940D02*
X-3206260D01*
G01X-3193560D02*
X-3170700D01*
G01X-2990360D02*
X-2967500D01*
G01X-2962420D02*
X-2937020D01*
G01X-2843040D02*
X-2820180D01*
G01X-2817640D02*
X-2792240D01*
G01X-2693180D02*
X-2657620D01*
G01X-3231660Y-5917400D02*
X-3203720D01*
G01X-3196100D02*
X-3168160D01*
G01X-2992900D02*
X-2967500D01*
G01X-2964960D02*
X-2939560D01*
G01X-2843040D02*
X-2820180D01*
G01X-2817640D02*
X-2792240D01*
G01X-2693180D02*
X-2657620D01*
G01X-3231660Y-5914860D02*
X-3203720D01*
G01X-3196100D02*
X-3170700D01*
G01X-2992900D02*
X-2939560D01*
G01X-2843040D02*
X-2820180D01*
G01X-2817640D02*
X-2792240D01*
G01X-2695720D02*
X-2657620D01*
G01X-3231660Y-5912320D02*
X-3203720D01*
G01X-3196100D02*
X-3170700D01*
G01X-2992900D02*
X-2942100D01*
G01X-2843040D02*
X-2792240D01*
G01X-2695720D02*
X-2657620D01*
G01X-3229120Y-5909780D02*
X-3203720D01*
G01X-3196100D02*
X-3170700D01*
G01X-2992900D02*
X-2942100D01*
G01X-2840500D02*
X-2794780D01*
G01X-2695720D02*
X-2660160D01*
G01X-3229120Y-5907240D02*
X-3201180D01*
G01X-3196100D02*
X-3170700D01*
G01X-2992900D02*
X-2944640D01*
G01X-2840500D02*
X-2794780D01*
G01X-2695720D02*
X-2660160D01*
G01X-3229120Y-5904700D02*
X-3201180D01*
G01X-3196100D02*
X-3173240D01*
G01X-2992900D02*
X-2944640D01*
G01X-2840500D02*
X-2794780D01*
G01X-2698260D02*
X-2660160D01*
G01X-3226580Y-5902160D02*
X-3201180D01*
G01X-3198640D02*
X-3173240D01*
G01X-2992900D02*
X-2947180D01*
G01X-2840500D02*
X-2794780D01*
G01X-2698260D02*
X-2662700D01*
G01X-3226580Y-5899620D02*
X-3173240D01*
G01X-2992900D02*
X-2947180D01*
G01X-2840500D02*
X-2794780D01*
G01X-2698260D02*
X-2662700D01*
G01X-3226580Y-5897080D02*
X-3173240D01*
G01X-2992900D02*
X-2949720D01*
G01X-2840500D02*
X-2794780D01*
G01X-2700800D02*
X-2662700D01*
G01X-3224040Y-5894540D02*
X-3173240D01*
G01X-2995440D02*
X-2949720D01*
G01X-2840500D02*
X-2794780D01*
G01X-2700800D02*
X-2665240D01*
G01X-3224040Y-5892000D02*
X-3173240D01*
G01X-2995440D02*
X-2952260D01*
G01X-2840500D02*
X-2794780D01*
G01X-2700800D02*
X-2665240D01*
G01X-3224040Y-5889460D02*
X-3175780D01*
G01X-2995440D02*
X-2952260D01*
G01X-2837960D02*
X-2794780D01*
G01X-2700800D02*
X-2665240D01*
G01X-3221500Y-5886920D02*
X-3175780D01*
G01X-2995440D02*
X-2954800D01*
G01X-2837960D02*
X-2797320D01*
G01X-2703340D02*
X-2665240D01*
G01X-3221500Y-5884380D02*
X-3175780D01*
G01X-2997980D02*
X-2954800D01*
G01X-2837960D02*
X-2797320D01*
G01X-2703340D02*
X-2665240D01*
G01X-3221500Y-5881840D02*
X-3175780D01*
G01X-2997980D02*
X-2957340D01*
G01X-2837960D02*
X-2797320D01*
G01X-2703340D02*
X-2667780D01*
G01X-3221500Y-5879300D02*
X-3175780D01*
G01X-2997980D02*
X-2957340D01*
G01X-2835420D02*
X-2797320D01*
G01X-2705880D02*
X-2667780D01*
G01X-3218960Y-5876760D02*
X-3175780D01*
G01X-2997980D02*
X-2959880D01*
G01X-2835420D02*
X-2797320D01*
G01X-2705880D02*
X-2667780D01*
G01X-3218960Y-5874220D02*
X-3175780D01*
G01X-2997980D02*
X-2959880D01*
G01X-2835420D02*
X-2799860D01*
G01X-2705880D02*
X-2670320D01*
G01X-3216420Y-5871680D02*
X-3175780D01*
G01X-2997980D02*
X-2962420D01*
G01X-2835420D02*
X-2799860D01*
G01X-2708420D02*
X-2670320D01*
G01X-3216420Y-5869140D02*
X-3178320D01*
G01X-3000520D02*
X-2962420D01*
G01X-2835420D02*
X-2799860D01*
G01X-2708420D02*
X-2670320D01*
G01X-3216420Y-5866600D02*
X-3178320D01*
G01X-3000520D02*
X-2964960D01*
G01X-2835420D02*
X-2799860D01*
G01X-2710960D02*
X-2672860D01*
G01X-3216420Y-5864060D02*
X-3178320D01*
G01X-2997980D02*
X-2964960D01*
G01X-2835420D02*
X-2799860D01*
G01X-2710960D02*
X-2672860D01*
G01X-3213880Y-5861520D02*
X-3178320D01*
G01X-3000520D02*
X-2967500D01*
G01X-2832880D02*
X-2799860D01*
G01X-2710960D02*
X-2672860D01*
G01X-3213880Y-5858980D02*
X-3178320D01*
G01X-3000520D02*
X-2967500D01*
G01X-2832880D02*
X-2799860D01*
G01X-2713500D02*
X-2675400D01*
G01X-3211340Y-5856440D02*
X-3180860D01*
G01X-3000520D02*
X-2970040D01*
G01X-2832880D02*
X-2799860D01*
G01X-2713500D02*
X-2675400D01*
G01X-3211340Y-5853900D02*
X-3180860D01*
G01X-3000520D02*
X-2970040D01*
G01X-2832880D02*
X-2802400D01*
G01X-2713500D02*
X-2675400D01*
G01X-3211340Y-5851360D02*
X-3180860D01*
G01X-3000520D02*
X-2972580D01*
G01X-2830340D02*
X-2802400D01*
G01X-2716040D02*
X-2677940D01*
G01X-3211340Y-5848820D02*
X-3180860D01*
G01X-3003060D02*
X-2972580D01*
G01X-2830340D02*
X-2802400D01*
G01X-2716040D02*
X-2677940D01*
G01X-3208800Y-5846280D02*
X-3180860D01*
G01X-3003060D02*
X-2975120D01*
G01X-2830340D02*
X-2802400D01*
G01X-2718580D02*
X-2680480D01*
G01X-3208800Y-5843740D02*
X-3180860D01*
G01X-3003060D02*
X-2975120D01*
G01X-2830340D02*
X-2802400D01*
G01X-2718580D02*
X-2680480D01*
G01X-3208800Y-5841200D02*
X-3180860D01*
G01X-3003060D02*
X-2975120D01*
G01X-2830340D02*
X-2804940D01*
G01X-2721120D02*
X-2683020D01*
G01X-3206260Y-5838660D02*
X-3180860D01*
G01X-3003060D02*
X-2977660D01*
G01X-2830340D02*
X-2804940D01*
G01X-2721120D02*
X-2683020D01*
G01X-3206260Y-5836120D02*
X-3183400D01*
G01X-3003060D02*
X-2977660D01*
G01X-2827800D02*
X-2804940D01*
G01X-2723660D02*
X-2683020D01*
G01X-2723660Y-5833580D02*
X-2685560D01*
G01X-2723660Y-5831040D02*
X-2685560D01*
G01X-2726200Y-5828500D02*
X-2688100D01*
G01X-2728740Y-5825960D02*
X-2688100D01*
G01X-2728740Y-5823420D02*
X-2688100D01*
G01X-2731280Y-5820880D02*
X-2690640D01*
G01X-2731280Y-5818340D02*
X-2690640D01*
G01X-2733820Y-5815800D02*
X-2693180D01*
G01X-2733820Y-5813260D02*
X-2693180D01*
G01X-2736360Y-5810720D02*
X-2695720D01*
G01X-2736360Y-5808180D02*
X-2695720D01*
G01X-2738900Y-5805640D02*
X-2698260D01*
G01X-2741440Y-5803100D02*
X-2700800D01*
G01X-2741440Y-5800560D02*
X-2700800D01*
G01X-2743980Y-5798020D02*
X-2703340D01*
G01X-2746520Y-5795480D02*
X-2703340D01*
G01X-2746520Y-5792940D02*
X-2705880D01*
G01X-2749060Y-5790400D02*
X-2705880D01*
G01X-2749060Y-5787860D02*
X-2708420D01*
G01X-2751600Y-5785320D02*
X-2710960D01*
G01X-2754140Y-5782780D02*
X-2710960D01*
G01X-2756680Y-5780240D02*
X-2713500D01*
G01X-2759220Y-5777700D02*
X-2713500D01*
G01X-2759220Y-5775160D02*
X-2716040D01*
G01X-2761760Y-5772620D02*
X-2718580D01*
G01X-2764300Y-5770080D02*
X-2721120D01*
G01X-2764300Y-5767540D02*
X-2721120D01*
G01X-2766840Y-5765000D02*
X-2723660D01*
G01X-2769380Y-5762460D02*
X-2723660D01*
G01X-2771920Y-5759920D02*
X-2726200D01*
G01X-2774460Y-5757380D02*
X-2728740D01*
G01X-2777000Y-5754840D02*
X-2731280D01*
G01X-2779540Y-5752300D02*
X-2731280D01*
G01X-2782080Y-5749760D02*
X-2733820D01*
G01X-2784620Y-5747220D02*
X-2736360D01*
G01X-2784620Y-5744680D02*
X-2738900D01*
G01X-2787160Y-5742140D02*
X-2741440D01*
G01X-2789700Y-5739600D02*
X-2741440D01*
G01X-2792240Y-5737060D02*
X-2743980D01*
G01X-2794780Y-5734520D02*
X-2746520D01*
G01X-2797320Y-5731980D02*
X-2749060D01*
G01X-2799860Y-5729440D02*
X-2751600D01*
G01X-2802400Y-5726900D02*
X-2754140D01*
G01X-2807480Y-5724360D02*
X-2754140D01*
G01X-2810020Y-5721820D02*
X-2756680D01*
G01X-2812560Y-5719280D02*
X-2759220D01*
G01X-2815100Y-5716740D02*
X-2761760D01*
G01X-2817640Y-5714200D02*
X-2764300D01*
G01X-2820180Y-5711660D02*
X-2766840D01*
G01X-2822720Y-5709120D02*
X-2769380D01*
G01X-2825260Y-5706580D02*
X-2771920D01*
G01X-2830340Y-5704040D02*
X-2774460D01*
G01X-2832880Y-5701500D02*
X-2777000D01*
G01X-2837960Y-5698960D02*
X-2779540D01*
G01X-2840500Y-5696420D02*
X-2782080D01*
G01X-2843040Y-5693880D02*
X-2787160D01*
G01X-2845580Y-5691340D02*
X-2789700D01*
G01X-2850660Y-5688800D02*
X-2792240D01*
G01X-2855740Y-5686260D02*
X-2794780D01*
G01X-2860820Y-5683720D02*
X-2799860D01*
G01X-2863360Y-5681180D02*
X-2802400D01*
G01X-2865900Y-5678640D02*
X-2804940D01*
G01X-2870980Y-5676100D02*
X-2807480D01*
G01X-2876060Y-5673560D02*
X-2810020D01*
G01X-3295160Y-5671020D02*
X-3229120D01*
G01X-2878600D02*
X-2815100D01*
G01X-3292620Y-5668480D02*
X-3224040D01*
G01X-2886220D02*
X-2817640D01*
G01X-3287540Y-5665940D02*
X-3221500D01*
G01X-2888760D02*
X-2822720D01*
G01X-3285000Y-5663400D02*
X-3213880D01*
G01X-2896380D02*
X-2825260D01*
G01X-3279920Y-5660860D02*
X-3208800D01*
G01X-2901460D02*
X-2830340D01*
G01X-3277380Y-5658320D02*
X-3203720D01*
G01X-2906540D02*
X-2832880D01*
G01X-3274840Y-5655780D02*
X-3198640D01*
G01X-2911620D02*
X-2835420D01*
G01X-3269760Y-5653240D02*
X-3191020D01*
G01X-2919240D02*
X-2840500D01*
G01X-3264680Y-5650700D02*
X-3183400D01*
G01X-2926860D02*
X-2845580D01*
G01X-3262140Y-5648160D02*
X-3178320D01*
G01X-2931940D02*
X-2848120D01*
G01X-3257060Y-5645620D02*
X-3168160D01*
G01X-2939560D02*
X-2853200D01*
G01X-3251980Y-5643080D02*
X-3163080D01*
G01X-2947180D02*
X-2858280D01*
G01X-3246900Y-5640540D02*
X-3150380D01*
G01X-2959880D02*
X-2863360D01*
G01X-3241820Y-5638000D02*
X-3142760D01*
G01X-2967500D02*
X-2868440D01*
G01X-3236740Y-5635460D02*
X-3135140D01*
G01X-2975120D02*
X-2870980D01*
G01X-3231660Y-5632920D02*
X-3117360D01*
G01X-2992900D02*
X-2876060D01*
G01X-3226580Y-5630380D02*
X-3107200D01*
G01X-3003060D02*
X-2883680D01*
G01X-3221500Y-5627840D02*
X-3058940D01*
G01X-3051320D02*
X-2888760D01*
G01X-3216420Y-5625300D02*
X-2893840D01*
G01X-3208800Y-5622760D02*
X-2901460D01*
G01X-3203720Y-5620220D02*
X-2906540D01*
G01X-3198640Y-5617680D02*
X-2911620D01*
G01X-3188480Y-5615140D02*
X-2921780D01*
G01X-3295160Y-6321260D02*
X-3231660D01*
G01X-3300240Y-6318720D02*
X-3234200D01*
G01X-3302780Y-6316180D02*
X-3239280D01*
G01X-3305320Y-6313640D02*
X-3244360D01*
G01X-3307860Y-6311100D02*
X-3246900D01*
G01X-3312940Y-6308560D02*
X-3251980D01*
G01X-3315480Y-6306020D02*
X-3254520D01*
G01X-3318020Y-6303480D02*
X-3259600D01*
G01X-3320560Y-6300940D02*
X-3264680D01*
G01X-3323100Y-6298400D02*
X-3267220D01*
G01X-3328180Y-6295860D02*
X-3269760D01*
G01X-3305320Y-6156160D02*
X-3282460D01*
G01X-3305320Y-6153620D02*
X-3282460D01*
G01X-3305320Y-6151080D02*
X-3279920D01*
G01X-3307860Y-6148540D02*
X-3279920D01*
G01X-3307860Y-6146000D02*
X-3277380D01*
G01X-3307860Y-6143460D02*
X-3277380D01*
G01X-3307860Y-6140920D02*
X-3277380D01*
G01X-3307860Y-6138380D02*
X-3277380D01*
G01X-3310400Y-6135840D02*
X-3274840D01*
G01X-3310400Y-6133300D02*
X-3274840D01*
G01X-3310400Y-6130760D02*
X-3274840D01*
G01X-3310400Y-6128220D02*
X-3272300D01*
G01X-3310400Y-6125680D02*
X-3272300D01*
G01X-3310400Y-6123140D02*
X-3272300D01*
G01X-3310400Y-6120600D02*
X-3269760D01*
G01X-3310400Y-6118060D02*
X-3269760D01*
G01X-3310400Y-6115520D02*
X-3269760D01*
G01X-3312940Y-6112980D02*
X-3267220D01*
G01X-3312940Y-6110440D02*
X-3267220D01*
G01X-3312940Y-6107900D02*
X-3267220D01*
G01X-3312940Y-6105360D02*
X-3264680D01*
G01X-3315480Y-6102820D02*
X-3264680D01*
G01X-3315480Y-6100280D02*
X-3264680D01*
G01X-3315480Y-6097740D02*
X-3262140D01*
G01X-3315480Y-6095200D02*
X-3262140D01*
G01X-3315480Y-6092660D02*
X-3262140D01*
G01X-3315480Y-6090120D02*
X-3292620D01*
G01X-3287540D02*
X-3262140D01*
G01X-3315480Y-6087580D02*
X-3292620D01*
G01X-3287540D02*
X-3259600D01*
G01X-3315480Y-6085040D02*
X-3292620D01*
G01X-3287540D02*
X-3259600D01*
G01X-3315480Y-6082500D02*
X-3292620D01*
G01X-3285000D02*
X-3257060D01*
G01X-3318020Y-6079960D02*
X-3292620D01*
G01X-3285000D02*
X-3257060D01*
G01X-3318020Y-6077420D02*
X-3292620D01*
G01X-3285000D02*
X-3257060D01*
G01X-3318020Y-6074880D02*
X-3292620D01*
G01X-3282460D02*
X-3257060D01*
G01X-3318020Y-6072340D02*
X-3292620D01*
G01X-3282460D02*
X-3254520D01*
G01X-3318020Y-6069800D02*
X-3292620D01*
G01X-3282460D02*
X-3254520D01*
G01X-3320560Y-6067260D02*
X-3295160D01*
G01X-3279920D02*
X-3251980D01*
G01X-3320560Y-6064720D02*
X-3295160D01*
G01X-3279920D02*
X-3251980D01*
G01X-3320560Y-6062180D02*
X-3295160D01*
G01X-3279920D02*
X-3251980D01*
G01X-3320560Y-6059640D02*
X-3295160D01*
G01X-3277380D02*
X-3251980D01*
G01X-3320560Y-6057100D02*
X-3295160D01*
G01X-3277380D02*
X-3249440D01*
G01X-3323100Y-6054560D02*
X-3297700D01*
G01X-3274840D02*
X-3249440D01*
G01X-3323100Y-6052020D02*
X-3297700D01*
G01X-3274840D02*
X-3249440D01*
G01X-3323100Y-6049480D02*
X-3297700D01*
G01X-3274840D02*
X-3246900D01*
G01X-3323100Y-6046940D02*
X-3297700D01*
G01X-3274840D02*
X-3246900D01*
G01X-3323100Y-6044400D02*
X-3297700D01*
G01X-3274840D02*
X-3244360D01*
G01X-3323100Y-6041860D02*
X-3300240D01*
G01X-3272300D02*
X-3246900D01*
G01X-3323100Y-6039320D02*
X-3297700D01*
G01X-3272300D02*
X-3244360D01*
G01X-3323100Y-6036780D02*
X-3297700D01*
G01X-3269760D02*
X-3244360D01*
G01X-3325640Y-6034240D02*
X-3297700D01*
G01X-3269760D02*
X-3241820D01*
G01X-3325640Y-6031700D02*
X-3300240D01*
G01X-3269760D02*
X-3241820D01*
G01X-3325640Y-6029160D02*
X-3300240D01*
G01X-3269760D02*
X-3241820D01*
G01X-3325640Y-6026620D02*
X-3300240D01*
G01X-3267220D02*
X-3239280D01*
G01X-3325640Y-6024080D02*
X-3300240D01*
G01X-3267220D02*
X-3239280D01*
G01X-3325640Y-6021540D02*
X-3300240D01*
G01X-3264680D02*
X-3239280D01*
G01X-3328180Y-6019000D02*
X-3302780D01*
G01X-3264680D02*
X-3239280D01*
G01X-3328180Y-6016460D02*
X-3302780D01*
G01X-3264680D02*
X-3236740D01*
G01X-3328180Y-6013920D02*
X-3302780D01*
G01X-3264680D02*
X-3236740D01*
G01X-3328180Y-6011380D02*
X-3302780D01*
G01X-3262140D02*
X-3234200D01*
G01X-3328180Y-6008840D02*
X-3302780D01*
G01X-3262140D02*
X-3234200D01*
G01X-3328180Y-6006300D02*
X-3305320D01*
G01X-3262140D02*
X-3234200D01*
G01X-3328180Y-6003760D02*
X-3305320D01*
G01X-3259600D02*
X-3234200D01*
G01X-3328180Y-6001220D02*
X-3305320D01*
G01X-3259600D02*
X-3231660D01*
G01X-3257060Y-5998680D02*
X-3231660D01*
G01X-3328180Y-5696420D02*
X-3269760D01*
G01X-3323100Y-5693880D02*
X-3267220D01*
G01X-3320560Y-5691340D02*
X-3262140D01*
G01X-3318020Y-5688800D02*
X-3259600D01*
G01X-3315480Y-5686260D02*
X-3254520D01*
G01X-3310400Y-5683720D02*
X-3249440D01*
G01X-3307860Y-5681180D02*
X-3246900D01*
G01X-3305320Y-5678640D02*
X-3241820D01*
G01X-3302780Y-5676100D02*
X-3239280D01*
G01X-3300240Y-5673560D02*
X-3234200D01*
G01X-3183400Y-5612600D02*
X-2926860D01*
G01X-3173240Y-5610060D02*
X-2937020D01*
G01X-3168160Y-5607520D02*
X-2942100D01*
G01X-3155460Y-5604980D02*
X-2954800D01*
G01X-3147840Y-5602440D02*
X-2962420D01*
G01X-3137680Y-5599900D02*
X-2972580D01*
G01X-3119900Y-5597360D02*
X-2990360D01*
G01X-3107200Y-5594820D02*
X-3003060D01*
M02*
