G04 ================== begin FILE IDENTIFICATION RECORD ==================*
G04 Layout Name:  imx415_to_22pin.brd*
G04 Film Name:    SilkscreenTop*
G04 File Format:  Gerber RS274X*
G04 File Origin:  Cadence Allegro 17.4-S032*
G04 Origin Date:  Wed Jun 11 19:46:45 2025*
G04 *
G04 Layer:  REF DES/SILKSCREEN_TOP*
G04 Layer:  PACKAGE GEOMETRY/SILKSCREEN_TOP*
G04 Layer:  BOARD GEOMETRY/SILKSCREEN_TOP*
G04 Layer:  BOARD GEOMETRY/OUTLINE*
G04 *
G04 Offset:    (0.0000 0.0000)*
G04 Mirror:    No*
G04 Mode:      Positive*
G04 Rotation:  0*
G04 FullContactRelief:  No*
G04 UndefLineWidth:     0.1524*
G04 ================== end FILE IDENTIFICATION RECORD ====================*
%FSLAX25Y25*MOMM*%
%IR0*IPPOS*OFA0.00000B0.00000*MIA0B0*SFA1.00000B1.00000*%
%ADD10C,.127*%
%ADD11C,.254*%
%ADD12C,.1524*%
%ADD13C,.508*%
%ADD14C,.1778*%
%ADD15C,.0254*%
%ADD16C,.0762*%
G75*
%LPD*%
G75*
G54D10*
G01X302840Y2391250D02*
X308680Y2399120D01*
X315500Y2403060D01*
X323290Y2404370D01*
X333020Y2401750D01*
X339840Y2395180D01*
X341790Y2387310D01*
X340810Y2379430D01*
X336920Y2372870D01*
X317450Y2359750D01*
X308680Y2350560D01*
X302840Y2337440D01*
X300890Y2325630D01*
X341790D01*
G01X395000Y2404370D02*
X387210Y2401750D01*
X381370Y2395180D01*
X377470Y2387310D01*
X374550Y2376810D01*
X373580Y2365000D01*
X374550Y2353190D01*
X377470Y2342690D01*
X381370Y2334810D01*
X387210Y2328250D01*
X395000Y2325630D01*
X402790Y2328250D01*
X408630Y2334810D01*
X412530Y2342690D01*
X415450Y2353190D01*
X416420Y2365000D01*
X415450Y2376810D01*
X412530Y2387310D01*
X408630Y2395180D01*
X402790Y2401750D01*
X395000Y2404370D01*
G01X449190Y2325630D02*
Y2404370D01*
X472550D01*
X480340Y2400430D01*
X486190Y2391250D01*
X488130Y2380750D01*
X486190Y2370250D01*
X481320Y2362370D01*
X472550Y2358440D01*
X449190D01*
G01X644920Y921380D02*
X650760Y912190D01*
X658550Y906940D01*
X667310Y905630D01*
X675100Y906940D01*
X682890Y913500D01*
X687760Y921380D01*
X688730Y929250D01*
X686790Y938440D01*
X679970Y945000D01*
X673160Y947630D01*
X664390D01*
G01X673160D02*
X679000Y951560D01*
X683870Y958120D01*
X685810Y966000D01*
X683870Y973870D01*
X679000Y980430D01*
X670230Y984370D01*
X661470Y983060D01*
X652710Y977810D01*
G01X715660Y984370D02*
X740000Y905630D01*
X764340Y984370D01*
G01X792240Y921380D02*
X798080Y912190D01*
X805870Y906940D01*
X814630Y905630D01*
X822420Y906940D01*
X830210Y913500D01*
X835080Y921380D01*
X836050Y929250D01*
X834110Y938440D01*
X827290Y945000D01*
X820480Y947630D01*
X811710D01*
G01X820480D02*
X826320Y951560D01*
X831190Y958120D01*
X833130Y966000D01*
X831190Y973870D01*
X826320Y980430D01*
X817550Y984370D01*
X808790Y983060D01*
X800030Y977810D01*
G01X657180Y2095000D02*
X676660D01*
Y2071380D01*
X670810Y2063500D01*
X664000Y2058250D01*
X654260Y2055630D01*
X644520Y2058250D01*
X637710Y2063500D01*
X631870Y2071380D01*
X627970Y2080560D01*
X626020Y2091060D01*
Y2100250D01*
X627970Y2108120D01*
X631870Y2117310D01*
X637710Y2125180D01*
X643550Y2130430D01*
X651340Y2134370D01*
X658160D01*
X665940Y2131750D01*
X671790Y2126500D01*
G01X702610Y2055630D02*
Y2134370D01*
X747390Y2055630D01*
Y2134370D01*
G01X777240Y2055630D02*
Y2134370D01*
X796710D01*
X804500Y2130430D01*
X810340Y2125180D01*
X815210Y2117310D01*
X819110Y2108120D01*
X820080Y2095000D01*
X819110Y2081880D01*
X815210Y2072690D01*
X810340Y2064810D01*
X804500Y2059570D01*
X796710Y2055630D01*
X777240D01*
G01X2259920Y851380D02*
X2265760Y842190D01*
X2273550Y836940D01*
X2282310Y835630D01*
X2290100Y836940D01*
X2297890Y843500D01*
X2302760Y851380D01*
X2303730Y859250D01*
X2301790Y868440D01*
X2294970Y875000D01*
X2288160Y877630D01*
X2279390D01*
G01X2288160D02*
X2294000Y881560D01*
X2298870Y888120D01*
X2300810Y896000D01*
X2298870Y903870D01*
X2294000Y910430D01*
X2285230Y914370D01*
X2276470Y913060D01*
X2267710Y907810D01*
G01X2330660Y914370D02*
X2355000Y835630D01*
X2379340Y914370D01*
G01X2407240Y851380D02*
X2413080Y842190D01*
X2420870Y836940D01*
X2429630Y835630D01*
X2437420Y836940D01*
X2445210Y843500D01*
X2450080Y851380D01*
X2451050Y859250D01*
X2449110Y868440D01*
X2442290Y875000D01*
X2435480Y877630D01*
X2426710D01*
G01X2435480D02*
X2441320Y881560D01*
X2446190Y888120D01*
X2448130Y896000D01*
X2446190Y903870D01*
X2441320Y910430D01*
X2432550Y914370D01*
X2423790Y913060D01*
X2415030Y907810D01*
G01X2712840Y2441250D02*
X2718680Y2449120D01*
X2725500Y2453060D01*
X2733290Y2454370D01*
X2743020Y2451750D01*
X2749840Y2445180D01*
X2751790Y2437310D01*
X2750810Y2429430D01*
X2746920Y2422870D01*
X2727450Y2409750D01*
X2718680Y2400560D01*
X2712840Y2387440D01*
X2710890Y2375630D01*
X2751790D01*
G01X2786500Y2441250D02*
X2792340Y2449120D01*
X2799160Y2453060D01*
X2806950Y2454370D01*
X2816680Y2451750D01*
X2823500Y2445180D01*
X2825450Y2437310D01*
X2824470Y2429430D01*
X2820580Y2422870D01*
X2801110Y2409750D01*
X2792340Y2400560D01*
X2786500Y2387440D01*
X2784550Y2375630D01*
X2825450D01*
G01X2859190D02*
Y2454370D01*
X2882550D01*
X2890340Y2450430D01*
X2896190Y2441250D01*
X2898130Y2430750D01*
X2896190Y2420250D01*
X2891320Y2412370D01*
X2882550Y2408440D01*
X2859190D01*
G01X2312180Y2140000D02*
X2331660D01*
Y2116380D01*
X2325810Y2108500D01*
X2319000Y2103250D01*
X2309260Y2100630D01*
X2299520Y2103250D01*
X2292710Y2108500D01*
X2286870Y2116380D01*
X2282970Y2125560D01*
X2281020Y2136060D01*
Y2145250D01*
X2282970Y2153120D01*
X2286870Y2162310D01*
X2292710Y2170180D01*
X2298550Y2175430D01*
X2306340Y2179370D01*
X2313160D01*
X2320940Y2176750D01*
X2326790Y2171500D01*
G01X2357610Y2100630D02*
Y2179370D01*
X2402390Y2100630D01*
Y2179370D01*
G01X2432240Y2100630D02*
Y2179370D01*
X2451710D01*
X2459500Y2175430D01*
X2465340Y2170180D01*
X2470210Y2162310D01*
X2474110Y2153120D01*
X2475080Y2140000D01*
X2474110Y2126880D01*
X2470210Y2117690D01*
X2465340Y2109810D01*
X2459500Y2104570D01*
X2451710Y2100630D01*
X2432240D01*
G01X34079210Y18178740D02*
Y18100000D01*
G01X34056820Y18178740D02*
X34101600D01*
G01X34136320Y18100000D02*
Y18178740D01*
G01Y18140680D02*
X34141190Y18147240D01*
X34146050Y18151180D01*
X34153840Y18152490D01*
X34159690Y18151180D01*
X34166500Y18145930D01*
X34169420Y18138060D01*
Y18100000D01*
G01X34226530Y18152490D02*
Y18100000D01*
G01Y18173490D02*
X34224580Y18174800D01*
Y18177430D01*
X34226530Y18178740D01*
X34228480Y18177430D01*
Y18174800D01*
X34226530Y18173490D01*
G01X34285590Y18109180D02*
X34290450Y18103940D01*
X34297270Y18100000D01*
X34303110D01*
X34308950Y18102620D01*
X34312850Y18106560D01*
X34314790Y18111810D01*
X34313820Y18119690D01*
X34309930Y18123620D01*
X34292400Y18131490D01*
X34288510Y18140680D01*
X34290450Y18147240D01*
X34294350Y18151180D01*
X34300190Y18152490D01*
X34306030Y18151180D01*
X34311870Y18147240D01*
G01X34447510Y18152490D02*
Y18100000D01*
G01Y18173490D02*
X34445560Y18174800D01*
Y18177430D01*
X34447510Y18178740D01*
X34449460Y18177430D01*
Y18174800D01*
X34447510Y18173490D01*
G01X34506570Y18109180D02*
X34511430Y18103940D01*
X34518250Y18100000D01*
X34524090D01*
X34529930Y18102620D01*
X34533830Y18106560D01*
X34535770Y18111810D01*
X34534800Y18119690D01*
X34530910Y18123620D01*
X34513380Y18131490D01*
X34509490Y18140680D01*
X34511430Y18147240D01*
X34515330Y18151180D01*
X34521170Y18152490D01*
X34527010Y18151180D01*
X34532850Y18147240D01*
G01X34723650Y18165620D02*
X34729490Y18173490D01*
X34736310Y18177430D01*
X34744100Y18178740D01*
X34753830Y18176120D01*
X34760650Y18169550D01*
X34762600Y18161680D01*
X34761620Y18153800D01*
X34757730Y18147240D01*
X34738260Y18134120D01*
X34729490Y18124930D01*
X34723650Y18111810D01*
X34721700Y18100000D01*
X34762600D01*
G01X34889470Y18178740D02*
Y18100000D01*
G01X34867080Y18178740D02*
X34911860D01*
G01X34948530Y18135430D02*
X34979680D01*
X34976760Y18144620D01*
X34971890Y18149870D01*
X34965080Y18152490D01*
X34958260Y18151180D01*
X34952420Y18147240D01*
X34948530Y18138060D01*
X34946580Y18130180D01*
Y18122310D01*
X34948530Y18114430D01*
X34953390Y18106560D01*
X34959240Y18101310D01*
X34966050Y18100000D01*
X34972870Y18102620D01*
X34979680Y18110500D01*
G01X35022190Y18152490D02*
X35051390Y18100000D01*
G01Y18152490D02*
X35022190Y18100000D01*
G01X35110450Y18178740D02*
Y18100000D01*
G01X35096820Y18152490D02*
X35124080D01*
G54D11*
G01X-9641030Y-4932130D02*
X-9670760Y-4912050D01*
X-9705420Y-4898680D01*
X-9745040D01*
X-9789630Y-4918750D01*
X-9824290Y-4952190D01*
X-9849060Y-4992330D01*
X-9868880Y-5059210D01*
X-9873830Y-5119410D01*
X-9863920Y-5179610D01*
X-9849060Y-5219740D01*
X-9819340Y-5259880D01*
X-9784670Y-5286630D01*
X-9750000Y-5300000D01*
X-9715330D01*
X-9680660Y-5286630D01*
X-9650940Y-5266560D01*
X-9626170Y-5239810D01*
G01X-9710380Y4914040D02*
X-9690560Y4934100D01*
X-9675710Y4967540D01*
X-9665790Y5014370D01*
X-9675710Y5054500D01*
X-9695520Y5081250D01*
X-9730190Y5101320D01*
X-9863920D01*
Y4700000D01*
X-9700470D01*
X-9665790Y4726750D01*
X-9645990Y4766880D01*
X-9636080Y4813710D01*
X-9645990Y4860520D01*
X-9675710Y4900650D01*
X-9710380Y4914040D01*
X-9863920D01*
G01X-9873830Y14700000D02*
X-9750000Y15101320D01*
X-9626170Y14700000D01*
G01X-9670760Y14840460D02*
X-9829250D01*
G01X-4851410Y-9950660D02*
Y-9549340D01*
X-4910850Y-9629600D01*
G01Y-9950660D02*
X-4791980D01*
G01X-4851410Y19249340D02*
Y19650660D01*
X-4910850Y19570400D01*
G01Y19249340D02*
X-4791980D01*
G01X5054480Y-9616220D02*
X5084200Y-9576100D01*
X5118870Y-9556030D01*
X5158500Y-9549340D01*
X5208030Y-9562710D01*
X5242700Y-9596160D01*
X5252600Y-9636290D01*
X5247650Y-9676430D01*
X5227830Y-9709870D01*
X5128780Y-9776760D01*
X5084200Y-9823580D01*
X5054480Y-9890470D01*
X5044580Y-9950660D01*
X5252600D01*
G01X5054480Y19583780D02*
X5084200Y19623900D01*
X5118870Y19643970D01*
X5158500Y19650660D01*
X5208030Y19637290D01*
X5242700Y19603840D01*
X5252600Y19563710D01*
X5247650Y19523570D01*
X5227830Y19490130D01*
X5128780Y19423240D01*
X5084200Y19376420D01*
X5054480Y19309530D01*
X5044580Y19249340D01*
X5252600D01*
G01X15039620Y-9870400D02*
X15069340Y-9917220D01*
X15108960Y-9943970D01*
X15153550Y-9950660D01*
X15193170Y-9943970D01*
X15232800Y-9910540D01*
X15257560Y-9870400D01*
X15262510Y-9830270D01*
X15252600Y-9783450D01*
X15217930Y-9750010D01*
X15183260Y-9736620D01*
X15138680D01*
G01X15183260D02*
X15212980Y-9716560D01*
X15237750Y-9683120D01*
X15247650Y-9642990D01*
X15237750Y-9602850D01*
X15212980Y-9569410D01*
X15168400Y-9549340D01*
X15123830Y-9556030D01*
X15079250Y-9582790D01*
G01X15039620Y19329600D02*
X15069340Y19282780D01*
X15108960Y19256030D01*
X15153550Y19249340D01*
X15193170Y19256030D01*
X15232800Y19289460D01*
X15257560Y19329600D01*
X15262510Y19369730D01*
X15252600Y19416550D01*
X15217930Y19449990D01*
X15183260Y19463380D01*
X15138680D01*
G01X15183260D02*
X15212980Y19483440D01*
X15237750Y19516880D01*
X15247650Y19557010D01*
X15237750Y19597150D01*
X15212980Y19630590D01*
X15168400Y19650660D01*
X15123830Y19643970D01*
X15079250Y19617210D01*
G01X23951080Y-9239130D02*
X23965300Y-9219830D01*
X23981900Y-9210180D01*
X24000860Y-9206960D01*
X24024570Y-9213390D01*
X24041160Y-9229480D01*
X24045900Y-9248780D01*
X24043530Y-9268090D01*
X24034050Y-9284180D01*
X23986640Y-9316350D01*
X23965300Y-9338870D01*
X23951080Y-9371050D01*
X23946340Y-9400000D01*
X24045900D01*
G01X24163760Y-9206960D02*
X24144790Y-9213390D01*
X24130570Y-9229480D01*
X24121090Y-9248780D01*
X24113980Y-9274530D01*
X24111610Y-9303480D01*
X24113980Y-9332440D01*
X24121090Y-9358180D01*
X24130570Y-9377480D01*
X24144790Y-9393570D01*
X24163760Y-9400000D01*
X24182720Y-9393570D01*
X24196950Y-9377480D01*
X24206430Y-9358180D01*
X24213540Y-9332440D01*
X24215910Y-9303480D01*
X24213540Y-9274530D01*
X24206430Y-9248780D01*
X24196950Y-9229480D01*
X24182720Y-9213390D01*
X24163760Y-9206960D01*
G01X24331400Y-9400000D02*
Y-9206960D01*
X24302950Y-9245570D01*
G01Y-9400000D02*
X24359840D01*
G01X24499040D02*
X24515630Y-9396780D01*
X24534600Y-9387130D01*
X24546450Y-9371050D01*
X24551190Y-9348520D01*
X24546450Y-9326010D01*
X24532230Y-9306700D01*
X24510890Y-9297040D01*
X24487190D01*
X24472960Y-9290610D01*
X24461110Y-9274530D01*
X24456370Y-9252000D01*
X24463480Y-9229480D01*
X24480070Y-9213390D01*
X24499040Y-9206960D01*
X24518000Y-9213390D01*
X24534600Y-9229480D01*
X24541710Y-9252000D01*
X24536970Y-9274530D01*
X24525120Y-9290610D01*
X24510890Y-9297040D01*
X24487190D01*
X24465850Y-9306700D01*
X24451630Y-9326010D01*
X24446890Y-9348520D01*
X24451630Y-9371050D01*
X24463480Y-9387130D01*
X24482450Y-9396780D01*
X24499040Y-9400000D01*
G01X24635860Y-9335660D02*
X24697500D01*
G01X24834320Y-9206960D02*
X24815350Y-9213390D01*
X24801130Y-9229480D01*
X24791650Y-9248780D01*
X24784540Y-9274530D01*
X24782170Y-9303480D01*
X24784540Y-9332440D01*
X24791650Y-9358180D01*
X24801130Y-9377480D01*
X24815350Y-9393570D01*
X24834320Y-9400000D01*
X24853280Y-9393570D01*
X24867510Y-9377480D01*
X24876990Y-9358180D01*
X24884100Y-9332440D01*
X24886470Y-9303480D01*
X24884100Y-9274530D01*
X24876990Y-9248780D01*
X24867510Y-9229480D01*
X24853280Y-9213390D01*
X24834320Y-9206960D01*
G01X25001960Y-9400000D02*
Y-9206960D01*
X24973510Y-9245570D01*
G01Y-9400000D02*
X25030400D01*
G01X25138780Y-9335660D02*
X25200420D01*
G01X25337240Y-9206960D02*
X25318270Y-9213390D01*
X25304050Y-9229480D01*
X25294570Y-9248780D01*
X25287460Y-9274530D01*
X25285090Y-9303480D01*
X25287460Y-9332440D01*
X25294570Y-9358180D01*
X25304050Y-9377480D01*
X25318270Y-9393570D01*
X25337240Y-9400000D01*
X25356200Y-9393570D01*
X25370430Y-9377480D01*
X25379910Y-9358180D01*
X25387020Y-9332440D01*
X25389390Y-9303480D01*
X25387020Y-9274530D01*
X25379910Y-9248780D01*
X25370430Y-9229480D01*
X25356200Y-9213390D01*
X25337240Y-9206960D01*
G01X25459840Y-9239130D02*
X25474060Y-9219830D01*
X25490660Y-9210180D01*
X25509620Y-9206960D01*
X25533330Y-9213390D01*
X25549920Y-9229480D01*
X25554660Y-9248780D01*
X25552290Y-9268090D01*
X25542810Y-9284180D01*
X25495400Y-9316350D01*
X25474060Y-9338870D01*
X25459840Y-9371050D01*
X25455100Y-9400000D01*
X25554660D01*
G01X23941600Y-9100000D02*
Y-8906960D01*
X24050640Y-9100000D01*
Y-8906960D01*
G01X24135310D02*
X24192200D01*
G01X24163760D02*
Y-9100000D01*
G01X24135310D02*
X24192200D01*
G01X24276880D02*
Y-8906960D01*
X24385920Y-9100000D01*
Y-8906960D01*
G01X24513260Y-9003480D02*
X24560680D01*
Y-9061390D01*
X24546450Y-9080700D01*
X24529860Y-9093570D01*
X24506150Y-9100000D01*
X24482450Y-9093570D01*
X24465850Y-9080700D01*
X24451630Y-9061390D01*
X24442140Y-9038870D01*
X24437400Y-9013130D01*
Y-8990610D01*
X24442140Y-8971310D01*
X24451630Y-8948780D01*
X24465850Y-8929480D01*
X24480070Y-8916620D01*
X24499040Y-8906960D01*
X24515630D01*
X24534600Y-8913390D01*
X24548820Y-8926270D01*
G01X24666680Y-9106430D02*
X24661940Y-9103220D01*
Y-9096780D01*
X24666680Y-9093570D01*
X24671420Y-9096780D01*
Y-9103220D01*
X24666680Y-9106430D01*
G01X24786910Y-9061390D02*
X24798760Y-9080700D01*
X24812980Y-9093570D01*
X24829580Y-9100000D01*
X24848540Y-9093570D01*
X24862770Y-9080700D01*
X24876990Y-9061390D01*
X24881730Y-9035660D01*
Y-8906960D01*
G01X24973510D02*
X25030400D01*
G01X25001960D02*
Y-9100000D01*
G01X24973510D02*
X25030400D01*
G01X25110330D02*
X25169600Y-8906960D01*
X25228870Y-9100000D01*
G01X25207530Y-9032440D02*
X25131670D01*
G01X25282720Y-9100000D02*
Y-8906960D01*
X25391760Y-9100000D01*
Y-8906960D01*
G01X25457470D02*
Y-9100000D01*
X25552290D01*
G01X25644070Y-8906960D02*
X25700960D01*
G01X25672520D02*
Y-9100000D01*
G01X25644070D02*
X25700960D01*
G01X23951080Y-8239130D02*
X23965300Y-8219830D01*
X23981900Y-8210180D01*
X24000860Y-8206960D01*
X24024570Y-8213390D01*
X24041160Y-8229480D01*
X24045900Y-8248780D01*
X24043530Y-8268090D01*
X24034050Y-8284180D01*
X23986640Y-8316350D01*
X23965300Y-8338870D01*
X23951080Y-8371050D01*
X23946340Y-8400000D01*
X24045900D01*
G01X24163760Y-8206960D02*
X24144790Y-8213390D01*
X24130570Y-8229480D01*
X24121090Y-8248780D01*
X24113980Y-8274530D01*
X24111610Y-8303480D01*
X24113980Y-8332440D01*
X24121090Y-8358180D01*
X24130570Y-8377480D01*
X24144790Y-8393570D01*
X24163760Y-8400000D01*
X24182720Y-8393570D01*
X24196950Y-8377480D01*
X24206430Y-8358180D01*
X24213540Y-8332440D01*
X24215910Y-8303480D01*
X24213540Y-8274530D01*
X24206430Y-8248780D01*
X24196950Y-8229480D01*
X24182720Y-8213390D01*
X24163760Y-8206960D01*
G01X24331400Y-8400000D02*
Y-8206960D01*
X24302950Y-8245570D01*
G01Y-8400000D02*
X24359840D01*
G01X24499040D02*
X24515630Y-8396780D01*
X24534600Y-8387130D01*
X24546450Y-8371050D01*
X24551190Y-8348520D01*
X24546450Y-8326010D01*
X24532230Y-8306700D01*
X24510890Y-8297040D01*
X24487190D01*
X24472960Y-8290610D01*
X24461110Y-8274530D01*
X24456370Y-8252000D01*
X24463480Y-8229480D01*
X24480070Y-8213390D01*
X24499040Y-8206960D01*
X24518000Y-8213390D01*
X24534600Y-8229480D01*
X24541710Y-8252000D01*
X24536970Y-8274530D01*
X24525120Y-8290610D01*
X24510890Y-8297040D01*
X24487190D01*
X24465850Y-8306700D01*
X24451630Y-8326010D01*
X24446890Y-8348520D01*
X24451630Y-8371050D01*
X24463480Y-8387130D01*
X24482450Y-8396780D01*
X24499040Y-8400000D01*
G01X24635860Y-8335660D02*
X24697500D01*
G01X24834320Y-8206960D02*
X24815350Y-8213390D01*
X24801130Y-8229480D01*
X24791650Y-8248780D01*
X24784540Y-8274530D01*
X24782170Y-8303480D01*
X24784540Y-8332440D01*
X24791650Y-8358180D01*
X24801130Y-8377480D01*
X24815350Y-8393570D01*
X24834320Y-8400000D01*
X24853280Y-8393570D01*
X24867510Y-8377480D01*
X24876990Y-8358180D01*
X24884100Y-8332440D01*
X24886470Y-8303480D01*
X24884100Y-8274530D01*
X24876990Y-8248780D01*
X24867510Y-8229480D01*
X24853280Y-8213390D01*
X24834320Y-8206960D01*
G01X25001960Y-8400000D02*
Y-8206960D01*
X24973510Y-8245570D01*
G01Y-8400000D02*
X25030400D01*
G01X25138780Y-8335660D02*
X25200420D01*
G01X25337240Y-8206960D02*
X25318270Y-8213390D01*
X25304050Y-8229480D01*
X25294570Y-8248780D01*
X25287460Y-8274530D01*
X25285090Y-8303480D01*
X25287460Y-8332440D01*
X25294570Y-8358180D01*
X25304050Y-8377480D01*
X25318270Y-8393570D01*
X25337240Y-8400000D01*
X25356200Y-8393570D01*
X25370430Y-8377480D01*
X25379910Y-8358180D01*
X25387020Y-8332440D01*
X25389390Y-8303480D01*
X25387020Y-8274530D01*
X25379910Y-8248780D01*
X25370430Y-8229480D01*
X25356200Y-8213390D01*
X25337240Y-8206960D01*
G01X25459840Y-8239130D02*
X25474060Y-8219830D01*
X25490660Y-8210180D01*
X25509620Y-8206960D01*
X25533330Y-8213390D01*
X25549920Y-8229480D01*
X25554660Y-8248780D01*
X25552290Y-8268090D01*
X25542810Y-8284180D01*
X25495400Y-8316350D01*
X25474060Y-8338870D01*
X25459840Y-8371050D01*
X25455100Y-8400000D01*
X25554660D01*
G01X23941600Y-8100000D02*
Y-7906960D01*
X24050640Y-8100000D01*
Y-7906960D01*
G01X24135310D02*
X24192200D01*
G01X24163760D02*
Y-8100000D01*
G01X24135310D02*
X24192200D01*
G01X24276880D02*
Y-7906960D01*
X24385920Y-8100000D01*
Y-7906960D01*
G01X24513260Y-8003480D02*
X24560680D01*
Y-8061390D01*
X24546450Y-8080700D01*
X24529860Y-8093570D01*
X24506150Y-8100000D01*
X24482450Y-8093570D01*
X24465850Y-8080700D01*
X24451630Y-8061390D01*
X24442140Y-8038870D01*
X24437400Y-8013130D01*
Y-7990610D01*
X24442140Y-7971310D01*
X24451630Y-7948780D01*
X24465850Y-7929480D01*
X24480070Y-7916620D01*
X24499040Y-7906960D01*
X24515630D01*
X24534600Y-7913390D01*
X24548820Y-7926270D01*
G01X24666680Y-8106430D02*
X24661940Y-8103220D01*
Y-8096780D01*
X24666680Y-8093570D01*
X24671420Y-8096780D01*
Y-8103220D01*
X24666680Y-8106430D01*
G01X24786910Y-8061390D02*
X24798760Y-8080700D01*
X24812980Y-8093570D01*
X24829580Y-8100000D01*
X24848540Y-8093570D01*
X24862770Y-8080700D01*
X24876990Y-8061390D01*
X24881730Y-8035660D01*
Y-7906960D01*
G01X24973510D02*
X25030400D01*
G01X25001960D02*
Y-8100000D01*
G01X24973510D02*
X25030400D01*
G01X25110330D02*
X25169600Y-7906960D01*
X25228870Y-8100000D01*
G01X25207530Y-8032440D02*
X25131670D01*
G01X25282720Y-8100000D02*
Y-7906960D01*
X25391760Y-8100000D01*
Y-7906960D01*
G01X25457470D02*
Y-8100000D01*
X25552290D01*
G01X25644070Y-7906960D02*
X25700960D01*
G01X25672520D02*
Y-8100000D01*
G01X25644070D02*
X25700960D01*
G01X23941600Y-7100000D02*
Y-6906960D01*
X24050640Y-7100000D01*
Y-6906960D01*
G01X24135310D02*
X24192200D01*
G01X24163760D02*
Y-7100000D01*
G01X24135310D02*
X24192200D01*
G01X24276880D02*
Y-6906960D01*
X24385920Y-7100000D01*
Y-6906960D01*
G01X24513260Y-7003480D02*
X24560680D01*
Y-7061390D01*
X24546450Y-7080700D01*
X24529860Y-7093570D01*
X24506150Y-7100000D01*
X24482450Y-7093570D01*
X24465850Y-7080700D01*
X24451630Y-7061390D01*
X24442140Y-7038870D01*
X24437400Y-7013130D01*
Y-6990610D01*
X24442140Y-6971310D01*
X24451630Y-6948780D01*
X24465850Y-6929480D01*
X24480070Y-6916620D01*
X24499040Y-6906960D01*
X24515630D01*
X24534600Y-6913390D01*
X24548820Y-6926270D01*
G01X24666680Y-7106430D02*
X24661940Y-7103220D01*
Y-7096780D01*
X24666680Y-7093570D01*
X24671420Y-7096780D01*
Y-7103220D01*
X24666680Y-7106430D01*
G01X24786910Y-7061390D02*
X24798760Y-7080700D01*
X24812980Y-7093570D01*
X24829580Y-7100000D01*
X24848540Y-7093570D01*
X24862770Y-7080700D01*
X24876990Y-7061390D01*
X24881730Y-7035660D01*
Y-6906960D01*
G01X24973510D02*
X25030400D01*
G01X25001960D02*
Y-7100000D01*
G01X24973510D02*
X25030400D01*
G01X25110330D02*
X25169600Y-6906960D01*
X25228870Y-7100000D01*
G01X25207530Y-7032440D02*
X25131670D01*
G01X25282720Y-7100000D02*
Y-6906960D01*
X25391760Y-7100000D01*
Y-6906960D01*
G01X25457470D02*
Y-7100000D01*
X25552290D01*
G01X25644070Y-6906960D02*
X25700960D01*
G01X25672520D02*
Y-7100000D01*
G01X25644070D02*
X25700960D01*
G01X23951080Y-7239130D02*
X23965300Y-7219830D01*
X23981900Y-7210180D01*
X24000860Y-7206960D01*
X24024570Y-7213390D01*
X24041160Y-7229480D01*
X24045900Y-7248780D01*
X24043530Y-7268090D01*
X24034050Y-7284180D01*
X23986640Y-7316350D01*
X23965300Y-7338870D01*
X23951080Y-7371050D01*
X23946340Y-7400000D01*
X24045900D01*
G01X24163760Y-7206960D02*
X24144790Y-7213390D01*
X24130570Y-7229480D01*
X24121090Y-7248780D01*
X24113980Y-7274530D01*
X24111610Y-7303480D01*
X24113980Y-7332440D01*
X24121090Y-7358180D01*
X24130570Y-7377480D01*
X24144790Y-7393570D01*
X24163760Y-7400000D01*
X24182720Y-7393570D01*
X24196950Y-7377480D01*
X24206430Y-7358180D01*
X24213540Y-7332440D01*
X24215910Y-7303480D01*
X24213540Y-7274530D01*
X24206430Y-7248780D01*
X24196950Y-7229480D01*
X24182720Y-7213390D01*
X24163760Y-7206960D01*
G01X24331400Y-7400000D02*
Y-7206960D01*
X24302950Y-7245570D01*
G01Y-7400000D02*
X24359840D01*
G01X24499040D02*
X24515630Y-7396780D01*
X24534600Y-7387130D01*
X24546450Y-7371050D01*
X24551190Y-7348520D01*
X24546450Y-7326010D01*
X24532230Y-7306700D01*
X24510890Y-7297040D01*
X24487190D01*
X24472960Y-7290610D01*
X24461110Y-7274530D01*
X24456370Y-7252000D01*
X24463480Y-7229480D01*
X24480070Y-7213390D01*
X24499040Y-7206960D01*
X24518000Y-7213390D01*
X24534600Y-7229480D01*
X24541710Y-7252000D01*
X24536970Y-7274530D01*
X24525120Y-7290610D01*
X24510890Y-7297040D01*
X24487190D01*
X24465850Y-7306700D01*
X24451630Y-7326010D01*
X24446890Y-7348520D01*
X24451630Y-7371050D01*
X24463480Y-7387130D01*
X24482450Y-7396780D01*
X24499040Y-7400000D01*
G01X24635860Y-7335660D02*
X24697500D01*
G01X24834320Y-7206960D02*
X24815350Y-7213390D01*
X24801130Y-7229480D01*
X24791650Y-7248780D01*
X24784540Y-7274530D01*
X24782170Y-7303480D01*
X24784540Y-7332440D01*
X24791650Y-7358180D01*
X24801130Y-7377480D01*
X24815350Y-7393570D01*
X24834320Y-7400000D01*
X24853280Y-7393570D01*
X24867510Y-7377480D01*
X24876990Y-7358180D01*
X24884100Y-7332440D01*
X24886470Y-7303480D01*
X24884100Y-7274530D01*
X24876990Y-7248780D01*
X24867510Y-7229480D01*
X24853280Y-7213390D01*
X24834320Y-7206960D01*
G01X25001960Y-7400000D02*
Y-7206960D01*
X24973510Y-7245570D01*
G01Y-7400000D02*
X25030400D01*
G01X25138780Y-7335660D02*
X25200420D01*
G01X25337240Y-7206960D02*
X25318270Y-7213390D01*
X25304050Y-7229480D01*
X25294570Y-7248780D01*
X25287460Y-7274530D01*
X25285090Y-7303480D01*
X25287460Y-7332440D01*
X25294570Y-7358180D01*
X25304050Y-7377480D01*
X25318270Y-7393570D01*
X25337240Y-7400000D01*
X25356200Y-7393570D01*
X25370430Y-7377480D01*
X25379910Y-7358180D01*
X25387020Y-7332440D01*
X25389390Y-7303480D01*
X25387020Y-7274530D01*
X25379910Y-7248780D01*
X25370430Y-7229480D01*
X25356200Y-7213390D01*
X25337240Y-7206960D01*
G01X25459840Y-7239130D02*
X25474060Y-7219830D01*
X25490660Y-7210180D01*
X25509620Y-7206960D01*
X25533330Y-7213390D01*
X25549920Y-7229480D01*
X25554660Y-7248780D01*
X25552290Y-7268090D01*
X25542810Y-7284180D01*
X25495400Y-7316350D01*
X25474060Y-7338870D01*
X25459840Y-7371050D01*
X25455100Y-7400000D01*
X25554660D01*
G01X25208030Y-9950660D02*
Y-9549340D01*
X25024760Y-9836950D01*
X25272420D01*
G01X25208030Y19249340D02*
Y19650660D01*
X25024760Y19363050D01*
X25272420D01*
G01X26774530Y-6200000D02*
Y-5798680D01*
X26893400D01*
X26933030Y-5818750D01*
X26962750Y-5865560D01*
X26972650Y-5919070D01*
X26962750Y-5972580D01*
X26937980Y-6012720D01*
X26893400Y-6032790D01*
X26774530D01*
G01X27122510Y-6200000D02*
Y-5798680D01*
X27246330D01*
X27285960Y-5818750D01*
X27310730Y-5845500D01*
X27320630Y-5899010D01*
X27310730Y-5952520D01*
X27281010Y-5985960D01*
X27246330Y-6006030D01*
X27122510D01*
G01X27246330D02*
X27320630Y-6200000D01*
G01X27470490Y-6119740D02*
X27495260Y-6159880D01*
X27524970Y-6186630D01*
X27559640Y-6200000D01*
X27599270Y-6186630D01*
X27628990Y-6159880D01*
X27658710Y-6119740D01*
X27668610Y-6066230D01*
Y-5798680D01*
G01X28151590Y-6200000D02*
Y-5798680D01*
X28379430Y-6200000D01*
Y-5798680D01*
G01X28489660Y-6200000D02*
X28613490Y-5798680D01*
X28737320Y-6200000D01*
G01X28692730Y-6059540D02*
X28534240D01*
G01X28832690Y-6200000D02*
Y-5798680D01*
X28961470Y-6133120D01*
X29090250Y-5798680D01*
Y-6200000D01*
G01X29408510D02*
X29210390D01*
Y-5798680D01*
X29408510D01*
G01X29329260Y-5992650D02*
X29210390D01*
G01X27743970Y-9100000D02*
Y-8906960D01*
X27791380D01*
X27810340Y-8916620D01*
X27824570Y-8929480D01*
X27836420Y-8948780D01*
X27845900Y-8971310D01*
X27848270Y-9003480D01*
X27845900Y-9035660D01*
X27836420Y-9058180D01*
X27824570Y-9077480D01*
X27810340Y-9090350D01*
X27791380Y-9100000D01*
X27743970D01*
G01X27916350D02*
Y-8906960D01*
X27975610D01*
X27994580Y-8916620D01*
X28006430Y-8929480D01*
X28011170Y-8955220D01*
X28006430Y-8980960D01*
X27992210Y-8997040D01*
X27975610Y-9006700D01*
X27916350D01*
G01X27975610D02*
X28011170Y-9100000D01*
G01X28131400D02*
X28112430Y-9096780D01*
X28095840Y-9083920D01*
X28081620Y-9064610D01*
X28072130Y-9042090D01*
X28067390Y-9016350D01*
Y-8990610D01*
X28072130Y-8964870D01*
X28081620Y-8942350D01*
X28095840Y-8923050D01*
X28112430Y-8910180D01*
X28131400Y-8906960D01*
X28150360Y-8910180D01*
X28166960Y-8923050D01*
X28181180Y-8942350D01*
X28190670Y-8964870D01*
X28195410Y-8990610D01*
Y-9016350D01*
X28190670Y-9042090D01*
X28181180Y-9064610D01*
X28166960Y-9083920D01*
X28150360Y-9096780D01*
X28131400Y-9100000D01*
G01X28227920Y-8906960D02*
X28261110Y-9100000D01*
X28299040Y-8906960D01*
X28336970Y-9100000D01*
X28370160Y-8906960D01*
G01X28412160Y-9100000D02*
Y-8906960D01*
X28521200Y-9100000D01*
Y-8906960D01*
G01X28747440Y-9100000D02*
Y-8906960D01*
X28856480Y-9100000D01*
Y-8906960D01*
G01X28969600Y-9100000D02*
X28950630Y-9096780D01*
X28934040Y-9083920D01*
X28919820Y-9064610D01*
X28910330Y-9042090D01*
X28905590Y-9016350D01*
Y-8990610D01*
X28910330Y-8964870D01*
X28919820Y-8942350D01*
X28934040Y-8923050D01*
X28950630Y-8910180D01*
X28969600Y-8906960D01*
X28988560Y-8910180D01*
X29005160Y-8923050D01*
X29019380Y-8942350D01*
X29028870Y-8964870D01*
X29033610Y-8990610D01*
Y-9016350D01*
X29028870Y-9042090D01*
X29019380Y-9064610D01*
X29005160Y-9083920D01*
X28988560Y-9096780D01*
X28969600Y-9100000D01*
G01X29304880Y-9106430D02*
X29300140Y-9103220D01*
Y-9096780D01*
X29304880Y-9093570D01*
X29309620Y-9096780D01*
Y-9103220D01*
X29304880Y-9106430D01*
G01Y-9019570D02*
X29300140Y-9016350D01*
Y-9009920D01*
X29304880Y-9006700D01*
X29309620Y-9009920D01*
Y-9016350D01*
X29304880Y-9019570D01*
G01X27773590Y-8300000D02*
Y-7898680D01*
X27714150Y-7978940D01*
G01Y-8300000D02*
X27833020D01*
G01X28121570Y-8313370D02*
X28111660Y-8306690D01*
Y-8293310D01*
X28121570Y-8286630D01*
X28131480Y-8293310D01*
Y-8306690D01*
X28121570Y-8313370D01*
G01Y-8132790D02*
X28111660Y-8126100D01*
Y-8112720D01*
X28121570Y-8106030D01*
X28131480Y-8112720D01*
Y-8126100D01*
X28121570Y-8132790D01*
G01X28469550Y-8300000D02*
Y-7898680D01*
X28410110Y-7978940D01*
G01Y-8300000D02*
X28528980D01*
G01X27949760Y-7300000D02*
X28073590Y-6898680D01*
X28197420Y-7300000D01*
G01X28152830Y-7159540D02*
X27994340D01*
G01X28312600Y-7219740D02*
X28342320Y-7266560D01*
X28381940Y-7293310D01*
X28426530Y-7300000D01*
X28466150Y-7293310D01*
X28505780Y-7259880D01*
X28530540Y-7219740D01*
X28535490Y-7179610D01*
X28525580Y-7132790D01*
X28490910Y-7099350D01*
X28456240Y-7085960D01*
X28411660D01*
G01X28456240D02*
X28485960Y-7065900D01*
X28510730Y-7032460D01*
X28520630Y-6992330D01*
X28510730Y-6952190D01*
X28485960Y-6918750D01*
X28441380Y-6898680D01*
X28396810Y-6905370D01*
X28352230Y-6932130D01*
G01X29246340Y-8074270D02*
X29265300Y-8090350D01*
X29286640Y-8100000D01*
X29305600D01*
X29324570Y-8090350D01*
X29338790Y-8074270D01*
X29345900Y-8051740D01*
X29341160Y-8029220D01*
X29329310Y-8009920D01*
X29307970Y-7997040D01*
X29279530Y-7990610D01*
X29262930Y-7977740D01*
X29255820Y-7955220D01*
X29260560Y-7932700D01*
X29272410Y-7916620D01*
X29289010Y-7906960D01*
X29305600D01*
X29322200Y-7913390D01*
X29336420Y-7929480D01*
G01X29413980Y-8100000D02*
Y-7906960D01*
G01X29513540D02*
Y-8100000D01*
G01Y-8003480D02*
X29413980D01*
G01X29678810Y-8100000D02*
X29583990D01*
Y-7906960D01*
X29678810D01*
G01X29640880Y-8000260D02*
X29583990D01*
G01X29846450Y-8100000D02*
X29751630D01*
Y-7906960D01*
X29846450D01*
G01X29808520Y-8000260D02*
X29751630D01*
G01X29966680Y-7906960D02*
Y-8100000D01*
G01X29912160Y-7906960D02*
X30021200D01*
G01X30301960Y-8100000D02*
Y-7906960D01*
X30273510Y-7945570D01*
G01Y-8100000D02*
X30330400D01*
G01X30637240D02*
X30618270Y-8096780D01*
X30601680Y-8083920D01*
X30587460Y-8064610D01*
X30577970Y-8042090D01*
X30573230Y-8016350D01*
Y-7990610D01*
X30577970Y-7964870D01*
X30587460Y-7942350D01*
X30601680Y-7923050D01*
X30618270Y-7910180D01*
X30637240Y-7906960D01*
X30656200Y-7910180D01*
X30672800Y-7923050D01*
X30687020Y-7942350D01*
X30696510Y-7964870D01*
X30701250Y-7990610D01*
Y-8016350D01*
X30696510Y-8042090D01*
X30687020Y-8064610D01*
X30672800Y-8083920D01*
X30656200Y-8096780D01*
X30637240Y-8100000D01*
G01X30759840D02*
Y-7906960D01*
X30849920D01*
G01X30816730Y-8000260D02*
X30759840D01*
G01X31140160Y-8100000D02*
Y-7906960D01*
X31111710Y-7945570D01*
G01Y-8100000D02*
X31168600D01*
G01X29244680Y-6982500D02*
X29343110Y-7300000D01*
X29441540Y-6982500D01*
G01X29617430Y-7300000D02*
Y-6982500D01*
X29570190Y-7046000D01*
G01Y-7300000D02*
X29664670D01*
G01X29891750Y-6982500D02*
X29860250Y-6993080D01*
X29836630Y-7019540D01*
X29820880Y-7051290D01*
X29809070Y-7093630D01*
X29805140Y-7141250D01*
X29809070Y-7188880D01*
X29820880Y-7231210D01*
X29836630Y-7262970D01*
X29860250Y-7289420D01*
X29891750Y-7300000D01*
X29923240Y-7289420D01*
X29946870Y-7262970D01*
X29962620Y-7231210D01*
X29974430Y-7188880D01*
X29978360Y-7141250D01*
X29974430Y-7093630D01*
X29962620Y-7051290D01*
X29946870Y-7019540D01*
X29923240Y-6993080D01*
X29891750Y-6982500D01*
G01X30166070D02*
X30134570Y-6993080D01*
X30110950Y-7019540D01*
X30095200Y-7051290D01*
X30083390Y-7093630D01*
X30079460Y-7141250D01*
X30083390Y-7188880D01*
X30095200Y-7231210D01*
X30110950Y-7262970D01*
X30134570Y-7289420D01*
X30166070Y-7300000D01*
X30197560Y-7289420D01*
X30221190Y-7262970D01*
X30236940Y-7231210D01*
X30248750Y-7188880D01*
X30252680Y-7141250D01*
X30248750Y-7093630D01*
X30236940Y-7051290D01*
X30221190Y-7019540D01*
X30197560Y-6993080D01*
X30166070Y-6982500D01*
G01X30361650Y-7300000D02*
Y-6982500D01*
X30460070D01*
X30491570Y-6998380D01*
X30511260Y-7019540D01*
X30519130Y-7061880D01*
X30511260Y-7104210D01*
X30487630Y-7130660D01*
X30460070Y-7146550D01*
X30361650D01*
G01X30460070D02*
X30519130Y-7300000D01*
G01X30714710Y-6982500D02*
X30683210Y-6993080D01*
X30659590Y-7019540D01*
X30643840Y-7051290D01*
X30632030Y-7093630D01*
X30628100Y-7141250D01*
X30632030Y-7188880D01*
X30643840Y-7231210D01*
X30659590Y-7262970D01*
X30683210Y-7289420D01*
X30714710Y-7300000D01*
X30746200Y-7289420D01*
X30769830Y-7262970D01*
X30785580Y-7231210D01*
X30797390Y-7188880D01*
X30801320Y-7141250D01*
X30797390Y-7093630D01*
X30785580Y-7051290D01*
X30769830Y-7019540D01*
X30746200Y-6993080D01*
X30714710Y-6982500D01*
G01X30989030D02*
X30957530Y-6993080D01*
X30933910Y-7019540D01*
X30918160Y-7051290D01*
X30906350Y-7093630D01*
X30902420Y-7141250D01*
X30906350Y-7188880D01*
X30918160Y-7231210D01*
X30933910Y-7262970D01*
X30957530Y-7289420D01*
X30989030Y-7300000D01*
X31020520Y-7289420D01*
X31044150Y-7262970D01*
X31059900Y-7231210D01*
X31071710Y-7188880D01*
X31075640Y-7141250D01*
X31071710Y-7093630D01*
X31059900Y-7051290D01*
X31044150Y-7019540D01*
X31020520Y-6993080D01*
X30989030Y-6982500D01*
G01X31263350Y-7300000D02*
Y-6982500D01*
X31216110Y-7046000D01*
G01Y-7300000D02*
X31310590D01*
G01X31858970Y-4932130D02*
X31829240Y-4912050D01*
X31794580Y-4898680D01*
X31754960D01*
X31710370Y-4918750D01*
X31675710Y-4952190D01*
X31650940Y-4992330D01*
X31631120Y-5059210D01*
X31626170Y-5119410D01*
X31636080Y-5179610D01*
X31650940Y-5219740D01*
X31680660Y-5259880D01*
X31715330Y-5286630D01*
X31750000Y-5300000D01*
X31784670D01*
X31819340Y-5286630D01*
X31849060Y-5266560D01*
X31873830Y-5239810D01*
G01X31789620Y4914040D02*
X31809440Y4934100D01*
X31824290Y4967540D01*
X31834210Y5014370D01*
X31824290Y5054500D01*
X31804480Y5081250D01*
X31769810Y5101320D01*
X31636080D01*
Y4700000D01*
X31799530D01*
X31834210Y4726750D01*
X31854010Y4766880D01*
X31863920Y4813710D01*
X31854010Y4860520D01*
X31824290Y4900650D01*
X31789620Y4914040D01*
X31636080D01*
G01X31626170Y14700000D02*
X31750000Y15101320D01*
X31873830Y14700000D01*
G01X31829240Y14840460D02*
X31670750D01*
G01X34335670Y11569600D02*
Y10799980D01*
G01X34116610Y11569600D02*
X34554750D01*
G01X34821450Y10799980D02*
Y11569600D01*
G01Y11197630D02*
X34869080Y11261750D01*
X34916710Y11300220D01*
X34992910Y11313040D01*
X35050050Y11300220D01*
X35116730Y11248920D01*
X35145310Y11171950D01*
Y10799980D01*
G01X35631070Y11313040D02*
Y10799980D01*
G01Y11518280D02*
X35612030Y11531100D01*
Y11556780D01*
X35631070Y11569600D01*
X35650130Y11556780D01*
Y11531100D01*
X35631070Y11518280D01*
G01X36135910Y10889750D02*
X36183520Y10838450D01*
X36250200Y10799980D01*
X36307360D01*
X36364510Y10825630D01*
X36402600Y10864100D01*
X36421650Y10915400D01*
X36412130Y10992390D01*
X36374040Y11030860D01*
X36202570Y11107810D01*
X36164480Y11197630D01*
X36183520Y11261750D01*
X36221630Y11300220D01*
X36278770Y11313040D01*
X36335930Y11300220D01*
X36393080Y11261750D01*
G01X37574170Y11313040D02*
Y10799980D01*
G01Y11518280D02*
X37555130Y11531100D01*
Y11556780D01*
X37574170Y11569600D01*
X37593230Y11556780D01*
Y11531100D01*
X37574170Y11518280D01*
G01X38079010Y10889750D02*
X38126620Y10838450D01*
X38193300Y10799980D01*
X38250460D01*
X38307610Y10825630D01*
X38345700Y10864100D01*
X38364750Y10915400D01*
X38355230Y10992390D01*
X38317140Y11030860D01*
X38145670Y11107810D01*
X38107580Y11197630D01*
X38126620Y11261750D01*
X38164730Y11300220D01*
X38221870Y11313040D01*
X38279030Y11300220D01*
X38336180Y11261750D01*
G01X39517270Y10799980D02*
Y11569600D01*
X39402980Y11415690D01*
G01Y10799980D02*
X39631560D01*
G01X39984000Y11120630D02*
X40050680Y11210450D01*
X40107830Y11261750D01*
X40184030Y11287400D01*
X40250710Y11261750D01*
X40298330Y11210450D01*
X40336440Y11133480D01*
X40345960Y11043690D01*
X40336440Y10966720D01*
X40298330Y10889750D01*
X40241170Y10825630D01*
X40174510Y10799980D01*
X40098310Y10825630D01*
X40031630Y10902570D01*
X39993520Y11018040D01*
X39984000Y11146310D01*
X40003050Y11313040D01*
X40031630Y11402860D01*
X40079250Y11492630D01*
X40145930Y11556780D01*
X40212600Y11569600D01*
X40279280Y11543950D01*
X40326910Y11479810D01*
G01X41460370Y11569600D02*
Y10799980D01*
G01X41241310Y11569600D02*
X41679450D01*
G01X41965210Y11146310D02*
X42270010D01*
X42241430Y11236100D01*
X42193810Y11287400D01*
X42127130Y11313040D01*
X42060460Y11300220D01*
X42003300Y11261750D01*
X41965210Y11171950D01*
X41946150Y11094980D01*
Y11018040D01*
X41965210Y10941070D01*
X42012820Y10864100D01*
X42069980Y10812800D01*
X42136660Y10799980D01*
X42203340Y10825630D01*
X42270010Y10902570D01*
G01X42612910Y11313040D02*
X42898650Y10799980D01*
G01Y11313040D02*
X42612910Y10799980D01*
G01X43403470Y11569600D02*
Y10799980D01*
G01X43270130Y11313040D02*
X43536830D01*
G01X34340020Y12397700D02*
Y11750000D01*
G01X34156010Y12397700D02*
X34524050D01*
G01X34747570Y11750000D02*
Y12397700D01*
G01Y12084650D02*
X34787580Y12138620D01*
X34827590Y12170990D01*
X34891600Y12181790D01*
X34939590Y12170990D01*
X34995600Y12127820D01*
X35019610Y12063050D01*
Y11750000D01*
G01X35427140Y12181790D02*
Y11750000D01*
G01Y12354510D02*
X35411140Y12365300D01*
Y12386910D01*
X35427140Y12397700D01*
X35443160Y12386910D01*
Y12365300D01*
X35427140Y12354510D01*
G01X35850700Y11825550D02*
X35890700Y11782380D01*
X35946700Y11750000D01*
X35994720D01*
X36042730Y11771590D01*
X36074720Y11803960D01*
X36090720Y11847130D01*
X36082720Y11911930D01*
X36050720Y11944310D01*
X35906690Y12009060D01*
X35874700Y12084650D01*
X35890700Y12138620D01*
X35922710Y12170990D01*
X35970700Y12181790D01*
X36018710Y12170990D01*
X36066720Y12138620D01*
G01X37057820Y12181790D02*
Y11750000D01*
G01Y12354510D02*
X37041820Y12365300D01*
Y12386910D01*
X37057820Y12397700D01*
X37073840Y12386910D01*
Y12365300D01*
X37057820Y12354510D01*
G01X37481380Y11825550D02*
X37521380Y11782380D01*
X37577380Y11750000D01*
X37625400D01*
X37673410Y11771590D01*
X37705400Y11803960D01*
X37721400Y11847130D01*
X37713400Y11911930D01*
X37681400Y11944310D01*
X37537370Y12009060D01*
X37505380Y12084650D01*
X37521380Y12138620D01*
X37553390Y12170990D01*
X37601380Y12181790D01*
X37649390Y12170990D01*
X37697400Y12138620D01*
G01X38688500Y11750000D02*
Y12397700D01*
X38592500Y12268170D01*
G01Y11750000D02*
X38784510D01*
G01X39056050Y11847130D02*
X39104040Y11793170D01*
X39160050Y11760790D01*
X39232060Y11750000D01*
X39304090Y11771590D01*
X39360080Y11814760D01*
X39400090Y11890320D01*
X39408090Y11976690D01*
X39392090Y12063050D01*
X39352080Y12117030D01*
X39296070Y12160200D01*
X39240080Y12170990D01*
X39184070Y12160200D01*
X39112060Y12117030D01*
X39136060Y12397700D01*
X39352080D01*
G01X40319180D02*
Y11750000D01*
G01X40135170Y12397700D02*
X40503210D01*
G01X40742740Y12041460D02*
X40998770D01*
X40974760Y12117030D01*
X40934770Y12160200D01*
X40878760Y12181790D01*
X40822750Y12170990D01*
X40774740Y12138620D01*
X40742740Y12063050D01*
X40726730Y11998270D01*
Y11933520D01*
X40742740Y11868740D01*
X40782740Y11803960D01*
X40830750Y11760790D01*
X40886760Y11750000D01*
X40942760Y11771590D01*
X40998770Y11836340D01*
G01X41286300Y12181790D02*
X41526320Y11750000D01*
G01Y12181790D02*
X41286300Y11750000D01*
G01X41949860Y12397700D02*
Y11750000D01*
G01X41837860Y12181790D02*
X42061880D01*
G01X34312080Y13171500D02*
Y12600000D01*
G01X34149490Y13171500D02*
X34474690D01*
G01X34679580Y12600000D02*
Y13171500D01*
G01Y12895280D02*
X34714930Y12942900D01*
X34750290Y12971470D01*
X34806840Y12980990D01*
X34849250Y12971470D01*
X34898740Y12933370D01*
X34919960Y12876220D01*
Y12600000D01*
G01X35287440Y12980990D02*
Y12600000D01*
G01Y13133390D02*
X35273310Y13142910D01*
Y13161980D01*
X35287440Y13171500D01*
X35301590Y13161980D01*
Y13142910D01*
X35287440Y13133390D01*
G01X35669090Y12666660D02*
X35704430Y12628570D01*
X35753920Y12600000D01*
X35796340D01*
X35838760Y12619050D01*
X35867040Y12647610D01*
X35881170Y12685710D01*
X35874100Y12742880D01*
X35845830Y12771450D01*
X35718570Y12828590D01*
X35690290Y12895280D01*
X35704430Y12942900D01*
X35732710Y12971470D01*
X35775120Y12980990D01*
X35817550Y12971470D01*
X35859970Y12942900D01*
G01X36750480Y12980990D02*
Y12600000D01*
G01Y13133390D02*
X36736350Y13142910D01*
Y13161980D01*
X36750480Y13171500D01*
X36764630Y13161980D01*
Y13142910D01*
X36750480Y13133390D01*
G01X37132130Y12666660D02*
X37167470Y12628570D01*
X37216960Y12600000D01*
X37259380D01*
X37301800Y12619050D01*
X37330080Y12647610D01*
X37344210Y12685710D01*
X37337140Y12742880D01*
X37308870Y12771450D01*
X37181610Y12828590D01*
X37153330Y12895280D01*
X37167470Y12942900D01*
X37195750Y12971470D01*
X37238160Y12980990D01*
X37280590Y12971470D01*
X37323010Y12942900D01*
G01X38213520Y12600000D02*
Y13171500D01*
X38128690Y13057210D01*
G01Y12600000D02*
X38298350D01*
G01X38786050D02*
Y13171500D01*
X38524460Y12761930D01*
X38877960D01*
G01X39676560Y13171500D02*
Y12600000D01*
G01X39513970Y13171500D02*
X39839170D01*
G01X40058210Y12857170D02*
X40284440D01*
X40263220Y12923850D01*
X40227880Y12961940D01*
X40178390Y12980990D01*
X40128900Y12971470D01*
X40086480Y12942900D01*
X40058210Y12876220D01*
X40044060Y12819060D01*
Y12761930D01*
X40058210Y12704770D01*
X40093550Y12647610D01*
X40135970Y12609520D01*
X40185460Y12600000D01*
X40234950Y12619050D01*
X40284440Y12676180D01*
G01X40545890Y12980990D02*
X40757970Y12600000D01*
G01Y12980990D02*
X40545890Y12600000D01*
G01X41139600Y13171500D02*
Y12600000D01*
G01X41040640Y12980990D02*
X41238580D01*
G01X34290490Y13865620D02*
Y13350000D01*
G01X34144450Y13865620D02*
X34436550D01*
G01X34627040Y13350000D02*
Y13865620D01*
G01Y13616410D02*
X34658800Y13659370D01*
X34690550Y13685140D01*
X34741350Y13693740D01*
X34779450Y13685140D01*
X34823900Y13650780D01*
X34842960Y13599210D01*
Y13350000D01*
G01X35179490Y13693740D02*
Y13350000D01*
G01Y13831240D02*
X35166800Y13839830D01*
Y13857030D01*
X35179490Y13865620D01*
X35192200Y13857030D01*
Y13839830D01*
X35179490Y13831240D01*
G01X35528750Y13410140D02*
X35560500Y13375780D01*
X35604950Y13350000D01*
X35643050D01*
X35681160Y13367180D01*
X35706550Y13392960D01*
X35719250Y13427330D01*
X35712900Y13478910D01*
X35687500Y13504680D01*
X35573190Y13556240D01*
X35547800Y13616410D01*
X35560500Y13659370D01*
X35585900Y13685140D01*
X35623990Y13693740D01*
X35662100Y13685140D01*
X35700200Y13659370D01*
G01X36512990Y13693740D02*
Y13350000D01*
G01Y13831240D02*
X36500300Y13839830D01*
Y13857030D01*
X36512990Y13865620D01*
X36525700Y13857030D01*
Y13839830D01*
X36512990Y13831240D01*
G01X36862250Y13410140D02*
X36894000Y13375780D01*
X36938450Y13350000D01*
X36976550D01*
X37014660Y13367180D01*
X37040050Y13392960D01*
X37052750Y13427330D01*
X37046400Y13478910D01*
X37021000Y13504680D01*
X36906690Y13556240D01*
X36881300Y13616410D01*
X36894000Y13659370D01*
X36919400Y13685140D01*
X36957490Y13693740D01*
X36995600Y13685140D01*
X37033700Y13659370D01*
G01X37846490Y13350000D02*
Y13865620D01*
X37770300Y13762500D01*
G01Y13350000D02*
X37922690D01*
G01X38151300Y13453120D02*
X38189390Y13392960D01*
X38240190Y13358590D01*
X38297350Y13350000D01*
X38348160Y13358590D01*
X38398960Y13401550D01*
X38430700Y13453120D01*
X38437050Y13504680D01*
X38424350Y13564830D01*
X38379900Y13607800D01*
X38335450Y13625000D01*
X38278300D01*
G01X38335450D02*
X38373550Y13650780D01*
X38405300Y13693740D01*
X38418000Y13745300D01*
X38405300Y13796870D01*
X38373550Y13839830D01*
X38316400Y13865620D01*
X38259250Y13857030D01*
X38202100Y13822650D01*
G01X39179990Y13865620D02*
Y13350000D01*
G01X39033950Y13865620D02*
X39326050D01*
G01X39529250Y13582030D02*
X39732460D01*
X39713400Y13642190D01*
X39681660Y13676550D01*
X39637200Y13693740D01*
X39592750Y13685140D01*
X39554650Y13659370D01*
X39529250Y13599210D01*
X39516540Y13547640D01*
Y13496090D01*
X39529250Y13444530D01*
X39561000Y13392960D01*
X39599100Y13358590D01*
X39643550Y13350000D01*
X39688000Y13367180D01*
X39732460Y13418730D01*
G01X39973750Y13693740D02*
X40164250Y13350000D01*
G01Y13693740D02*
X39973750Y13350000D01*
G01X40513490Y13865620D02*
Y13350000D01*
G01X40424600Y13693740D02*
X40602400D01*
G01X34279060Y14582600D02*
Y14100000D01*
G01X34141790Y14582600D02*
X34416350D01*
G01X34586530Y14100000D02*
Y14582600D01*
G01Y14349350D02*
X34616380Y14389560D01*
X34646230Y14413680D01*
X34693980Y14421720D01*
X34729790Y14413680D01*
X34771570Y14381520D01*
X34789490Y14333250D01*
Y14100000D01*
G01X35096940Y14421720D02*
Y14100000D01*
G01Y14550420D02*
X35085010Y14558460D01*
Y14574560D01*
X35096940Y14582600D01*
X35108890Y14574560D01*
Y14558460D01*
X35096940Y14550420D01*
G01X35416360Y14156290D02*
X35446200Y14124120D01*
X35487980Y14100000D01*
X35523800D01*
X35559620Y14116080D01*
X35583490Y14140210D01*
X35595420Y14172370D01*
X35589450Y14220650D01*
X35565580Y14244780D01*
X35458130Y14293030D01*
X35434260Y14349350D01*
X35446200Y14389560D01*
X35470080Y14413680D01*
X35505880Y14421720D01*
X35541700Y14413680D01*
X35577520Y14389560D01*
G01X36323760Y14421720D02*
Y14100000D01*
G01Y14550420D02*
X36311830Y14558460D01*
Y14574560D01*
X36323760Y14582600D01*
X36335710Y14574560D01*
Y14558460D01*
X36323760Y14550420D01*
G01X36643180Y14156290D02*
X36673020Y14124120D01*
X36714800Y14100000D01*
X36750620D01*
X36786440Y14116080D01*
X36810310Y14140210D01*
X36822240Y14172370D01*
X36816270Y14220650D01*
X36792400Y14244780D01*
X36684950Y14293030D01*
X36661080Y14349350D01*
X36673020Y14389560D01*
X36696900Y14413680D01*
X36732700Y14421720D01*
X36768520Y14413680D01*
X36804340Y14389560D01*
G01X37550580Y14100000D02*
Y14582600D01*
X37478960Y14486090D01*
G01Y14100000D02*
X37622210D01*
G01X37846120Y14502170D02*
X37881930Y14550420D01*
X37923720Y14574560D01*
X37971470Y14582600D01*
X38031160Y14566520D01*
X38072940Y14526290D01*
X38084880Y14478040D01*
X38078910Y14429770D01*
X38055030Y14389560D01*
X37935650Y14309130D01*
X37881930Y14252820D01*
X37846120Y14172370D01*
X37834180Y14100000D01*
X38084880D01*
G01X38777400Y14582600D02*
Y14100000D01*
G01X38640130Y14582600D02*
X38914690D01*
G01X39096820Y14317170D02*
X39287830D01*
X39269910Y14373470D01*
X39240080Y14405640D01*
X39198290Y14421720D01*
X39156510Y14413680D01*
X39120690Y14389560D01*
X39096820Y14333250D01*
X39084870Y14284990D01*
Y14236740D01*
X39096820Y14188470D01*
X39126660Y14140210D01*
X39162470Y14108040D01*
X39204260Y14100000D01*
X39246040Y14116080D01*
X39287830Y14164330D01*
G01X39505760Y14421720D02*
X39684820Y14100000D01*
G01Y14421720D02*
X39505760Y14100000D01*
G01X40004220Y14582600D02*
Y14100000D01*
G01X39920670Y14421720D02*
X40087790D01*
G01X34266360Y15199580D02*
Y14750000D01*
G01X34138820Y15199580D02*
X34393920D01*
G01X34555630Y14750000D02*
Y15199580D01*
G01Y14982290D02*
X34583360Y15019750D01*
X34611090Y15042220D01*
X34655460Y15049710D01*
X34688730Y15042220D01*
X34727550Y15012250D01*
X34744190Y14967290D01*
Y14750000D01*
G01X35033440Y15049710D02*
Y14750000D01*
G01Y15169600D02*
X35022360Y15177090D01*
Y15192090D01*
X35033440Y15199580D01*
X35044540Y15192090D01*
Y15177090D01*
X35033440Y15169600D01*
G01X35333810Y14802440D02*
X35361530Y14772470D01*
X35400350Y14750000D01*
X35433630D01*
X35466910Y14764980D01*
X35489080Y14787460D01*
X35500170Y14817420D01*
X35494630Y14862400D01*
X35472450Y14884870D01*
X35372620Y14929820D01*
X35350440Y14982290D01*
X35361530Y15019750D01*
X35383720Y15042220D01*
X35416980Y15049710D01*
X35450260Y15042220D01*
X35483540Y15019750D01*
G01X36184060Y15049710D02*
Y14750000D01*
G01Y15169600D02*
X36172980Y15177090D01*
Y15192090D01*
X36184060Y15199580D01*
X36195160Y15192090D01*
Y15177090D01*
X36184060Y15169600D01*
G01X36484430Y14802440D02*
X36512150Y14772470D01*
X36550970Y14750000D01*
X36584250D01*
X36617530Y14764980D01*
X36639700Y14787460D01*
X36650790Y14817420D01*
X36645250Y14862400D01*
X36623070Y14884870D01*
X36523240Y14929820D01*
X36501060Y14982290D01*
X36512150Y15019750D01*
X36534340Y15042220D01*
X36567600Y15049710D01*
X36600880Y15042220D01*
X36634160Y15019750D01*
G01X37334680Y14750000D02*
Y15199580D01*
X37268140Y15109670D01*
G01Y14750000D02*
X37401230D01*
G01X37718220D02*
Y15199580D01*
X37651680Y15109670D01*
G01Y14750000D02*
X37784770D01*
G01X38485300Y15199580D02*
Y14750000D01*
G01X38357760Y15199580D02*
X38612860D01*
G01X38785670Y14952310D02*
X38963130D01*
X38946490Y15004760D01*
X38918770Y15034730D01*
X38879940Y15049710D01*
X38841120Y15042220D01*
X38807850Y15019750D01*
X38785670Y14967290D01*
X38774570Y14922330D01*
Y14877380D01*
X38785670Y14832420D01*
X38813390Y14787460D01*
X38846670Y14757490D01*
X38885490Y14750000D01*
X38924310Y14764980D01*
X38963130Y14809930D01*
G01X39169210Y15049710D02*
X39335570Y14750000D01*
G01Y15049710D02*
X39169210Y14750000D01*
G01X39635920Y15199580D02*
Y14750000D01*
G01X39558290Y15049710D02*
X39713570D01*
G01X34198590Y15751320D02*
Y15350000D01*
G01X34084670Y15751320D02*
X34312510D01*
G01X34462360Y15350000D02*
Y15751320D01*
G01Y15557350D02*
X34487130Y15590790D01*
X34511900Y15610850D01*
X34551530Y15617540D01*
X34581240Y15610850D01*
X34615910Y15584100D01*
X34630780Y15543970D01*
Y15350000D01*
G01X34894550Y15617540D02*
Y15350000D01*
G01Y15724560D02*
X34884640Y15731250D01*
Y15744630D01*
X34894550Y15751320D01*
X34904460Y15744630D01*
Y15731250D01*
X34894550Y15724560D01*
G01X35168240Y15396810D02*
X35193000Y15370060D01*
X35227670Y15350000D01*
X35257390D01*
X35287110Y15363370D01*
X35306920Y15383440D01*
X35316820Y15410190D01*
X35311870Y15450330D01*
X35292060Y15470390D01*
X35202900Y15510520D01*
X35183090Y15557350D01*
X35193000Y15590790D01*
X35212810Y15610850D01*
X35242530Y15617540D01*
X35272250Y15610850D01*
X35301970Y15590790D01*
G01X35938490Y15617540D02*
Y15350000D01*
G01Y15724560D02*
X35928580Y15731250D01*
Y15744630D01*
X35938490Y15751320D01*
X35948400Y15744630D01*
Y15731250D01*
X35938490Y15724560D01*
G01X36212180Y15396810D02*
X36236940Y15370060D01*
X36271610Y15350000D01*
X36301330D01*
X36331050Y15363370D01*
X36350860Y15383440D01*
X36360760Y15410190D01*
X36355810Y15450330D01*
X36336000Y15470390D01*
X36246840Y15510520D01*
X36227030Y15557350D01*
X36236940Y15590790D01*
X36256750Y15610850D01*
X36286470Y15617540D01*
X36316190Y15610850D01*
X36345910Y15590790D01*
G01X36982430Y15350000D02*
Y15751320D01*
X36922990Y15671060D01*
G01Y15350000D02*
X37041860D01*
G01X37330410Y15751320D02*
X37290780Y15737950D01*
X37261070Y15704500D01*
X37241250Y15664370D01*
X37226400Y15610850D01*
X37221440Y15550650D01*
X37226400Y15490460D01*
X37241250Y15436950D01*
X37261070Y15396810D01*
X37290780Y15363370D01*
X37330410Y15350000D01*
X37370030Y15363370D01*
X37399750Y15396810D01*
X37419570Y15436950D01*
X37434420Y15490460D01*
X37439380Y15550650D01*
X37434420Y15610850D01*
X37419570Y15664370D01*
X37399750Y15704500D01*
X37370030Y15737950D01*
X37330410Y15751320D01*
G01X38026370D02*
Y15350000D01*
G01X37912450Y15751320D02*
X38140290D01*
G01X38300060Y15530590D02*
X38458560D01*
X38443690Y15577420D01*
X38418930Y15604160D01*
X38384260Y15617540D01*
X38349590Y15610850D01*
X38319870Y15590790D01*
X38300060Y15543970D01*
X38290140Y15503830D01*
Y15463710D01*
X38300060Y15423570D01*
X38324820Y15383440D01*
X38354540Y15356690D01*
X38389210Y15350000D01*
X38423880Y15363370D01*
X38458560Y15403500D01*
G01X38648040Y15617540D02*
X38796620Y15350000D01*
G01Y15617540D02*
X38648040Y15350000D01*
G01X39070310Y15751320D02*
Y15350000D01*
G01X39000970Y15617540D02*
X39139650D01*
G01X34145250Y16556540D02*
Y16300000D01*
G01X34072230Y16556540D02*
X34218270D01*
G01X34319870Y16300000D02*
Y16556540D01*
G01Y16432550D02*
X34335750Y16453920D01*
X34351630Y16466750D01*
X34377030Y16471020D01*
X34396070Y16466750D01*
X34418300Y16449650D01*
X34427830Y16423990D01*
Y16300000D01*
G01X34602450Y16471020D02*
Y16300000D01*
G01Y16539430D02*
X34596100Y16543710D01*
Y16552270D01*
X34602450Y16556540D01*
X34608800Y16552270D01*
Y16543710D01*
X34602450Y16539430D01*
G01X34783430Y16329920D02*
X34799300Y16312820D01*
X34821520Y16300000D01*
X34840580D01*
X34859630Y16308550D01*
X34872320Y16321370D01*
X34878670Y16338470D01*
X34875500Y16364140D01*
X34862800Y16376960D01*
X34805650Y16402610D01*
X34792950Y16432550D01*
X34799300Y16453920D01*
X34812000Y16466750D01*
X34831050Y16471020D01*
X34850100Y16466750D01*
X34869150Y16453920D01*
G01X35288250Y16471020D02*
Y16300000D01*
G01Y16539430D02*
X35281900Y16543710D01*
Y16552270D01*
X35288250Y16556540D01*
X35294600Y16552270D01*
Y16543710D01*
X35288250Y16539430D01*
G01X35469230Y16329920D02*
X35485100Y16312820D01*
X35507320Y16300000D01*
X35526380D01*
X35545430Y16308550D01*
X35558120Y16321370D01*
X35564470Y16338470D01*
X35561300Y16364140D01*
X35548600Y16376960D01*
X35491450Y16402610D01*
X35478750Y16432550D01*
X35485100Y16453920D01*
X35497800Y16466750D01*
X35516850Y16471020D01*
X35535900Y16466750D01*
X35554950Y16453920D01*
G01X36202650Y16300000D02*
X36224870Y16304270D01*
X36250270Y16317100D01*
X36266150Y16338470D01*
X36272500Y16368410D01*
X36266150Y16398330D01*
X36247100Y16423990D01*
X36218520Y16436820D01*
X36186780D01*
X36167720Y16445370D01*
X36151850Y16466750D01*
X36145500Y16496680D01*
X36155030Y16526610D01*
X36177250Y16547990D01*
X36202650Y16556540D01*
X36228050Y16547990D01*
X36250270Y16526610D01*
X36259800Y16496680D01*
X36253450Y16466750D01*
X36237580Y16445370D01*
X36218520Y16436820D01*
X36186780D01*
X36158200Y16423990D01*
X36139150Y16398330D01*
X36132800Y16368410D01*
X36139150Y16338470D01*
X36155030Y16317100D01*
X36180430Y16304270D01*
X36202650Y16300000D01*
G01X36659850Y16556540D02*
Y16300000D01*
G01X36586830Y16556540D02*
X36732870D01*
G01X36840830Y16415440D02*
X36942430D01*
X36932900Y16445370D01*
X36917030Y16462470D01*
X36894800Y16471020D01*
X36872580Y16466750D01*
X36853520Y16453920D01*
X36840830Y16423990D01*
X36834470Y16398330D01*
Y16372690D01*
X36840830Y16347030D01*
X36856700Y16321370D01*
X36875750Y16304270D01*
X36897980Y16300000D01*
X36920200Y16308550D01*
X36942430Y16334200D01*
G01X37069430Y16471020D02*
X37164670Y16300000D01*
G01Y16471020D02*
X37069430Y16300000D01*
G01X37345650Y16556540D02*
Y16300000D01*
G01X37301200Y16471020D02*
X37390100D01*
G01X34168110Y16217500D02*
Y15900000D01*
G01X34077560Y16217500D02*
X34258660D01*
G01X34375500Y15900000D02*
Y16217500D01*
G01Y16064050D02*
X34395190Y16090500D01*
X34414870Y16106370D01*
X34446370Y16111660D01*
X34469990Y16106370D01*
X34497550Y16085210D01*
X34509360Y16053450D01*
Y15900000D01*
G01X34716750Y16111660D02*
Y15900000D01*
G01Y16196330D02*
X34708870Y16201620D01*
Y16212210D01*
X34716750Y16217500D01*
X34724630Y16212210D01*
Y16201620D01*
X34716750Y16196330D01*
G01X34932020Y15937030D02*
X34951700Y15915870D01*
X34979260Y15900000D01*
X35002880D01*
X35026510Y15910580D01*
X35042250Y15926450D01*
X35050120Y15947610D01*
X35046190Y15979380D01*
X35030440Y15995250D01*
X34959570Y16026990D01*
X34943830Y16064050D01*
X34951700Y16090500D01*
X34967450Y16106370D01*
X34991070Y16111660D01*
X35014690Y16106370D01*
X35038310Y16090500D01*
G01X35539710Y16111660D02*
Y15900000D01*
G01Y16196330D02*
X35531830Y16201620D01*
Y16212210D01*
X35539710Y16217500D01*
X35547590Y16212210D01*
Y16201620D01*
X35539710Y16196330D01*
G01X35754980Y15937030D02*
X35774660Y15915870D01*
X35802220Y15900000D01*
X35825840D01*
X35849470Y15910580D01*
X35865210Y15926450D01*
X35873080Y15947610D01*
X35869150Y15979380D01*
X35853400Y15995250D01*
X35782530Y16026990D01*
X35766790Y16064050D01*
X35774660Y16090500D01*
X35790410Y16106370D01*
X35814030Y16111660D01*
X35837650Y16106370D01*
X35861270Y16090500D01*
G01X36570060Y15937030D02*
X36597620Y15910580D01*
X36629110Y15900000D01*
X36660610Y15910580D01*
X36688170Y15942320D01*
X36707860Y15989960D01*
X36715730Y16037580D01*
Y16095790D01*
X36707860Y16143410D01*
X36688170Y16185750D01*
X36664550Y16206920D01*
X36636990Y16217500D01*
X36605490Y16206920D01*
X36581870Y16185750D01*
X36566120Y16154000D01*
X36558250Y16111660D01*
X36566120Y16074630D01*
X36585810Y16037580D01*
X36609430Y16016410D01*
X36636990Y16011120D01*
X36668480Y16021700D01*
X36692110Y16048160D01*
X36715730Y16095790D01*
G01X37185630Y16217500D02*
Y15900000D01*
G01X37095080Y16217500D02*
X37276180D01*
G01X37400900Y16042870D02*
X37526880D01*
X37515070Y16079920D01*
X37495390Y16101080D01*
X37467830Y16111660D01*
X37440270Y16106370D01*
X37416640Y16090500D01*
X37400900Y16053450D01*
X37393020Y16021700D01*
Y15989960D01*
X37400900Y15958210D01*
X37420580Y15926450D01*
X37444200Y15905290D01*
X37471760Y15900000D01*
X37499320Y15910580D01*
X37526880Y15942320D01*
G01X37675220Y16111660D02*
X37793320Y15900000D01*
G01Y16111660D02*
X37675220Y15900000D01*
G01X38008590Y16217500D02*
Y15900000D01*
G01X37953470Y16111660D02*
X38063710D01*
G01X34126200Y17205740D02*
Y17000000D01*
G01X34067780Y17205740D02*
X34184620D01*
G01X34260820Y17000000D02*
Y17205740D01*
G01Y17106300D02*
X34273520Y17123440D01*
X34286220Y17133730D01*
X34306540Y17137160D01*
X34321780Y17133730D01*
X34339560Y17120010D01*
X34347180Y17099440D01*
Y17000000D01*
G01X34481800Y17137160D02*
Y17000000D01*
G01Y17192020D02*
X34476720Y17195450D01*
Y17202310D01*
X34481800Y17205740D01*
X34486880Y17202310D01*
Y17195450D01*
X34481800Y17192020D01*
G01X34621500Y17024000D02*
X34634200Y17010280D01*
X34651980Y17000000D01*
X34667220D01*
X34682460Y17006860D01*
X34692620Y17017140D01*
X34697700Y17030850D01*
X34695160Y17051440D01*
X34685000Y17061720D01*
X34639280Y17082290D01*
X34629120Y17106300D01*
X34634200Y17123440D01*
X34644360Y17133730D01*
X34659600Y17137160D01*
X34674840Y17133730D01*
X34690080Y17123440D01*
G01X35015200Y17137160D02*
Y17000000D01*
G01Y17192020D02*
X35010120Y17195450D01*
Y17202310D01*
X35015200Y17205740D01*
X35020280Y17202310D01*
Y17195450D01*
X35015200Y17192020D01*
G01X35154900Y17024000D02*
X35167600Y17010280D01*
X35185380Y17000000D01*
X35200620D01*
X35215860Y17006860D01*
X35226020Y17017140D01*
X35231100Y17030850D01*
X35228560Y17051440D01*
X35218400Y17061720D01*
X35172680Y17082290D01*
X35162520Y17106300D01*
X35167600Y17123440D01*
X35177760Y17133730D01*
X35193000Y17137160D01*
X35208240Y17133730D01*
X35223480Y17123440D01*
G01X35678140Y17085720D02*
X35695920Y17109730D01*
X35711160Y17123440D01*
X35731480Y17130300D01*
X35749260Y17123440D01*
X35761960Y17109730D01*
X35772120Y17089150D01*
X35774660Y17065150D01*
X35772120Y17044570D01*
X35761960Y17024000D01*
X35746720Y17006860D01*
X35728940Y17000000D01*
X35708620Y17006860D01*
X35690840Y17027430D01*
X35680680Y17058290D01*
X35678140Y17092580D01*
X35683220Y17137160D01*
X35690840Y17161170D01*
X35703540Y17185160D01*
X35721320Y17202310D01*
X35739100Y17205740D01*
X35756880Y17198880D01*
X35769580Y17181740D01*
G01X36082000Y17205740D02*
Y17000000D01*
G01X36023580Y17205740D02*
X36140420D01*
G01X36221700Y17092580D02*
X36302980D01*
X36295360Y17116590D01*
X36282660Y17130300D01*
X36264880Y17137160D01*
X36247100Y17133730D01*
X36231860Y17123440D01*
X36221700Y17099440D01*
X36216620Y17078860D01*
Y17058290D01*
X36221700Y17037720D01*
X36234400Y17017140D01*
X36249640Y17003430D01*
X36267420Y17000000D01*
X36285200Y17006860D01*
X36302980Y17027430D01*
G01X36399500Y17137160D02*
X36475700Y17000000D01*
G01Y17137160D02*
X36399500Y17000000D01*
G01X36615400Y17205740D02*
Y17000000D01*
G01X36579840Y17137160D02*
X36650960D01*
G01X34137630Y16886220D02*
Y16650000D01*
G01X34070450Y16886220D02*
X34204810D01*
G01X34301330Y16650000D02*
Y16886220D01*
G01Y16772050D02*
X34315940Y16791730D01*
X34330540Y16803540D01*
X34353910Y16807480D01*
X34371440Y16803540D01*
X34391880Y16787790D01*
X34400650Y16764170D01*
Y16650000D01*
G01X34564350Y16807480D02*
Y16650000D01*
G01Y16870470D02*
X34558510Y16874400D01*
Y16882280D01*
X34564350Y16886220D01*
X34570190Y16882280D01*
Y16874400D01*
X34564350Y16870470D01*
G01X34733900Y16677550D02*
X34748500Y16661810D01*
X34768950Y16650000D01*
X34786470D01*
X34804000Y16657870D01*
X34815680Y16669680D01*
X34821520Y16685430D01*
X34818600Y16709060D01*
X34806920Y16720870D01*
X34754340Y16744480D01*
X34742660Y16772050D01*
X34748500Y16791730D01*
X34760190Y16803540D01*
X34777710Y16807480D01*
X34795230Y16803540D01*
X34812760Y16791730D01*
G01X35204430Y16807480D02*
Y16650000D01*
G01Y16870470D02*
X35198590Y16874400D01*
Y16882280D01*
X35204430Y16886220D01*
X35210270Y16882280D01*
Y16874400D01*
X35204430Y16870470D01*
G01X35373980Y16677550D02*
X35388580Y16661810D01*
X35409030Y16650000D01*
X35426550D01*
X35444080Y16657870D01*
X35455760Y16669680D01*
X35461600Y16685430D01*
X35458680Y16709060D01*
X35447000Y16720870D01*
X35394420Y16744480D01*
X35382740Y16772050D01*
X35388580Y16791730D01*
X35400270Y16803540D01*
X35417790Y16807480D01*
X35435310Y16803540D01*
X35452840Y16791730D01*
G01X36052030Y16650000D02*
X36057870Y16701180D01*
X36066630Y16744480D01*
X36078320Y16783860D01*
X36092920Y16827160D01*
X36116290Y16886220D01*
X35999450D01*
G01X36484590D02*
Y16650000D01*
G01X36417410Y16886220D02*
X36551770D01*
G01X36654140Y16756300D02*
X36747610D01*
X36738840Y16783860D01*
X36724240Y16799600D01*
X36703790Y16807480D01*
X36683350Y16803540D01*
X36665820Y16791730D01*
X36654140Y16764170D01*
X36648290Y16740550D01*
Y16716930D01*
X36654140Y16693300D01*
X36668740Y16669680D01*
X36686270Y16653940D01*
X36706710Y16650000D01*
X36727160Y16657870D01*
X36747610Y16681490D01*
G01X36867500Y16807480D02*
X36955120Y16650000D01*
G01Y16807480D02*
X36867500Y16650000D01*
G01X37124670Y16886220D02*
Y16650000D01*
G01X37083780Y16807480D02*
X37165560D01*
G01X34121120Y17543040D02*
Y17350000D01*
G01X34066600Y17543040D02*
X34175640D01*
G01X34248460Y17350000D02*
Y17543040D01*
G01Y17449740D02*
X34260310Y17465820D01*
X34272170Y17475470D01*
X34291130Y17478690D01*
X34305350Y17475470D01*
X34321950Y17462610D01*
X34329060Y17443300D01*
Y17350000D01*
G01X34456400Y17478690D02*
Y17350000D01*
G01Y17530170D02*
X34451660Y17533380D01*
Y17539820D01*
X34456400Y17543040D01*
X34461140Y17539820D01*
Y17533380D01*
X34456400Y17530170D01*
G01X34588480Y17372520D02*
X34600330Y17359650D01*
X34616930Y17350000D01*
X34631150D01*
X34645380Y17356430D01*
X34654860Y17366080D01*
X34659600Y17378950D01*
X34657230Y17398260D01*
X34647750Y17407910D01*
X34605070Y17427210D01*
X34595590Y17449740D01*
X34600330Y17465820D01*
X34609820Y17475470D01*
X34624040Y17478690D01*
X34638260Y17475470D01*
X34652490Y17465820D01*
G01X34959320Y17478690D02*
Y17350000D01*
G01Y17530170D02*
X34954580Y17533380D01*
Y17539820D01*
X34959320Y17543040D01*
X34964060Y17539820D01*
Y17533380D01*
X34959320Y17530170D01*
G01X35091400Y17372520D02*
X35103250Y17359650D01*
X35119850Y17350000D01*
X35134070D01*
X35148300Y17356430D01*
X35157780Y17366080D01*
X35162520Y17378950D01*
X35160150Y17398260D01*
X35150670Y17407910D01*
X35107990Y17427210D01*
X35098510Y17449740D01*
X35103250Y17465820D01*
X35112740Y17475470D01*
X35126960Y17478690D01*
X35141180Y17475470D01*
X35155410Y17465820D01*
G01X35577730Y17378950D02*
X35591950Y17362870D01*
X35608540Y17353220D01*
X35629880Y17350000D01*
X35651220Y17356430D01*
X35667810Y17369300D01*
X35679660Y17391820D01*
X35682030Y17417560D01*
X35677290Y17443300D01*
X35665440Y17459390D01*
X35648840Y17472260D01*
X35632250Y17475470D01*
X35615660Y17472260D01*
X35594320Y17459390D01*
X35601430Y17543040D01*
X35665440D01*
G01X35965160D02*
Y17350000D01*
G01X35910640Y17543040D02*
X36019680D01*
G01X36097240Y17436870D02*
X36173100D01*
X36165990Y17459390D01*
X36154140Y17472260D01*
X36137540Y17478690D01*
X36120950Y17475470D01*
X36106720Y17465820D01*
X36097240Y17443300D01*
X36092500Y17423990D01*
Y17404690D01*
X36097240Y17385390D01*
X36109090Y17366080D01*
X36123320Y17353220D01*
X36139910Y17350000D01*
X36156510Y17356430D01*
X36173100Y17375730D01*
G01X36264880Y17478690D02*
X36336000Y17350000D01*
G01Y17478690D02*
X36264880Y17350000D01*
G01X36468080Y17543040D02*
Y17350000D01*
G01X36434890Y17478690D02*
X36501270D01*
G54D12*
G01X-10000000Y-10000000D02*
X32000000D01*
G01X-9500000Y-9500000D02*
X31500000D01*
G01X-9500000D02*
Y19200000D01*
G01X-10000000Y-10000000D02*
Y19700000D01*
G01Y-250000D02*
X-9500000D01*
G01X-10000000Y9700000D02*
X-9500000D01*
G01X31500000Y19200000D02*
X-9500000D01*
G01X32000000Y19700000D02*
X-10000000D01*
G01X0Y-9500000D02*
Y-10000000D01*
G01Y0D02*
X3000000D01*
Y3000000D01*
X0D01*
Y0D01*
G01X62500Y720000D02*
G02X12500Y770000I0J50000D01*
G01Y2230000D01*
G02X62500Y2280000I50000J0D01*
G01X502500D01*
G01Y720000D02*
X62500D01*
G01X81500Y2326900D02*
Y2403100D01*
X111980D01*
X122140Y2399290D01*
X129760Y2390400D01*
X132300Y2380240D01*
X129760Y2370080D01*
X123410Y2362460D01*
X111980Y2358650D01*
X81500D01*
G01X158970Y2390400D02*
X166590Y2398020D01*
X175480Y2401830D01*
X185640Y2403100D01*
X198340Y2400560D01*
X207230Y2394210D01*
X209770Y2386590D01*
X208500Y2378970D01*
X203420Y2372620D01*
X178020Y2359920D01*
X166590Y2351030D01*
X158970Y2338330D01*
X156430Y2326900D01*
X209770D01*
G01X0Y19700000D02*
Y19200000D01*
G01X1198090Y1321520D02*
X1053310D01*
Y1128480D01*
X1198090D01*
G01X1050770Y1346920D02*
Y1423120D01*
X1082520D01*
X1092680Y1419310D01*
X1099030Y1414230D01*
X1101570Y1404070D01*
X1099030Y1393910D01*
X1091410Y1387560D01*
X1082520Y1383750D01*
X1050770D01*
G01X1082520D02*
X1101570Y1346920D01*
G01X1152370D02*
Y1423120D01*
X1137130Y1407880D01*
G01Y1346920D02*
X1167610D01*
G01X1281910Y1128480D02*
X1426690D01*
Y1321520D01*
X1281910D01*
G01X2497500Y670000D02*
X2937500D01*
G03X2987500Y720000I0J50000D01*
G01Y2280000D01*
G03X2937500Y2330000I-50000J0D01*
G01X2511500Y2376900D02*
Y2453100D01*
X2541980D01*
X2552140Y2449290D01*
X2559760Y2440400D01*
X2562300Y2430240D01*
X2559760Y2420080D01*
X2553410Y2412460D01*
X2541980Y2408650D01*
X2511500D01*
G01X2613100Y2376900D02*
Y2453100D01*
X2597860Y2437860D01*
G01Y2376900D02*
X2628340D01*
G01X2497500Y2330000D02*
X2937500D01*
G01X10000000Y-9500000D02*
Y-10000000D01*
G01Y19700000D02*
Y19200000D01*
G01X19500000Y18850000D02*
Y18500000D01*
G01D02*
Y18150000D01*
G01Y18500000D02*
X31500000D01*
G01X19500000Y18150000D02*
X31500000D01*
G01X19500000Y19200000D02*
Y18850000D01*
G01D02*
X31500000D01*
G01X20000000Y-9500000D02*
Y-10000000D01*
G01Y19700000D02*
Y19200000D01*
G01X21000000Y18850000D02*
Y18500000D01*
G01D02*
Y18150000D01*
G01X22500000Y18850000D02*
Y18500000D01*
G01D02*
Y18150000D01*
G01X23500000Y-9500000D02*
Y-5500000D01*
G01Y-8500000D02*
X31500000D01*
G01X23500000Y-7500000D02*
X31500000D01*
G01X23500000Y-6500000D02*
X31500000D01*
G01X23500000Y-5500000D02*
X31500000D01*
G01X24000000Y18850000D02*
Y18500000D01*
G01D02*
Y18150000D01*
G01X26500000Y-5500000D02*
Y-6500000D01*
G01X27500000D02*
Y-9500000D01*
G01X29000020Y-6500000D02*
Y-8500000D01*
G01X30000000Y-10000000D02*
Y-9500000D01*
G01Y19200000D02*
Y19700000D01*
G01X31500000Y19200000D02*
Y-9500000D01*
G01Y-250000D02*
X32000000D01*
G01X31500000Y9700000D02*
X32000000D01*
G01Y19700000D02*
Y-10000000D01*
G54D13*
G01X33749940Y10599980D02*
Y18499960D01*
G01X44099910Y10599980D02*
X33749940D01*
G01Y18499960D02*
Y18999960D01*
G01Y18499960D02*
X44099910D01*
G01X33749940Y18999960D02*
X36949930D01*
G01D02*
Y18499960D01*
G01X44099910D02*
Y10599980D01*
G54D14*
G01X20116090Y18600000D02*
Y18729540D01*
X20156300D01*
X20169170Y18723060D01*
X20177220Y18714430D01*
X20180430Y18697150D01*
X20177220Y18679880D01*
X20167560Y18669090D01*
X20156300Y18662610D01*
X20116090D01*
G01X20156300D02*
X20180430Y18600000D01*
G01X20292190D02*
X20227850D01*
Y18729540D01*
X20292190D01*
G01X20266450Y18666930D02*
X20227850D01*
G01X20331560Y18729540D02*
X20371780Y18600000D01*
X20412000Y18729540D01*
G01X21562870Y18600000D02*
Y18729540D01*
X21595040D01*
X21607910Y18723060D01*
X21617560Y18714430D01*
X21625610Y18701480D01*
X21632040Y18686360D01*
X21633650Y18664770D01*
X21632040Y18643180D01*
X21625610Y18628060D01*
X21617560Y18615110D01*
X21607910Y18606480D01*
X21595040Y18600000D01*
X21562870D01*
G01X21669800D02*
X21710020Y18729540D01*
X21750240Y18600000D01*
G01X21735760Y18645340D02*
X21684280D01*
G01X21821780Y18729540D02*
Y18600000D01*
G01X21784780Y18729540D02*
X21858780D01*
G01X21965710Y18600000D02*
X21901370D01*
Y18729540D01*
X21965710D01*
G01X21939970Y18666930D02*
X21901370D01*
G01X22862870Y18600000D02*
Y18729540D01*
X22895040D01*
X22907910Y18723060D01*
X22917560Y18714430D01*
X22925610Y18701480D01*
X22932040Y18686360D01*
X22933650Y18664770D01*
X22932040Y18643180D01*
X22925610Y18628060D01*
X22917560Y18615110D01*
X22907910Y18606480D01*
X22895040Y18600000D01*
X22862870D01*
G01X23042190D02*
X22977850D01*
Y18729540D01*
X23042190D01*
G01X23016450Y18666930D02*
X22977850D01*
G01X23088000Y18617270D02*
X23100870Y18606480D01*
X23115350Y18600000D01*
X23128210D01*
X23141080Y18606480D01*
X23150740Y18617270D01*
X23155560Y18632390D01*
X23152350Y18647500D01*
X23144300Y18660450D01*
X23129820Y18669090D01*
X23110520Y18673410D01*
X23099260Y18682040D01*
X23094430Y18697150D01*
X23097650Y18712270D01*
X23105690Y18723060D01*
X23116950Y18729540D01*
X23128210D01*
X23139480Y18725220D01*
X23149130Y18714430D01*
G01X23214240Y18729540D02*
X23252840D01*
G01X23233540D02*
Y18600000D01*
G01X23214240D02*
X23252840D01*
G01X23354950Y18664770D02*
X23387130D01*
Y18625910D01*
X23377470Y18612950D01*
X23366210Y18604320D01*
X23350130Y18600000D01*
X23334040Y18604320D01*
X23322780Y18612950D01*
X23313130Y18625910D01*
X23306690Y18641020D01*
X23303470Y18658290D01*
Y18673410D01*
X23306690Y18686360D01*
X23313130Y18701480D01*
X23322780Y18714430D01*
X23332430Y18723060D01*
X23345300Y18729540D01*
X23356560D01*
X23369430Y18725220D01*
X23379080Y18716580D01*
G01X23420060Y18600000D02*
Y18729540D01*
X23494060Y18600000D01*
Y18729540D01*
G01X23600990Y18600000D02*
X23536650D01*
Y18729540D01*
X23600990D01*
G01X23575250Y18666930D02*
X23536650D01*
G01X23648410Y18600000D02*
Y18729540D01*
X23688620D01*
X23701490Y18723060D01*
X23709540Y18714430D01*
X23712750Y18697150D01*
X23709540Y18679880D01*
X23699880Y18669090D01*
X23688620Y18662610D01*
X23648410D01*
G01X23688620D02*
X23712750Y18600000D01*
G01X23733040Y-8800000D02*
X23773260Y-8670460D01*
X23813480Y-8800000D01*
G01X23799000Y-8754660D02*
X23747520D01*
G01X23852850Y-8800000D02*
Y-8670460D01*
X23891450D01*
X23904320Y-8676940D01*
X23913980Y-8692050D01*
X23917190Y-8709320D01*
X23913980Y-8726590D01*
X23905930Y-8739550D01*
X23891450Y-8746030D01*
X23852850D01*
G01X23964610Y-8800000D02*
Y-8670460D01*
X24003210D01*
X24016080Y-8676940D01*
X24025740Y-8692050D01*
X24028950Y-8709320D01*
X24025740Y-8726590D01*
X24017690Y-8739550D01*
X24003210Y-8746030D01*
X23964610D01*
G01X24076370Y-8800000D02*
Y-8670460D01*
X24116580D01*
X24129450Y-8676940D01*
X24137500Y-8685570D01*
X24140710Y-8702850D01*
X24137500Y-8720120D01*
X24127840Y-8730910D01*
X24116580Y-8737390D01*
X24076370D01*
G01X24116580D02*
X24140710Y-8800000D01*
G01X24220300D02*
X24207430Y-8797840D01*
X24196170Y-8789210D01*
X24186520Y-8776250D01*
X24180080Y-8761140D01*
X24176860Y-8743870D01*
Y-8726590D01*
X24180080Y-8709320D01*
X24186520Y-8694210D01*
X24196170Y-8681260D01*
X24207430Y-8672620D01*
X24220300Y-8670460D01*
X24233170Y-8672620D01*
X24244430Y-8681260D01*
X24254080Y-8694210D01*
X24260520Y-8709320D01*
X24263740Y-8726590D01*
Y-8743870D01*
X24260520Y-8761140D01*
X24254080Y-8776250D01*
X24244430Y-8789210D01*
X24233170Y-8797840D01*
X24220300Y-8800000D01*
G01X24291840Y-8670460D02*
X24332060Y-8800000D01*
X24372280Y-8670460D01*
G01X24403600Y-8800000D02*
X24443820Y-8670460D01*
X24484040Y-8800000D01*
G01X24469560Y-8754660D02*
X24418080D01*
G01X24523410Y-8670460D02*
Y-8800000D01*
X24587750D01*
G01X24791970Y-8730910D02*
X24798400Y-8724440D01*
X24803230Y-8713640D01*
X24806450Y-8698520D01*
X24803230Y-8685570D01*
X24796800Y-8676940D01*
X24785530Y-8670460D01*
X24742100D01*
Y-8800000D01*
X24795190D01*
X24806450Y-8791370D01*
X24812880Y-8778410D01*
X24816100Y-8763300D01*
X24812880Y-8748190D01*
X24803230Y-8735230D01*
X24791970Y-8730910D01*
X24742100D01*
G01X24890860Y-8800000D02*
Y-8741710D01*
X24858690Y-8670460D01*
G01X24923030D02*
X24890860Y-8741710D01*
G01X25114380Y-8804320D02*
X25111160Y-8802160D01*
Y-8797840D01*
X25114380Y-8795680D01*
X25117600Y-8797840D01*
Y-8802160D01*
X25114380Y-8804320D01*
G01Y-8746030D02*
X25111160Y-8743870D01*
Y-8739550D01*
X25114380Y-8737390D01*
X25117600Y-8739550D01*
Y-8743870D01*
X25114380Y-8746030D01*
G01X23808650Y-7681260D02*
X23799000Y-7674780D01*
X23787740Y-7670460D01*
X23774870D01*
X23760390Y-7676940D01*
X23749130Y-7687730D01*
X23741090Y-7700690D01*
X23734650Y-7722280D01*
X23733040Y-7741710D01*
X23736260Y-7761140D01*
X23741090Y-7774090D01*
X23750740Y-7787050D01*
X23762000Y-7795680D01*
X23773260Y-7800000D01*
X23784520D01*
X23795780Y-7795680D01*
X23805430Y-7789210D01*
X23813480Y-7780570D01*
G01X23851240Y-7800000D02*
Y-7670460D01*
G01X23918800D02*
Y-7800000D01*
G01Y-7735230D02*
X23851240D01*
G01X24028950Y-7800000D02*
X23964610D01*
Y-7670460D01*
X24028950D01*
G01X24003210Y-7733070D02*
X23964610D01*
G01X24143930Y-7681260D02*
X24134280Y-7674780D01*
X24123020Y-7670460D01*
X24110150D01*
X24095670Y-7676940D01*
X24084410Y-7687730D01*
X24076370Y-7700690D01*
X24069930Y-7722280D01*
X24068320Y-7741710D01*
X24071540Y-7761140D01*
X24076370Y-7774090D01*
X24086020Y-7787050D01*
X24097280Y-7795680D01*
X24108540Y-7800000D01*
X24119800D01*
X24131060Y-7795680D01*
X24140710Y-7789210D01*
X24148760Y-7780570D01*
G01X24184910Y-7800000D02*
Y-7670460D01*
G01X24246040D02*
X24184910Y-7750350D01*
G01X24255690Y-7800000D02*
X24212260Y-7713640D01*
G01X24364230Y-7800000D02*
X24299890D01*
Y-7670460D01*
X24364230D01*
G01X24338490Y-7733070D02*
X24299890D01*
G01X24408430Y-7800000D02*
Y-7670460D01*
X24440600D01*
X24453470Y-7676940D01*
X24463120Y-7685570D01*
X24471170Y-7698520D01*
X24477600Y-7713640D01*
X24479210Y-7735230D01*
X24477600Y-7756820D01*
X24471170Y-7771940D01*
X24463120Y-7784890D01*
X24453470Y-7793520D01*
X24440600Y-7800000D01*
X24408430D01*
G01X24680210Y-7730910D02*
X24686640Y-7724440D01*
X24691470Y-7713640D01*
X24694690Y-7698520D01*
X24691470Y-7685570D01*
X24685040Y-7676940D01*
X24673770Y-7670460D01*
X24630340D01*
Y-7800000D01*
X24683430D01*
X24694690Y-7791370D01*
X24701120Y-7778410D01*
X24704340Y-7763300D01*
X24701120Y-7748190D01*
X24691470Y-7735230D01*
X24680210Y-7730910D01*
X24630340D01*
G01X24779100Y-7800000D02*
Y-7741710D01*
X24746930Y-7670460D01*
G01X24811270D02*
X24779100Y-7741710D01*
G01X25002620Y-7804320D02*
X24999400Y-7802160D01*
Y-7797840D01*
X25002620Y-7795680D01*
X25005840Y-7797840D01*
Y-7802160D01*
X25002620Y-7804320D01*
G01Y-7746030D02*
X24999400Y-7743870D01*
Y-7739550D01*
X25002620Y-7737390D01*
X25005840Y-7739550D01*
Y-7743870D01*
X25002620Y-7746030D01*
G01X23737870Y-6800000D02*
Y-6670460D01*
X23770040D01*
X23782910Y-6676940D01*
X23792560Y-6685570D01*
X23800610Y-6698520D01*
X23807040Y-6713640D01*
X23808650Y-6735230D01*
X23807040Y-6756820D01*
X23800610Y-6771940D01*
X23792560Y-6784890D01*
X23782910Y-6793520D01*
X23770040Y-6800000D01*
X23737870D01*
G01X23852850D02*
Y-6670460D01*
X23893060D01*
X23905930Y-6676940D01*
X23913980Y-6685570D01*
X23917190Y-6702850D01*
X23913980Y-6720120D01*
X23904320Y-6730910D01*
X23893060Y-6737390D01*
X23852850D01*
G01X23893060D02*
X23917190Y-6800000D01*
G01X23996780D02*
X23983910Y-6797840D01*
X23972650Y-6789210D01*
X23963000Y-6776250D01*
X23956560Y-6761140D01*
X23953340Y-6743870D01*
Y-6726590D01*
X23956560Y-6709320D01*
X23963000Y-6694210D01*
X23972650Y-6681260D01*
X23983910Y-6672620D01*
X23996780Y-6670460D01*
X24009650Y-6672620D01*
X24020910Y-6681260D01*
X24030560Y-6694210D01*
X24037000Y-6709320D01*
X24040220Y-6726590D01*
Y-6743870D01*
X24037000Y-6761140D01*
X24030560Y-6776250D01*
X24020910Y-6789210D01*
X24009650Y-6797840D01*
X23996780Y-6800000D01*
G01X24060280Y-6670460D02*
X24082800Y-6800000D01*
X24108540Y-6670460D01*
X24134280Y-6800000D01*
X24156800Y-6670460D01*
G01X24183300Y-6800000D02*
Y-6670460D01*
X24257300Y-6800000D01*
Y-6670460D01*
G01X24456690Y-6730910D02*
X24463120Y-6724440D01*
X24467950Y-6713640D01*
X24471170Y-6698520D01*
X24467950Y-6685570D01*
X24461520Y-6676940D01*
X24450250Y-6670460D01*
X24406820D01*
Y-6800000D01*
X24459910D01*
X24471170Y-6791370D01*
X24477600Y-6778410D01*
X24480820Y-6763300D01*
X24477600Y-6748190D01*
X24467950Y-6735230D01*
X24456690Y-6730910D01*
X24406820D01*
G01X24555580Y-6800000D02*
Y-6741710D01*
X24523410Y-6670460D01*
G01X24587750D02*
X24555580Y-6741710D01*
G01X24779100Y-6804320D02*
X24775880Y-6802160D01*
Y-6797840D01*
X24779100Y-6795680D01*
X24782320Y-6797840D01*
Y-6802160D01*
X24779100Y-6804320D01*
G01Y-6746030D02*
X24775880Y-6743870D01*
Y-6739550D01*
X24779100Y-6737390D01*
X24782320Y-6739550D01*
Y-6743870D01*
X24779100Y-6746030D01*
G01X24416090Y18950000D02*
Y19079540D01*
X24456300D01*
X24469170Y19073060D01*
X24477220Y19064430D01*
X24480430Y19047150D01*
X24477220Y19029880D01*
X24467560Y19019090D01*
X24456300Y19012610D01*
X24416090D01*
G01X24456300D02*
X24480430Y18950000D01*
G01X24592190D02*
X24527850D01*
Y19079540D01*
X24592190D01*
G01X24566450Y19016930D02*
X24527850D01*
G01X24631560Y19079540D02*
X24671780Y18950000D01*
X24712000Y19079540D01*
G01X24764240D02*
X24802840D01*
G01X24783540D02*
Y18950000D01*
G01X24764240D02*
X24802840D01*
G01X24861520Y18967270D02*
X24874390Y18956480D01*
X24888870Y18950000D01*
X24901730D01*
X24914600Y18956480D01*
X24924260Y18967270D01*
X24929080Y18982390D01*
X24925870Y18997500D01*
X24917820Y19010450D01*
X24903340Y19019090D01*
X24884040Y19023410D01*
X24872780Y19032040D01*
X24867950Y19047150D01*
X24871170Y19062270D01*
X24879210Y19073060D01*
X24890470Y19079540D01*
X24901730D01*
X24913000Y19075220D01*
X24922650Y19064430D01*
G01X24987760Y19079540D02*
X25026360D01*
G01X25007060D02*
Y18950000D01*
G01X24987760D02*
X25026360D01*
G01X25118820D02*
X25105950Y18952160D01*
X25094690Y18960790D01*
X25085040Y18973750D01*
X25078600Y18988860D01*
X25075380Y19006130D01*
Y19023410D01*
X25078600Y19040680D01*
X25085040Y19055790D01*
X25094690Y19068740D01*
X25105950Y19077380D01*
X25118820Y19079540D01*
X25131690Y19077380D01*
X25142950Y19068740D01*
X25152600Y19055790D01*
X25159040Y19040680D01*
X25162260Y19023410D01*
Y19006130D01*
X25159040Y18988860D01*
X25152600Y18973750D01*
X25142950Y18960790D01*
X25131690Y18952160D01*
X25118820Y18950000D01*
G01X25193580D02*
Y19079540D01*
X25267580Y18950000D01*
Y19079540D01*
G01X25308560Y18967270D02*
X25321430Y18956480D01*
X25335910Y18950000D01*
X25348770D01*
X25361640Y18956480D01*
X25371300Y18967270D01*
X25376120Y18982390D01*
X25372910Y18997500D01*
X25364860Y19010450D01*
X25350380Y19019090D01*
X25331080Y19023410D01*
X25319820Y19032040D01*
X25314990Y19047150D01*
X25318210Y19062270D01*
X25326250Y19073060D01*
X25337510Y19079540D01*
X25348770D01*
X25360040Y19075220D01*
X25369690Y19064430D01*
G01X27112870Y18600000D02*
Y18729540D01*
X27145040D01*
X27157910Y18723060D01*
X27167560Y18714430D01*
X27175610Y18701480D01*
X27182040Y18686360D01*
X27183650Y18664770D01*
X27182040Y18643180D01*
X27175610Y18628060D01*
X27167560Y18615110D01*
X27157910Y18606480D01*
X27145040Y18600000D01*
X27112870D01*
G01X27292190D02*
X27227850D01*
Y18729540D01*
X27292190D01*
G01X27266450Y18666930D02*
X27227850D01*
G01X27338000Y18617270D02*
X27350870Y18606480D01*
X27365350Y18600000D01*
X27378210D01*
X27391080Y18606480D01*
X27400740Y18617270D01*
X27405560Y18632390D01*
X27402350Y18647500D01*
X27394300Y18660450D01*
X27379820Y18669090D01*
X27360520Y18673410D01*
X27349260Y18682040D01*
X27344430Y18697150D01*
X27347650Y18712270D01*
X27355690Y18723060D01*
X27366950Y18729540D01*
X27378210D01*
X27389480Y18725220D01*
X27399130Y18714430D01*
G01X27518930Y18718740D02*
X27509280Y18725220D01*
X27498020Y18729540D01*
X27485150D01*
X27470670Y18723060D01*
X27459410Y18712270D01*
X27451370Y18699310D01*
X27444930Y18677720D01*
X27443320Y18658290D01*
X27446540Y18638860D01*
X27451370Y18625910D01*
X27461020Y18612950D01*
X27472280Y18604320D01*
X27483540Y18600000D01*
X27494800D01*
X27506060Y18604320D01*
X27515710Y18610790D01*
X27523760Y18619430D01*
G01X27563130Y18600000D02*
Y18729540D01*
X27603340D01*
X27616210Y18723060D01*
X27624260Y18714430D01*
X27627470Y18697150D01*
X27624260Y18679880D01*
X27614600Y18669090D01*
X27603340Y18662610D01*
X27563130D01*
G01X27603340D02*
X27627470Y18600000D01*
G01X27687760Y18729540D02*
X27726360D01*
G01X27707060D02*
Y18600000D01*
G01X27687760D02*
X27726360D01*
G01X27786650D02*
Y18729540D01*
X27825250D01*
X27838120Y18723060D01*
X27847780Y18707950D01*
X27850990Y18690680D01*
X27847780Y18673410D01*
X27839730Y18660450D01*
X27825250Y18653970D01*
X27786650D01*
G01X27930580Y18729540D02*
Y18600000D01*
G01X27893580Y18729540D02*
X27967580D01*
G01X28023040D02*
X28061640D01*
G01X28042340D02*
Y18600000D01*
G01X28023040D02*
X28061640D01*
G01X28154100D02*
X28141230Y18602160D01*
X28129970Y18610790D01*
X28120320Y18623750D01*
X28113880Y18638860D01*
X28110660Y18656130D01*
Y18673410D01*
X28113880Y18690680D01*
X28120320Y18705790D01*
X28129970Y18718740D01*
X28141230Y18727380D01*
X28154100Y18729540D01*
X28166970Y18727380D01*
X28178230Y18718740D01*
X28187880Y18705790D01*
X28194320Y18690680D01*
X28197540Y18673410D01*
Y18656130D01*
X28194320Y18638860D01*
X28187880Y18623750D01*
X28178230Y18610790D01*
X28166970Y18602160D01*
X28154100Y18600000D01*
G01X28228860D02*
Y18729540D01*
X28302860Y18600000D01*
Y18729540D01*
G01X27739480Y-7782730D02*
X27752350Y-7793520D01*
X27766830Y-7800000D01*
X27779690D01*
X27792560Y-7793520D01*
X27802220Y-7782730D01*
X27807040Y-7767610D01*
X27803830Y-7752500D01*
X27795780Y-7739550D01*
X27781300Y-7730910D01*
X27762000Y-7726590D01*
X27750740Y-7717960D01*
X27745910Y-7702850D01*
X27749130Y-7687730D01*
X27757170Y-7676940D01*
X27768430Y-7670460D01*
X27779690D01*
X27790960Y-7674780D01*
X27800610Y-7685570D01*
G01X27920410Y-7681260D02*
X27910760Y-7674780D01*
X27899500Y-7670460D01*
X27886630D01*
X27872150Y-7676940D01*
X27860890Y-7687730D01*
X27852850Y-7700690D01*
X27846410Y-7722280D01*
X27844800Y-7741710D01*
X27848020Y-7761140D01*
X27852850Y-7774090D01*
X27862500Y-7787050D01*
X27873760Y-7795680D01*
X27885020Y-7800000D01*
X27896280D01*
X27907540Y-7795680D01*
X27917190Y-7789210D01*
X27925240Y-7780570D01*
G01X27956560Y-7800000D02*
X27996780Y-7670460D01*
X28037000Y-7800000D01*
G01X28022520Y-7754660D02*
X27971040D01*
G01X28076370Y-7670460D02*
Y-7800000D01*
X28140710D01*
G01X28252470D02*
X28188130D01*
Y-7670460D01*
X28252470D01*
G01X28226730Y-7733070D02*
X28188130D01*
G01X27739480Y-6782730D02*
X27752350Y-6793520D01*
X27766830Y-6800000D01*
X27779690D01*
X27792560Y-6793520D01*
X27802220Y-6782730D01*
X27807040Y-6767610D01*
X27803830Y-6752500D01*
X27795780Y-6739550D01*
X27781300Y-6730910D01*
X27762000Y-6726590D01*
X27750740Y-6717960D01*
X27745910Y-6702850D01*
X27749130Y-6687730D01*
X27757170Y-6676940D01*
X27768430Y-6670460D01*
X27779690D01*
X27790960Y-6674780D01*
X27800610Y-6685570D01*
G01X27865720Y-6670460D02*
X27904320D01*
G01X27885020D02*
Y-6800000D01*
G01X27865720D02*
X27904320D01*
G01X27966210Y-6670460D02*
X28027350D01*
X27966210Y-6800000D01*
X28027350D01*
G01X28140710D02*
X28076370D01*
Y-6670460D01*
X28140710D01*
G01X28114970Y-6733070D02*
X28076370D01*
G01X29241090Y-6800000D02*
Y-6670460D01*
X29281300D01*
X29294170Y-6676940D01*
X29302220Y-6685570D01*
X29305430Y-6702850D01*
X29302220Y-6720120D01*
X29292560Y-6730910D01*
X29281300Y-6737390D01*
X29241090D01*
G01X29281300D02*
X29305430Y-6800000D01*
G01X29417190D02*
X29352850D01*
Y-6670460D01*
X29417190D01*
G01X29391450Y-6733070D02*
X29352850D01*
G01X29456560Y-6670460D02*
X29496780Y-6800000D01*
X29537000Y-6670460D01*
G01X29608540Y-6804320D02*
X29605320Y-6802160D01*
Y-6797840D01*
X29608540Y-6795680D01*
X29611760Y-6797840D01*
Y-6802160D01*
X29608540Y-6804320D01*
G01X33909690Y18810020D02*
Y18650000D01*
G01X33863930Y18810020D02*
X33955450D01*
G01X34024630Y18722010D02*
X34088300D01*
X34082320Y18740680D01*
X34072380Y18751340D01*
X34058450Y18756680D01*
X34044520Y18754010D01*
X34032580Y18746010D01*
X34024630Y18727340D01*
X34020640Y18711340D01*
Y18695340D01*
X34024630Y18679340D01*
X34034570Y18663330D01*
X34046510Y18652670D01*
X34060440Y18650000D01*
X34074370Y18655330D01*
X34088300Y18671330D01*
G01X34169410Y18756680D02*
X34229090Y18650000D01*
G01Y18756680D02*
X34169410Y18650000D01*
G01X34344030Y18810020D02*
Y18650000D01*
G01X34316180Y18756680D02*
X34371880D01*
G01X34633590Y18810020D02*
Y18650000D01*
G01X34605740Y18756680D02*
X34661440D01*
G01X34814190Y18650000D02*
Y18756680D01*
G01Y18738010D02*
X34806220Y18748680D01*
X34794290Y18754010D01*
X34780360Y18756680D01*
X34766430Y18751340D01*
X34754490Y18740680D01*
X34746530Y18724670D01*
X34742550Y18703340D01*
X34746530Y18682000D01*
X34754490Y18666000D01*
X34766430Y18655330D01*
X34780360Y18650000D01*
X34794290Y18652670D01*
X34806220Y18660670D01*
X34814190Y18671330D01*
G01X34887330Y18650000D02*
Y18810020D01*
G01Y18730010D02*
X34897280Y18746010D01*
X34909220Y18754010D01*
X34921160Y18756680D01*
X34939070Y18751340D01*
X34951000Y18740680D01*
X34958970Y18722010D01*
Y18700670D01*
X34954980Y18679340D01*
X34947030Y18663330D01*
X34933100Y18652670D01*
X34921160Y18650000D01*
X34909220Y18652670D01*
X34897280Y18660670D01*
X34887330Y18674000D01*
G01X35067930Y18650000D02*
Y18810020D01*
G01X35182870Y18722010D02*
X35246540D01*
X35240560Y18740680D01*
X35230620Y18751340D01*
X35216690Y18756680D01*
X35202760Y18754010D01*
X35190820Y18746010D01*
X35182870Y18727340D01*
X35178880Y18711340D01*
Y18695340D01*
X35182870Y18679340D01*
X35192810Y18663330D01*
X35204750Y18652670D01*
X35218680Y18650000D01*
X35232610Y18655330D01*
X35246540Y18671330D01*
G01X34098260Y18029540D02*
Y17900000D01*
G01X34061260Y18029540D02*
X34135260D01*
G01X34182670Y17900000D02*
Y18029540D01*
G01Y17966930D02*
X34190720Y17977720D01*
X34198760Y17984200D01*
X34211630Y17986360D01*
X34221280Y17984200D01*
X34232540Y17975560D01*
X34237370Y17962610D01*
Y17900000D01*
G01X34321780Y17986360D02*
Y17900000D01*
G01Y18020900D02*
X34318560Y18023060D01*
Y18027380D01*
X34321780Y18029540D01*
X34325000Y18027380D01*
Y18023060D01*
X34321780Y18020900D01*
G01X34409410Y17915110D02*
X34417450Y17906480D01*
X34428710Y17900000D01*
X34438370D01*
X34448020Y17904320D01*
X34454450Y17910790D01*
X34457670Y17919430D01*
X34456060Y17932390D01*
X34449630Y17938860D01*
X34420670Y17951810D01*
X34414240Y17966930D01*
X34417450Y17977720D01*
X34423890Y17984200D01*
X34433540Y17986360D01*
X34443190Y17984200D01*
X34452840Y17977720D01*
G01X34657060Y17986360D02*
Y17900000D01*
G01Y18020900D02*
X34653840Y18023060D01*
Y18027380D01*
X34657060Y18029540D01*
X34660280Y18027380D01*
Y18023060D01*
X34657060Y18020900D01*
G01X34744690Y17915110D02*
X34752730Y17906480D01*
X34763990Y17900000D01*
X34773650D01*
X34783300Y17904320D01*
X34789730Y17910790D01*
X34792950Y17919430D01*
X34791340Y17932390D01*
X34784910Y17938860D01*
X34755950Y17951810D01*
X34749520Y17966930D01*
X34752730Y17977720D01*
X34759170Y17984200D01*
X34768820Y17986360D01*
X34778470Y17984200D01*
X34788120Y17977720D01*
G01X35068710Y17925910D02*
X35078360Y17910790D01*
X35091230Y17902160D01*
X35105710Y17900000D01*
X35118580Y17902160D01*
X35131450Y17912950D01*
X35139490Y17925910D01*
X35141100Y17938860D01*
X35137880Y17953970D01*
X35126620Y17964770D01*
X35115360Y17969090D01*
X35100880D01*
G01X35115360D02*
X35125010Y17975560D01*
X35133060Y17986360D01*
X35136270Y17999310D01*
X35133060Y18012270D01*
X35125010Y18023060D01*
X35110530Y18029540D01*
X35096060Y18027380D01*
X35081580Y18018740D01*
G01X35327620Y18029540D02*
Y17900000D01*
G01X35290620Y18029540D02*
X35364620D01*
G01X35415250Y17958290D02*
X35466730D01*
X35461900Y17973410D01*
X35453860Y17982040D01*
X35442600Y17986360D01*
X35431340Y17984200D01*
X35421680Y17977720D01*
X35415250Y17962610D01*
X35412030Y17949650D01*
Y17936700D01*
X35415250Y17923750D01*
X35423290Y17910790D01*
X35432950Y17902160D01*
X35444210Y17900000D01*
X35455470Y17904320D01*
X35466730Y17917270D01*
G01X35527010Y17986360D02*
X35575270Y17900000D01*
G01Y17986360D02*
X35527010Y17900000D01*
G01X35662900Y18029540D02*
Y17900000D01*
G01X35640380Y17986360D02*
X35685420D01*
G01X34109690Y17810020D02*
Y17650000D01*
G01X34063930Y17810020D02*
X34155450D01*
G01X34220640Y17650000D02*
Y17810020D01*
G01Y17732680D02*
X34230590Y17746010D01*
X34240540Y17754010D01*
X34256460Y17756680D01*
X34268400Y17754010D01*
X34282320Y17743340D01*
X34288300Y17727340D01*
Y17650000D01*
G01X34399250Y17756680D02*
Y17650000D01*
G01Y17799350D02*
X34395270Y17802020D01*
Y17807350D01*
X34399250Y17810020D01*
X34403230Y17807350D01*
Y17802020D01*
X34399250Y17799350D01*
G01X34514190Y17668670D02*
X34524130Y17658000D01*
X34538060Y17650000D01*
X34550000D01*
X34561940Y17655330D01*
X34569900Y17663330D01*
X34573870Y17674000D01*
X34571880Y17690010D01*
X34563930Y17698010D01*
X34528110Y17714000D01*
X34520150Y17732680D01*
X34524130Y17746010D01*
X34532090Y17754010D01*
X34544030Y17756680D01*
X34555970Y17754010D01*
X34567910Y17746010D01*
G01X34833590Y17756680D02*
Y17650000D01*
G01Y17799350D02*
X34829610Y17802020D01*
Y17807350D01*
X34833590Y17810020D01*
X34837570Y17807350D01*
Y17802020D01*
X34833590Y17799350D01*
G01X34948530Y17668670D02*
X34958470Y17658000D01*
X34972400Y17650000D01*
X34984340D01*
X34996280Y17655330D01*
X35004240Y17663330D01*
X35008210Y17674000D01*
X35006220Y17690010D01*
X34998270Y17698010D01*
X34962450Y17714000D01*
X34954490Y17732680D01*
X34958470Y17746010D01*
X34966430Y17754010D01*
X34978370Y17756680D01*
X34990310Y17754010D01*
X35002250Y17746010D01*
G01X35436590Y17650000D02*
Y17810020D01*
X35362970Y17695340D01*
X35462450D01*
G01X35702270Y17810020D02*
Y17650000D01*
G01X35656510Y17810020D02*
X35748030D01*
G01X35817210Y17722010D02*
X35880880D01*
X35874900Y17740680D01*
X35864960Y17751340D01*
X35851030Y17756680D01*
X35837100Y17754010D01*
X35825160Y17746010D01*
X35817210Y17727340D01*
X35813220Y17711340D01*
Y17695340D01*
X35817210Y17679340D01*
X35827150Y17663330D01*
X35839090Y17652670D01*
X35853020Y17650000D01*
X35866950Y17655330D01*
X35880880Y17671330D01*
G01X35961990Y17756680D02*
X36021670Y17650000D01*
G01Y17756680D02*
X35961990Y17650000D01*
G01X36136610Y17810020D02*
Y17650000D01*
G01X36108760Y17756680D02*
X36164460D01*
G54D15*
G01X24861620Y-5617680D02*
X25148640D01*
G01X24856540Y-5620220D02*
X25153720D01*
G01X24851460Y-5622760D02*
X25158800D01*
G01X24843840Y-5625300D02*
X25166420D01*
G01X24838760Y-5627840D02*
X25001320D01*
G01X24833680Y-5630380D02*
X24953060D01*
G01X24826060Y-5632920D02*
X24942900D01*
G01X24820980Y-5635460D02*
X24925120D01*
G01X24818440Y-5638000D02*
X24917500D01*
G01X24813360Y-5640540D02*
X24909880D01*
G01X24808280Y-5643080D02*
X24897180D01*
G01X24803200Y-5645620D02*
X24889560D01*
G01X24798120Y-5648160D02*
X24881940D01*
G01X24795580Y-5650700D02*
X24876860D01*
G01X24790500Y-5653240D02*
X24869240D01*
G01X24785420Y-5655780D02*
X24861620D01*
G01X24782880Y-5658320D02*
X24856540D01*
G01X24780340Y-5660860D02*
X24851460D01*
G01X24775260Y-5663400D02*
X24846380D01*
G01X24772720Y-5665940D02*
X24838760D01*
G01X24767640Y-5668480D02*
X24836220D01*
G01X24765100Y-5671020D02*
X24828600D01*
G01X24760020Y-5673560D02*
X24826060D01*
G01X24757480Y-5676100D02*
X24820980D01*
G01X24754940Y-5678640D02*
X24815900D01*
G01X24752400Y-5681180D02*
X24813360D01*
G01X24749860Y-5683720D02*
X24810820D01*
G01X24744780Y-5686260D02*
X24805740D01*
G01X24742240Y-5688800D02*
X24800660D01*
G01X24739700Y-5691340D02*
X24795580D01*
G01X24737160Y-5693880D02*
X24793040D01*
G01X24732080Y-5696420D02*
X24790500D01*
G01X24729540Y-5698960D02*
X24787960D01*
G01X24727000Y-5701500D02*
X24782880D01*
G01X24724460Y-5704040D02*
X24780340D01*
G01X24721920Y-5706580D02*
X24775260D01*
G01X24719380Y-5709120D02*
X24772720D01*
G01X24716840Y-5711660D02*
X24770180D01*
G01X24714300Y-5714200D02*
X24767640D01*
G01X24711760Y-5716740D02*
X24765100D01*
G01X24709220Y-5719280D02*
X24762560D01*
G01X24706680Y-5721820D02*
X24760020D01*
G01X24704140Y-5724360D02*
X24757480D01*
G01X24704140Y-5726900D02*
X24752400D01*
G01X24701600Y-5729440D02*
X24749860D01*
G01X24699060Y-5731980D02*
X24747320D01*
G01X24696520Y-5734520D02*
X24744780D01*
G01X24693980Y-5737060D02*
X24742240D01*
G01X24691440Y-5739600D02*
X24739700D01*
G01X24691440Y-5742140D02*
X24737160D01*
G01X24688900Y-5744680D02*
X24734620D01*
G01X24686360Y-5747220D02*
X24734620D01*
G01X24683820Y-5749760D02*
X24732080D01*
G01X24681280Y-5752300D02*
X24729540D01*
G01X24681280Y-5754840D02*
X24727000D01*
G01X24678740Y-5757380D02*
X24724460D01*
G01X24676200Y-5759920D02*
X24721920D01*
G01X24673660Y-5762460D02*
X24719380D01*
G01X24673660Y-5765000D02*
X24716840D01*
G01X24671120Y-5767540D02*
X24714300D01*
G01X24671120Y-5770080D02*
X24714300D01*
G01X24668580Y-5772620D02*
X24711760D01*
G01X24666040Y-5775160D02*
X24709220D01*
G01X24663500Y-5777700D02*
X24709220D01*
G01X24663500Y-5780240D02*
X24706680D01*
G01X24660960Y-5782780D02*
X24704140D01*
G01X24660960Y-5785320D02*
X24701600D01*
G01X24658420Y-5787860D02*
X24699060D01*
G01X24655880Y-5790400D02*
X24699060D01*
G01X24655880Y-5792940D02*
X24696520D01*
G01X24653340Y-5795480D02*
X24696520D01*
G01X24653340Y-5798020D02*
X24693980D01*
G01X24650800Y-5800560D02*
X24691440D01*
G01X24650800Y-5803100D02*
X24691440D01*
G01X24648260Y-5805640D02*
X24688900D01*
G01X24645720Y-5808180D02*
X24686360D01*
G01X24645720Y-5810720D02*
X24686360D01*
G01X24643180Y-5813260D02*
X24683820D01*
G01X24643180Y-5815800D02*
X24683820D01*
G01X24640640Y-5818340D02*
X24681280D01*
G01X24640640Y-5820880D02*
X24681280D01*
G01X24638100Y-5823420D02*
X24678740D01*
G01X24638100Y-5825960D02*
X24678740D01*
G01X24638100Y-5828500D02*
X24676200D01*
G01X24635560Y-5831040D02*
X24673660D01*
G01X24635560Y-5833580D02*
X24673660D01*
G01X24633020Y-5836120D02*
X24673660D01*
G01X24754940D02*
X24777800D01*
G01X24633020Y-5838660D02*
X24671120D01*
G01X24754940D02*
X24780340D01*
G01X24633020Y-5841200D02*
X24671120D01*
G01X24754940D02*
X24780340D01*
G01X24630480Y-5843740D02*
X24668580D01*
G01X24752400D02*
X24780340D01*
G01X24630480Y-5846280D02*
X24668580D01*
G01X24752400D02*
X24780340D01*
G01X24627940Y-5848820D02*
X24666040D01*
G01X24752400D02*
X24780340D01*
G01X24627940Y-5851360D02*
X24666040D01*
G01X24752400D02*
X24780340D01*
G01X24625400Y-5853900D02*
X24663500D01*
G01X24752400D02*
X24782880D01*
G01X24625400Y-5856440D02*
X24663500D01*
G01X24749860D02*
X24782880D01*
G01X24625400Y-5858980D02*
X24663500D01*
G01X24749860D02*
X24782880D01*
G01X24622860Y-5861520D02*
X24660960D01*
G01X24749860D02*
X24782880D01*
G01X24622860Y-5864060D02*
X24660960D01*
G01X24749860D02*
X24785420D01*
G01X24622860Y-5866600D02*
X24660960D01*
G01X24749860D02*
X24785420D01*
G01X24620320Y-5869140D02*
X24658420D01*
G01X24749860D02*
X24785420D01*
G01X24620320Y-5871680D02*
X24658420D01*
G01X24749860D02*
X24785420D01*
G01X24620320Y-5874220D02*
X24655880D01*
G01X24749860D02*
X24785420D01*
G01X24617780Y-5876760D02*
X24655880D01*
G01X24747320D02*
X24785420D01*
G01X24617780Y-5879300D02*
X24655880D01*
G01X24747320D02*
X24785420D01*
G01X24617780Y-5881840D02*
X24653340D01*
G01X24747320D02*
X24787960D01*
G01X24615240Y-5884380D02*
X24653340D01*
G01X24747320D02*
X24787960D01*
G01X24615240Y-5886920D02*
X24653340D01*
G01X24747320D02*
X24787960D01*
G01X24615240Y-5889460D02*
X24650800D01*
G01X24744780D02*
X24787960D01*
G01X24615240Y-5892000D02*
X24650800D01*
G01X24744780D02*
X24790500D01*
G01X24615240Y-5894540D02*
X24650800D01*
G01X24744780D02*
X24790500D01*
G01X24612700Y-5897080D02*
X24650800D01*
G01X24744780D02*
X24790500D01*
G01X24612700Y-5899620D02*
X24648260D01*
G01X24744780D02*
X24790500D01*
G01X24612700Y-5902160D02*
X24648260D01*
G01X24744780D02*
X24790500D01*
G01X24610160Y-5904700D02*
X24648260D01*
G01X24744780D02*
X24790500D01*
G01X24610160Y-5907240D02*
X24645720D01*
G01X24744780D02*
X24790500D01*
G01X24610160Y-5909780D02*
X24645720D01*
G01X24744780D02*
X24790500D01*
G01X24607620Y-5912320D02*
X24645720D01*
G01X24742240D02*
X24793040D01*
G01X24607620Y-5914860D02*
X24645720D01*
G01X24742240D02*
X24767640D01*
G01X24770180D02*
X24793040D01*
G01X24607620Y-5917400D02*
X24643180D01*
G01X24742240D02*
X24767640D01*
G01X24770180D02*
X24793040D01*
G01X24607620Y-5919940D02*
X24643180D01*
G01X24742240D02*
X24767640D01*
G01X24770180D02*
X24793040D01*
G01X24607620Y-5922480D02*
X24643180D01*
G01X24742240D02*
X24767640D01*
G01X24770180D02*
X24795580D01*
G01X24607620Y-5925020D02*
X24643180D01*
G01X24739700D02*
X24765100D01*
G01X24772720D02*
X24795580D01*
G01X24607620Y-5927560D02*
X24643180D01*
G01X24739700D02*
X24765100D01*
G01X24772720D02*
X24795580D01*
G01X24605080Y-5930100D02*
X24643180D01*
G01X24739700D02*
X24765100D01*
G01X24772720D02*
X24795580D01*
G01X24605080Y-5932640D02*
X24640640D01*
G01X24739700D02*
X24765100D01*
G01X24772720D02*
X24798120D01*
G01X24605080Y-5935180D02*
X24640640D01*
G01X24737160D02*
X24765100D01*
G01X24772720D02*
X24795580D01*
G01X24605080Y-5937720D02*
X24640640D01*
G01X24737160D02*
X24762560D01*
G01X24772720D02*
X24795580D01*
G01X24605080Y-5940260D02*
X24640640D01*
G01X24737160D02*
X24762560D01*
G01X24772720D02*
X24798120D01*
G01X24602540Y-5942800D02*
X24638100D01*
G01X24737160D02*
X24762560D01*
G01X24772720D02*
X24798120D01*
G01X24602540Y-5945340D02*
X24638100D01*
G01X24737160D02*
X24762560D01*
G01X24775260D02*
X24798120D01*
G01X24602540Y-5947880D02*
X24638100D01*
G01X24737160D02*
X24762560D01*
G01X24775260D02*
X24798120D01*
G01X24602540Y-5950420D02*
X24638100D01*
G01X24737160D02*
X24762560D01*
G01X24775260D02*
X24800660D01*
G01X24602540Y-5952960D02*
X24638100D01*
G01X24737160D02*
X24762560D01*
G01X24777800D02*
X24800660D01*
G01X24602540Y-5955500D02*
X24638100D01*
G01X24737160D02*
X24762560D01*
G01X24777800D02*
X24800660D01*
G01X24602540Y-5958040D02*
X24638100D01*
G01X24734620D02*
X24762560D01*
G01X24777800D02*
X24800660D01*
G01X24602540Y-5960580D02*
X24638100D01*
G01X24734620D02*
X24760020D01*
G01X24777800D02*
X24800660D01*
G01X24602540Y-5963120D02*
X24638100D01*
G01X24734620D02*
X24760020D01*
G01X24777800D02*
X24803200D01*
G01X24602540Y-5965660D02*
X24638100D01*
G01X24734620D02*
X24760020D01*
G01X24780340D02*
X24803200D01*
G01X24602540Y-5968200D02*
X24638100D01*
G01X24734620D02*
X24760020D01*
G01X24777800D02*
X24803200D01*
G01X24864160D02*
X24889560D01*
G01X24602540Y-5970740D02*
X24638100D01*
G01X24732080D02*
X24760020D01*
G01X24780340D02*
X24803200D01*
G01X24864160D02*
X24889560D01*
G01X24602540Y-5973280D02*
X24638100D01*
G01X24732080D02*
X24757480D01*
G01X24780340D02*
X24803200D01*
G01X24861620D02*
X24887020D01*
G01X24602540Y-5975820D02*
X24638100D01*
G01X24732080D02*
X24757480D01*
G01X24780340D02*
X24803200D01*
G01X24861620D02*
X24887020D01*
G01X24602540Y-5978360D02*
X24638100D01*
G01X24732080D02*
X24757480D01*
G01X24780340D02*
X24803200D01*
G01X24859080D02*
X24884480D01*
G01X24602540Y-5980900D02*
X24638100D01*
G01X24732080D02*
X24757480D01*
G01X24780340D02*
X24805740D01*
G01X24859080D02*
X24884480D01*
G01X24602540Y-5983440D02*
X24635560D01*
G01X24732080D02*
X24757480D01*
G01X24782880D02*
X24805740D01*
G01X24856540D02*
X24881940D01*
G01X24602540Y-5985980D02*
X24635560D01*
G01X24732080D02*
X24754940D01*
G01X24782880D02*
X24805740D01*
G01X24856540D02*
X24881940D01*
G01X24600000Y-5988520D02*
X24635560D01*
G01X24732080D02*
X24754940D01*
G01X24782880D02*
X24805740D01*
G01X24854000D02*
X24879400D01*
G01X24600000Y-5991060D02*
X24635560D01*
G01X24729540D02*
X24754940D01*
G01X24782880D02*
X24808280D01*
G01X24854000D02*
X24879400D01*
G01X24600000Y-5993600D02*
X24635560D01*
G01X24729540D02*
X24754940D01*
G01X24785420D02*
X24808280D01*
G01X24851460D02*
X24876860D01*
G01X24600000Y-5996140D02*
X24635560D01*
G01X24729540D02*
X24754940D01*
G01X24785420D02*
X24808280D01*
G01X24851460D02*
X24876860D01*
G01X24600000Y-5998680D02*
X24635560D01*
G01X24729540D02*
X24754940D01*
G01X24785420D02*
X24808280D01*
G01X24848920D02*
X24874320D01*
G01X24600000Y-6001220D02*
X24635560D01*
G01X24729540D02*
X24754940D01*
G01X24785420D02*
X24808280D01*
G01X24848920D02*
X24874320D01*
G01X24600000Y-6003760D02*
X24635560D01*
G01X24729540D02*
X24754940D01*
G01X24785420D02*
X24808280D01*
G01X24846380D02*
X24871780D01*
G01X24602540Y-6006300D02*
X24635560D01*
G01X24727000D02*
X24752400D01*
G01X24785420D02*
X24808280D01*
G01X24846380D02*
X24871780D01*
G01X24602540Y-6008840D02*
X24635560D01*
G01X24727000D02*
X24752400D01*
G01X24785420D02*
X24810820D01*
G01X24843840D02*
X24869240D01*
G01X24602540Y-6011380D02*
X24635560D01*
G01X24727000D02*
X24752400D01*
G01X24787960D02*
X24810820D01*
G01X24843840D02*
X24869240D01*
G01X24602540Y-6013920D02*
X24638100D01*
G01X24727000D02*
X24752400D01*
G01X24787960D02*
X24810820D01*
G01X24841300D02*
X24866700D01*
G01X24602540Y-6016460D02*
X24638100D01*
G01X24727000D02*
X24752400D01*
G01X24787960D02*
X24810820D01*
G01X24841300D02*
X24866700D01*
G01X24602540Y-6019000D02*
X24638100D01*
G01X24727000D02*
X24749860D01*
G01X24787960D02*
X24813360D01*
G01X24838760D02*
X24864160D01*
G01X24602540Y-6021540D02*
X24638100D01*
G01X24727000D02*
X24749860D01*
G01X24790500D02*
X24813360D01*
G01X24838760D02*
X24864160D01*
G01X24602540Y-6024080D02*
X24638100D01*
G01X24727000D02*
X24749860D01*
G01X24790500D02*
X24813360D01*
G01X24836220D02*
X24861620D01*
G01X24602540Y-6026620D02*
X24638100D01*
G01X24724460D02*
X24749860D01*
G01X24790500D02*
X24813360D01*
G01X24836220D02*
X24861620D01*
G01X24602540Y-6029160D02*
X24638100D01*
G01X24724460D02*
X24749860D01*
G01X24790500D02*
X24813360D01*
G01X24833680D02*
X24859080D01*
G01X24602540Y-6031700D02*
X24638100D01*
G01X24724460D02*
X24749860D01*
G01X24790500D02*
X24813360D01*
G01X24833680D02*
X24859080D01*
G01X24602540Y-6034240D02*
X24638100D01*
G01X24724460D02*
X24749860D01*
G01X24790500D02*
X24813360D01*
G01X24831140D02*
X24859080D01*
G01X24602540Y-6036780D02*
X24638100D01*
G01X24724460D02*
X24749860D01*
G01X24790500D02*
X24815900D01*
G01X24831140D02*
X24856540D01*
G01X24602540Y-6039320D02*
X24638100D01*
G01X24724460D02*
X24749860D01*
G01X24793040D02*
X24815900D01*
G01X24828600D02*
X24856540D01*
G01X24602540Y-6041860D02*
X24638100D01*
G01X24721920D02*
X24747320D01*
G01X24793040D02*
X24815900D01*
G01X24828600D02*
X24854000D01*
G01X24602540Y-6044400D02*
X24638100D01*
G01X24721920D02*
X24747320D01*
G01X24793040D02*
X24815900D01*
G01X24826060D02*
X24854000D01*
G01X24602540Y-6046940D02*
X24638100D01*
G01X24721920D02*
X24747320D01*
G01X24795580D02*
X24818440D01*
G01X24826060D02*
X24851460D01*
G01X24602540Y-6049480D02*
X24638100D01*
G01X24721920D02*
X24747320D01*
G01X24795580D02*
X24818440D01*
G01X24826060D02*
X24851460D01*
G01X24605080Y-6052020D02*
X24640640D01*
G01X24719380D02*
X24747320D01*
G01X24795580D02*
X24818440D01*
G01X24823520D02*
X24848920D01*
G01X24605080Y-6054560D02*
X24640640D01*
G01X24719380D02*
X24744780D01*
G01X24795580D02*
X24818440D01*
G01X24820980D02*
X24848920D01*
G01X24605080Y-6057100D02*
X24640640D01*
G01X24719380D02*
X24744780D01*
G01X24795580D02*
X24818440D01*
G01X24820980D02*
X24846380D01*
G01X24605080Y-6059640D02*
X24640640D01*
G01X24719380D02*
X24744780D01*
G01X24798120D02*
X24846380D01*
G01X24605080Y-6062180D02*
X24643180D01*
G01X24719380D02*
X24744780D01*
G01X24795580D02*
X24843840D01*
G01X24607620Y-6064720D02*
X24643180D01*
G01X24719380D02*
X24744780D01*
G01X24795580D02*
X24843840D01*
G01X24607620Y-6067260D02*
X24643180D01*
G01X24719380D02*
X24744780D01*
G01X24798120D02*
X24841300D01*
G01X24607620Y-6069800D02*
X24643180D01*
G01X24719380D02*
X24744780D01*
G01X24798120D02*
X24841300D01*
G01X24607620Y-6072340D02*
X24643180D01*
G01X24719380D02*
X24744780D01*
G01X24798120D02*
X24838760D01*
G01X24607620Y-6074880D02*
X24643180D01*
G01X24716840D02*
X24744780D01*
G01X24798120D02*
X24838760D01*
G01X24607620Y-6077420D02*
X24645720D01*
G01X24716840D02*
X24742240D01*
G01X24800660D02*
X24836220D01*
G01X24607620Y-6079960D02*
X24645720D01*
G01X24716840D02*
X24742240D01*
G01X24800660D02*
X24836220D01*
G01X24610160Y-6082500D02*
X24645720D01*
G01X24716840D02*
X24742240D01*
G01X24800660D02*
X24833680D01*
G01X24610160Y-6085040D02*
X24645720D01*
G01X24716840D02*
X24742240D01*
G01X24800660D02*
X24833680D01*
G01X24610160Y-6087580D02*
X24648260D01*
G01X24714300D02*
X24739700D01*
G01X24803200D02*
X24831140D01*
G01X24612700Y-6090120D02*
X24648260D01*
G01X24714300D02*
X24739700D01*
G01X24803200D02*
X24831140D01*
G01X24612700Y-6092660D02*
X24648260D01*
G01X24714300D02*
X24739700D01*
G01X24803200D02*
X24828600D01*
G01X24612700Y-6095200D02*
X24650800D01*
G01X24714300D02*
X24739700D01*
G01X24803200D02*
X24828600D01*
G01X24615240Y-6097740D02*
X24650800D01*
G01X24714300D02*
X24739700D01*
G01X24803200D02*
X24826060D01*
G01X24615240Y-6100280D02*
X24650800D01*
G01X24714300D02*
X24739700D01*
G01X24615240Y-6102820D02*
X24650800D01*
G01X24714300D02*
X24737160D01*
G01X24615240Y-6105360D02*
X24653340D01*
G01X24714300D02*
X24737160D01*
G01X24615240Y-6107900D02*
X24653340D01*
G01X24714300D02*
X24737160D01*
G01X24617780Y-6110440D02*
X24653340D01*
G01X24711760D02*
X24737160D01*
G01X24617780Y-6112980D02*
X24655880D01*
G01X24711760D02*
X24737160D01*
G01X24617780Y-6115520D02*
X24655880D01*
G01X24711760D02*
X24737160D01*
G01X24620320Y-6118060D02*
X24655880D01*
G01X24711760D02*
X24737160D01*
G01X24620320Y-6120600D02*
X24658420D01*
G01X24711760D02*
X24737160D01*
G01X24620320Y-6123140D02*
X24658420D01*
G01X24709220D02*
X24734620D01*
G01X24622860Y-6125680D02*
X24660960D01*
G01X24709220D02*
X24734620D01*
G01X24622860Y-6128220D02*
X24660960D01*
G01X24709220D02*
X24734620D01*
G01X24622860Y-6130760D02*
X24660960D01*
G01X24709220D02*
X24734620D01*
G01X24625400Y-6133300D02*
X24660960D01*
G01X24709220D02*
X24734620D01*
G01X24625400Y-6135840D02*
X24663500D01*
G01X24709220D02*
X24732080D01*
G01X24625400Y-6138380D02*
X24663500D01*
G01X24709220D02*
X24732080D01*
G01X24627940Y-6140920D02*
X24666040D01*
G01X24709220D02*
X24732080D01*
G01X24627940Y-6143460D02*
X24666040D01*
G01X24706680D02*
X24732080D01*
G01X24630480Y-6146000D02*
X24668580D01*
G01X24706680D02*
X24732080D01*
G01X24630480Y-6148540D02*
X24668580D01*
G01X24706680D02*
X24732080D01*
G01X24633020Y-6151080D02*
X24671120D01*
G01X24706680D02*
X24732080D01*
G01X24633020Y-6153620D02*
X24671120D01*
G01X24706680D02*
X24732080D01*
G01X24633020Y-6156160D02*
X24673660D01*
G01X24704140D02*
X24729540D01*
G01X24635560Y-6158700D02*
X24673660D01*
G01X24635560Y-6161240D02*
X24673660D01*
G01X24638100Y-6163780D02*
X24676200D01*
G01X24638100Y-6166320D02*
X24678740D01*
G01X24638100Y-6168860D02*
X24678740D01*
G01X24640640Y-6171400D02*
X24681280D01*
G01X24640640Y-6173940D02*
X24681280D01*
G01X24643180Y-6176480D02*
X24683820D01*
G01X24643180Y-6179020D02*
X24683820D01*
G01X24645720Y-6181560D02*
X24686360D01*
G01X24645720Y-6184100D02*
X24686360D01*
G01X24648260Y-6186640D02*
X24688900D01*
G01X24648260Y-6189180D02*
X24691440D01*
G01X24650800Y-6191720D02*
X24691440D01*
G01X24653340Y-6194260D02*
X24693980D01*
G01X24653340Y-6196800D02*
X24696520D01*
G01X24655880Y-6199340D02*
X24696520D01*
G01X24655880Y-6201880D02*
X24699060D01*
G01X24658420Y-6204420D02*
X24699060D01*
G01X24660960Y-6206960D02*
X24701600D01*
G01X24660960Y-6209500D02*
X24704140D01*
G01X24663500Y-6212040D02*
X24706680D01*
G01X24663500Y-6214580D02*
X24709220D01*
G01X24666040Y-6217120D02*
X24709220D01*
G01X24668580Y-6219660D02*
X24711760D01*
G01X24671120Y-6222200D02*
X24714300D01*
G01X24671120Y-6224740D02*
X24714300D01*
G01X24673660Y-6227280D02*
X24716840D01*
G01X24673660Y-6229820D02*
X24719380D01*
G01X24676200Y-6232360D02*
X24721920D01*
G01X24678740Y-6234900D02*
X24724460D01*
G01X24681280Y-6237440D02*
X24727000D01*
G01X24681280Y-6239980D02*
X24729540D01*
G01X24683820Y-6242520D02*
X24732080D01*
G01X24686360Y-6245060D02*
X24732080D01*
G01X24688900Y-6247600D02*
X24734620D01*
G01X24691440Y-6250140D02*
X24737160D01*
G01X24691440Y-6252680D02*
X24739700D01*
G01X24693980Y-6255220D02*
X24742240D01*
G01X24696520Y-6257760D02*
X24744780D01*
G01X24699060Y-6260300D02*
X24747320D01*
G01X24701600Y-6262840D02*
X24749860D01*
G01X24701600Y-6265380D02*
X24752400D01*
G01X24704140Y-6267920D02*
X24754940D01*
G01X24706680Y-6270460D02*
X24760020D01*
G01X24709220Y-6273000D02*
X24762560D01*
G01X24711760Y-6275540D02*
X24765100D01*
G01X24714300Y-6278080D02*
X24767640D01*
G01X24716840Y-6280620D02*
X24770180D01*
G01X24719380Y-6283160D02*
X24772720D01*
G01X24721920Y-6285700D02*
X24775260D01*
G01X24724460Y-6288240D02*
X24780340D01*
G01X24727000Y-6290780D02*
X24782880D01*
G01X24729540Y-6293320D02*
X24787960D01*
G01X24732080Y-6295860D02*
X24790500D01*
G01X24734620Y-6298400D02*
X24793040D01*
G01X24739700Y-6300940D02*
X24795580D01*
G01X24742240Y-6303480D02*
X24800660D01*
G01X24744780Y-6306020D02*
X24805740D01*
G01X24747320Y-6308560D02*
X24808280D01*
G01X24752400Y-6311100D02*
X24813360D01*
G01X24754940Y-6313640D02*
X24815900D01*
G01X24757480Y-6316180D02*
X24820980D01*
G01X24760020Y-6318720D02*
X24826060D01*
G01X24765100Y-6321260D02*
X24828600D01*
G01X24767640Y-6323800D02*
X24836220D01*
G01X24770180Y-6326340D02*
X24838760D01*
G01X24775260Y-6328880D02*
X24846380D01*
G01X24780340Y-6331420D02*
X24851460D01*
G01X24782880Y-6333960D02*
X24856540D01*
G01X24785420Y-6336500D02*
X24861620D01*
G01X24790500Y-6339040D02*
X24866700D01*
G01X24795580Y-6341580D02*
X24874320D01*
G01X24798120Y-6344120D02*
X24881940D01*
G01X24803200Y-6346660D02*
X24889560D01*
G01X24808280Y-6349200D02*
X24897180D01*
G01X24810820Y-6351740D02*
X24907340D01*
G01X24815900Y-6354280D02*
X24914960D01*
G01X24820980Y-6356820D02*
X24925120D01*
G01X24826060Y-6359360D02*
X24940360D01*
G01X24831140Y-6361900D02*
X24950520D01*
G01X24838760Y-6364440D02*
X24988620D01*
G01X24843840Y-6366980D02*
X25166420D01*
G01X24851460Y-6369520D02*
X25158800D01*
G01X24856540Y-6372060D02*
X25153720D01*
G01X24861620Y-6374600D02*
X25148640D01*
G01X24869240Y-6377140D02*
X25141020D01*
G01X24876860Y-6379680D02*
X25133400D01*
G01X24884480Y-6382220D02*
X25125780D01*
G01X24892100Y-6384760D02*
X25118160D01*
G01X24904800Y-6387300D02*
X25105460D01*
G01X24912420Y-6389840D02*
X25097840D01*
G01X24920040Y-6392380D02*
X25090220D01*
G01X24937820Y-6394920D02*
X25072440D01*
G01X24950520Y-6397460D02*
X25059740D01*
G01X24993700Y-6400000D02*
X25016560D01*
G01X24871780Y-5615140D02*
X25138480D01*
G01X25008940Y-5627840D02*
X25171500D01*
G01X25057200Y-5630380D02*
X25176580D01*
G01X25067360Y-5632920D02*
X25181660D01*
G01X25085140Y-5635460D02*
X25186740D01*
G01X25092760Y-5638000D02*
X25191820D01*
G01X25100380Y-5640540D02*
X25196900D01*
G01X25113080Y-5643080D02*
X25201980D01*
G01X25118160Y-5645620D02*
X25207060D01*
G01X25128320Y-5648160D02*
X25212140D01*
G01X25133400Y-5650700D02*
X25214680D01*
G01X25141020Y-5653240D02*
X25219760D01*
G01X25148640Y-5655780D02*
X25224840D01*
G01X25153720Y-5658320D02*
X25227380D01*
G01X25158800Y-5660860D02*
X25229920D01*
G01X25163880Y-5663400D02*
X25235000D01*
G01X25171500Y-5665940D02*
X25237540D01*
G01X25174040Y-5668480D02*
X25242620D01*
G01X25179120Y-5671020D02*
X25245160D01*
G01X25184200Y-5673560D02*
X25250240D01*
G01X25189280Y-5676100D02*
X25252780D01*
G01X25191820Y-5678640D02*
X25255320D01*
G01X25196900Y-5681180D02*
X25257860D01*
G01X25199440Y-5683720D02*
X25260400D01*
G01X25204520Y-5686260D02*
X25265480D01*
G01X25209600Y-5688800D02*
X25268020D01*
G01X25212140Y-5691340D02*
X25270560D01*
G01X25217220Y-5693880D02*
X25273100D01*
G01X25219760Y-5696420D02*
X25278180D01*
G01X25222300Y-5698960D02*
X25280720D01*
G01X25227380Y-5701500D02*
X25283260D01*
G01X25229920Y-5704040D02*
X25285800D01*
G01X25235000Y-5706580D02*
X25288340D01*
G01X25237540Y-5709120D02*
X25290880D01*
G01X25240080Y-5711660D02*
X25293420D01*
G01X25242620Y-5714200D02*
X25295960D01*
G01X25245160Y-5716740D02*
X25298500D01*
G01X25247700Y-5719280D02*
X25301040D01*
G01X25250240Y-5721820D02*
X25303580D01*
G01X25252780Y-5724360D02*
X25306120D01*
G01X25255320Y-5726900D02*
X25306120D01*
G01X25257860Y-5729440D02*
X25308660D01*
G01X25262940Y-5731980D02*
X25311200D01*
G01X25265480Y-5734520D02*
X25313740D01*
G01X25268020Y-5737060D02*
X25316280D01*
G01X25270560Y-5739600D02*
X25316280D01*
G01X25270560Y-5742140D02*
X25318820D01*
G01X25273100Y-5744680D02*
X25321360D01*
G01X25275640Y-5747220D02*
X25323900D01*
G01X25278180Y-5749760D02*
X25326440D01*
G01X25280720Y-5752300D02*
X25328980D01*
G01X25283260Y-5754840D02*
X25328980D01*
G01X25285800Y-5757380D02*
X25331520D01*
G01X25288340Y-5759920D02*
X25334060D01*
G01X25290880Y-5762460D02*
X25334060D01*
G01X25293420Y-5765000D02*
X25336600D01*
G01X25295960Y-5767540D02*
X25339140D01*
G01X25295960Y-5770080D02*
X25339140D01*
G01X25298500Y-5772620D02*
X25341680D01*
G01X25301040Y-5775160D02*
X25344220D01*
G01X25301040Y-5777700D02*
X25344220D01*
G01X25303580Y-5780240D02*
X25346760D01*
G01X25306120Y-5782780D02*
X25349300D01*
G01X25308660Y-5785320D02*
X25349300D01*
G01X25308660Y-5787860D02*
X25351840D01*
G01X25311200Y-5790400D02*
X25354380D01*
G01X25313740Y-5792940D02*
X25354380D01*
G01X25313740Y-5795480D02*
X25356920D01*
G01X25316280Y-5798020D02*
X25356920D01*
G01X25316280Y-5800560D02*
X25359460D01*
G01X25318820Y-5803100D02*
X25359460D01*
G01X25321360Y-5805640D02*
X25362000D01*
G01X25321360Y-5808180D02*
X25362000D01*
G01X25323900Y-5810720D02*
X25364540D01*
G01X25326440Y-5813260D02*
X25364540D01*
G01X25326440Y-5815800D02*
X25367080D01*
G01X25328980Y-5818340D02*
X25367080D01*
G01X25328980Y-5820880D02*
X25369620D01*
G01X25331520Y-5823420D02*
X25369620D01*
G01X25331520Y-5825960D02*
X25372160D01*
G01X25334060Y-5828500D02*
X25372160D01*
G01X25336600Y-5831040D02*
X25374700D01*
G01X25336600Y-5833580D02*
X25374700D01*
G01X24927660Y-5836120D02*
X24953060D01*
G01X25133400D02*
X25156260D01*
G01X25280720D02*
X25303580D01*
G01X25336600D02*
X25377240D01*
G01X24927660Y-5838660D02*
X24953060D01*
G01X25130860D02*
X25156260D01*
G01X25278180D02*
X25303580D01*
G01X25339140D02*
X25377240D01*
G01X24925120Y-5841200D02*
X24953060D01*
G01X25130860D02*
X25158800D01*
G01X25278180D02*
X25303580D01*
G01X25339140D02*
X25377240D01*
G01X24925120Y-5843740D02*
X24953060D01*
G01X25130860D02*
X25158800D01*
G01X25278180D02*
X25303580D01*
G01X25341680D02*
X25379780D01*
G01X24925120Y-5846280D02*
X24953060D01*
G01X25130860D02*
X25158800D01*
G01X25278180D02*
X25303580D01*
G01X25341680D02*
X25379780D01*
G01X24922580Y-5848820D02*
X24953060D01*
G01X25130860D02*
X25161340D01*
G01X25278180D02*
X25303580D01*
G01X25344220D02*
X25382320D01*
G01X24922580Y-5851360D02*
X24950520D01*
G01X25130860D02*
X25161340D01*
G01X25278180D02*
X25301040D01*
G01X25344220D02*
X25382320D01*
G01X24920040Y-5853900D02*
X24950520D01*
G01X25130860D02*
X25161340D01*
G01X25278180D02*
X25301040D01*
G01X25346760D02*
X25384860D01*
G01X24920040Y-5856440D02*
X24950520D01*
G01X25130860D02*
X25161340D01*
G01X25275640D02*
X25301040D01*
G01X25346760D02*
X25384860D01*
G01X24917500Y-5858980D02*
X24950520D01*
G01X25128320D02*
X25163880D01*
G01X25275640D02*
X25301040D01*
G01X25346760D02*
X25384860D01*
G01X24917500Y-5861520D02*
X24950520D01*
G01X25128320D02*
X25163880D01*
G01X25275640D02*
X25301040D01*
G01X25349300D02*
X25384860D01*
G01X24914960Y-5864060D02*
X24947980D01*
G01X25128320D02*
X25166420D01*
G01X25275640D02*
X25301040D01*
G01X25349300D02*
X25387400D01*
G01X24914960Y-5866600D02*
X24950520D01*
G01X25128320D02*
X25166420D01*
G01X25275640D02*
X25301040D01*
G01X25349300D02*
X25387400D01*
G01X24912420Y-5869140D02*
X24950520D01*
G01X25128320D02*
X25166420D01*
G01X25275640D02*
X25301040D01*
G01X25351840D02*
X25389940D01*
G01X24912420Y-5871680D02*
X24947980D01*
G01X25125780D02*
X25166420D01*
G01X25273100D02*
X25298500D01*
G01X25351840D02*
X25389940D01*
G01X24909880Y-5874220D02*
X24947980D01*
G01X25125780D02*
X25168960D01*
G01X25273100D02*
X25298500D01*
G01X25354380D02*
X25389940D01*
G01X24909880Y-5876760D02*
X24947980D01*
G01X25125780D02*
X25168960D01*
G01X25273100D02*
X25298500D01*
G01X25354380D02*
X25389940D01*
G01X24907340Y-5879300D02*
X24947980D01*
G01X25125780D02*
X25171500D01*
G01X25273100D02*
X25298500D01*
G01X25354380D02*
X25392480D01*
G01X24907340Y-5881840D02*
X24947980D01*
G01X25125780D02*
X25171500D01*
G01X25273100D02*
X25298500D01*
G01X25354380D02*
X25392480D01*
G01X24904800Y-5884380D02*
X24947980D01*
G01X25125780D02*
X25171500D01*
G01X25273100D02*
X25295960D01*
G01X25356920D02*
X25395020D01*
G01X24904800Y-5886920D02*
X24945440D01*
G01X25125780D02*
X25171500D01*
G01X25273100D02*
X25295960D01*
G01X25356920D02*
X25395020D01*
G01X24902260Y-5889460D02*
X24945440D01*
G01X25125780D02*
X25174040D01*
G01X25273100D02*
X25295960D01*
G01X25359460D02*
X25395020D01*
G01X24902260Y-5892000D02*
X24945440D01*
G01X25123240D02*
X25174040D01*
G01X25270560D02*
X25295960D01*
G01X25359460D02*
X25395020D01*
G01X24899720Y-5894540D02*
X24945440D01*
G01X25123240D02*
X25174040D01*
G01X25270560D02*
X25295960D01*
G01X25359460D02*
X25395020D01*
G01X24899720Y-5897080D02*
X24942900D01*
G01X25123240D02*
X25176580D01*
G01X25270560D02*
X25295960D01*
G01X25359460D02*
X25397560D01*
G01X24897180Y-5899620D02*
X24942900D01*
G01X25123240D02*
X25176580D01*
G01X25270560D02*
X25295960D01*
G01X25359460D02*
X25397560D01*
G01X24897180Y-5902160D02*
X24942900D01*
G01X25123240D02*
X25148640D01*
G01X25151180D02*
X25176580D01*
G01X25270560D02*
X25295960D01*
G01X25362000D02*
X25397560D01*
G01X24894640Y-5904700D02*
X24942900D01*
G01X25123240D02*
X25146100D01*
G01X25151180D02*
X25179120D01*
G01X25270560D02*
X25293420D01*
G01X25362000D02*
X25400100D01*
G01X24894640Y-5907240D02*
X24942900D01*
G01X25120700D02*
X25146100D01*
G01X25151180D02*
X25179120D01*
G01X25268020D02*
X25293420D01*
G01X25362000D02*
X25400100D01*
G01X24892100Y-5909780D02*
X24942900D01*
G01X25120700D02*
X25146100D01*
G01X25153720D02*
X25179120D01*
G01X25268020D02*
X25293420D01*
G01X25364540D02*
X25400100D01*
G01X24892100Y-5912320D02*
X24942900D01*
G01X25120700D02*
X25146100D01*
G01X25153720D02*
X25181660D01*
G01X25268020D02*
X25293420D01*
G01X25364540D02*
X25400100D01*
G01X24889560Y-5914860D02*
X24942900D01*
G01X25120700D02*
X25146100D01*
G01X25153720D02*
X25181660D01*
G01X25268020D02*
X25293420D01*
G01X25364540D02*
X25402640D01*
G01X24889560Y-5917400D02*
X24914960D01*
G01X24917500D02*
X24942900D01*
G01X25118160D02*
X25146100D01*
G01X25153720D02*
X25181660D01*
G01X25265480D02*
X25293420D01*
G01X25367080D02*
X25400100D01*
G01X24887020Y-5919940D02*
X24912420D01*
G01X24917500D02*
X24940360D01*
G01X25120700D02*
X25143560D01*
G01X25156260D02*
X25184200D01*
G01X25265480D02*
X25290880D01*
G01X25367080D02*
X25402640D01*
G01X24887020Y-5922480D02*
X24912420D01*
G01X24914960D02*
X24940360D01*
G01X25120700D02*
X25143560D01*
G01X25156260D02*
X25184200D01*
G01X25265480D02*
X25290880D01*
G01X25367080D02*
X25402640D01*
G01X24884480Y-5925020D02*
X24909880D01*
G01X24914960D02*
X24940360D01*
G01X25120700D02*
X25143560D01*
G01X25158800D02*
X25184200D01*
G01X25265480D02*
X25290880D01*
G01X25367080D02*
X25402640D01*
G01X24884480Y-5927560D02*
X24909880D01*
G01X24914960D02*
X24940360D01*
G01X25118160D02*
X25143560D01*
G01X25158800D02*
X25186740D01*
G01X25265480D02*
X25290880D01*
G01X25367080D02*
X25402640D01*
G01X24881940Y-5930100D02*
X24907340D01*
G01X24914960D02*
X24940360D01*
G01X25118160D02*
X25143560D01*
G01X25158800D02*
X25186740D01*
G01X25265480D02*
X25290880D01*
G01X25367080D02*
X25402640D01*
G01X24881940Y-5932640D02*
X24907340D01*
G01X24914960D02*
X24937820D01*
G01X25118160D02*
X25143560D01*
G01X25161340D02*
X25186740D01*
G01X25265480D02*
X25290880D01*
G01X25367080D02*
X25405180D01*
G01X24879400Y-5935180D02*
X24907340D01*
G01X24914960D02*
X24937820D01*
G01X25118160D02*
X25143560D01*
G01X25161340D02*
X25189280D01*
G01X25265480D02*
X25290880D01*
G01X25369620D02*
X25405180D01*
G01X24879400Y-5937720D02*
X24904800D01*
G01X24914960D02*
X24937820D01*
G01X25118160D02*
X25141020D01*
G01X25161340D02*
X25189280D01*
G01X25265480D02*
X25290880D01*
G01X25369620D02*
X25405180D01*
G01X24879400Y-5940260D02*
X24904800D01*
G01X24914960D02*
X24937820D01*
G01X25115620D02*
X25141020D01*
G01X25161340D02*
X25189280D01*
G01X25262940D02*
X25288340D01*
G01X25369620D02*
X25405180D01*
G01X24876860Y-5942800D02*
X24902260D01*
G01X24912420D02*
X24937820D01*
G01X25115620D02*
X25141020D01*
G01X25163880D02*
X25189280D01*
G01X25262940D02*
X25288340D01*
G01X25369620D02*
X25405180D01*
G01X24876860Y-5945340D02*
X24902260D01*
G01X24912420D02*
X24937820D01*
G01X25115620D02*
X25141020D01*
G01X25163880D02*
X25191820D01*
G01X25262940D02*
X25288340D01*
G01X25372160D02*
X25407720D01*
G01X24874320Y-5947880D02*
X24899720D01*
G01X24912420D02*
X24937820D01*
G01X25115620D02*
X25141020D01*
G01X25163880D02*
X25191820D01*
G01X25262940D02*
X25288340D01*
G01X25372160D02*
X25407720D01*
G01X24874320Y-5950420D02*
X24899720D01*
G01X24912420D02*
X24937820D01*
G01X25113080D02*
X25141020D01*
G01X25166420D02*
X25191820D01*
G01X25262940D02*
X25288340D01*
G01X25372160D02*
X25407720D01*
G01X24871780Y-5952960D02*
X24897180D01*
G01X24909880D02*
X24937820D01*
G01X25113080D02*
X25138480D01*
G01X25166420D02*
X25194360D01*
G01X25260400D02*
X25285800D01*
G01X25372160D02*
X25407720D01*
G01X24871780Y-5955500D02*
X24897180D01*
G01X24909880D02*
X24935280D01*
G01X25113080D02*
X25138480D01*
G01X25166420D02*
X25194360D01*
G01X25260400D02*
X25285800D01*
G01X25372160D02*
X25407720D01*
G01X24869240Y-5958040D02*
X24894640D01*
G01X24909880D02*
X24935280D01*
G01X25113080D02*
X25138480D01*
G01X25168960D02*
X25196900D01*
G01X25260400D02*
X25285800D01*
G01X25372160D02*
X25407720D01*
G01X24869240Y-5960580D02*
X24894640D01*
G01X24909880D02*
X24935280D01*
G01X25113080D02*
X25138480D01*
G01X25168960D02*
X25196900D01*
G01X25260400D02*
X25285800D01*
G01X25372160D02*
X25407720D01*
G01X24866700Y-5963120D02*
X24892100D01*
G01X24909880D02*
X24935280D01*
G01X25113080D02*
X25138480D01*
G01X25168960D02*
X25196900D01*
G01X25260400D02*
X25285800D01*
G01X25372160D02*
X25407720D01*
G01X24866700Y-5965660D02*
X24892100D01*
G01X24909880D02*
X24932740D01*
G01X25113080D02*
X25135940D01*
G01X25171500D02*
X25196900D01*
G01X25260400D02*
X25283260D01*
G01X25372160D02*
X25407720D01*
G01X24907340Y-5968200D02*
X24932740D01*
G01X25113080D02*
X25138480D01*
G01X25171500D02*
X25199440D01*
G01X25260400D02*
X25283260D01*
G01X25372160D02*
X25407720D01*
G01X24907340Y-5970740D02*
X24932740D01*
G01X25113080D02*
X25138480D01*
G01X25171500D02*
X25199440D01*
G01X25260400D02*
X25283260D01*
G01X25372160D02*
X25407720D01*
G01X24907340Y-5973280D02*
X24932740D01*
G01X25113080D02*
X25135940D01*
G01X25174040D02*
X25201980D01*
G01X25260400D02*
X25283260D01*
G01X25372160D02*
X25407720D01*
G01X24907340Y-5975820D02*
X24932740D01*
G01X25110540D02*
X25135940D01*
G01X25174040D02*
X25201980D01*
G01X25257860D02*
X25283260D01*
G01X25372160D02*
X25407720D01*
G01X24907340Y-5978360D02*
X24932740D01*
G01X25110540D02*
X25135940D01*
G01X25174040D02*
X25201980D01*
G01X25257860D02*
X25283260D01*
G01X25372160D02*
X25407720D01*
G01X24907340Y-5980900D02*
X24932740D01*
G01X25031800D02*
X25047040D01*
G01X25110540D02*
X25135940D01*
G01X25174040D02*
X25201980D01*
G01X25257860D02*
X25283260D01*
G01X25372160D02*
X25407720D01*
G01X24907340Y-5983440D02*
X24932740D01*
G01X25019100D02*
X25059740D01*
G01X25110540D02*
X25135940D01*
G01X25176580D02*
X25204520D01*
G01X25257860D02*
X25283260D01*
G01X25372160D02*
X25407720D01*
G01X24907340Y-5985980D02*
X24932740D01*
G01X24958140D02*
X24968300D01*
G01X25014020D02*
X25062280D01*
G01X25108000D02*
X25135940D01*
G01X25176580D02*
X25204520D01*
G01X25257860D02*
X25283260D01*
G01X25372160D02*
X25407720D01*
G01X24904800Y-5988520D02*
X24932740D01*
G01X24953060D02*
X24975920D01*
G01X25011480D02*
X25064820D01*
G01X25108000D02*
X25133400D01*
G01X25179120D02*
X25204520D01*
G01X25255320D02*
X25280720D01*
G01X25372160D02*
X25407720D01*
G01X24904800Y-5991060D02*
X24930200D01*
G01X24953060D02*
X24978460D01*
G01X25006400D02*
X25067360D01*
G01X25108000D02*
X25133400D01*
G01X25179120D02*
X25207060D01*
G01X25255320D02*
X25280720D01*
G01X25374700D02*
X25407720D01*
G01X24904800Y-5993600D02*
X24930200D01*
G01X24950520D02*
X24981000D01*
G01X25003860D02*
X25069900D01*
G01X25108000D02*
X25133400D01*
G01X25179120D02*
X25207060D01*
G01X25255320D02*
X25280720D01*
G01X25374700D02*
X25407720D01*
G01X24904800Y-5996140D02*
X24930200D01*
G01X24950520D02*
X24983540D01*
G01X25001320D02*
X25072440D01*
G01X25108000D02*
X25133400D01*
G01X25179120D02*
X25207060D01*
G01X25255320D02*
X25280720D01*
G01X25374700D02*
X25407720D01*
G01X24904800Y-5998680D02*
X24930200D01*
G01X24950520D02*
X24986080D01*
G01X24998780D02*
X25072440D01*
G01X25108000D02*
X25130860D01*
G01X25181660D02*
X25207060D01*
G01X25255320D02*
X25280720D01*
G01X25374700D02*
X25407720D01*
G01X24904800Y-6001220D02*
X24927660D01*
G01X24950520D02*
X24986080D01*
G01X24998780D02*
X25072440D01*
G01X25108000D02*
X25130860D01*
G01X25181660D02*
X25209600D01*
G01X25255320D02*
X25278180D01*
G01X25374700D02*
X25407720D01*
G01X24902260Y-6003760D02*
X24927660D01*
G01X24953060D02*
X24988620D01*
G01X24996240D02*
X25072440D01*
G01X25108000D02*
X25130860D01*
G01X25184200D02*
X25209600D01*
G01X25255320D02*
X25278180D01*
G01X25372160D02*
X25407720D01*
G01X24902260Y-6006300D02*
X24927660D01*
G01X24955600D02*
X24991160D01*
G01X24993700D02*
X25069900D01*
G01X25108000D02*
X25130860D01*
G01X25184200D02*
X25212140D01*
G01X25255320D02*
X25278180D01*
G01X25372160D02*
X25407720D01*
G01X24902260Y-6008840D02*
X24927660D01*
G01X24960680D02*
X24991160D01*
G01X24993700D02*
X25024180D01*
G01X25039420D02*
X25069900D01*
G01X25105460D02*
X25130860D01*
G01X25184200D02*
X25212140D01*
G01X25252780D02*
X25278180D01*
G01X25372160D02*
X25407720D01*
G01X24902260Y-6011380D02*
X24927660D01*
G01X24965760D02*
X25016560D01*
G01X25044500D02*
X25067360D01*
G01X25105460D02*
X25130860D01*
G01X25184200D02*
X25212140D01*
G01X25252780D02*
X25278180D01*
G01X25372160D02*
X25407720D01*
G01X24902260Y-6013920D02*
X24925120D01*
G01X24968300D02*
X25014020D01*
G01X25049580D02*
X25064820D01*
G01X25105460D02*
X25130860D01*
G01X25186740D02*
X25214680D01*
G01X25252780D02*
X25278180D01*
G01X25372160D02*
X25407720D01*
G01X24902260Y-6016460D02*
X24925120D01*
G01X24970840D02*
X25011480D01*
G01X25054660D02*
X25057200D01*
G01X25105460D02*
X25130860D01*
G01X25186740D02*
X25214680D01*
G01X25252780D02*
X25278180D01*
G01X25372160D02*
X25407720D01*
G01X24902260Y-6019000D02*
X24925120D01*
G01X24973380D02*
X25008940D01*
G01X25105460D02*
X25130860D01*
G01X25189280D02*
X25214680D01*
G01X25252780D02*
X25278180D01*
G01X25372160D02*
X25407720D01*
G01X24899720Y-6021540D02*
X24925120D01*
G01X24973380D02*
X25008940D01*
G01X25102920D02*
X25128320D01*
G01X25189280D02*
X25214680D01*
G01X25250240D02*
X25275640D01*
G01X25372160D02*
X25407720D01*
G01X24899720Y-6024080D02*
X24925120D01*
G01X24973380D02*
X25006400D01*
G01X25102920D02*
X25128320D01*
G01X25189280D02*
X25217220D01*
G01X25250240D02*
X25275640D01*
G01X25372160D02*
X25407720D01*
G01X24899720Y-6026620D02*
X24925120D01*
G01X24975920D02*
X25006400D01*
G01X25102920D02*
X25128320D01*
G01X25189280D02*
X25217220D01*
G01X25250240D02*
X25275640D01*
G01X25372160D02*
X25407720D01*
G01X24899720Y-6029160D02*
X24925120D01*
G01X24975920D02*
X25003860D01*
G01X25102920D02*
X25128320D01*
G01X25191820D02*
X25219760D01*
G01X25250240D02*
X25275640D01*
G01X25372160D02*
X25407720D01*
G01X24899720Y-6031700D02*
X24925120D01*
G01X24975920D02*
X25003860D01*
G01X25102920D02*
X25128320D01*
G01X25191820D02*
X25219760D01*
G01X25250240D02*
X25275640D01*
G01X25372160D02*
X25407720D01*
G01X24899720Y-6034240D02*
X24922580D01*
G01X24975920D02*
X25001320D01*
G01X25102920D02*
X25125780D01*
G01X25191820D02*
X25219760D01*
G01X25247700D02*
X25275640D01*
G01X25372160D02*
X25407720D01*
G01X24897180Y-6036780D02*
X24922580D01*
G01X24973380D02*
X25001320D01*
G01X25102920D02*
X25125780D01*
G01X25194360D02*
X25219760D01*
G01X25247700D02*
X25273100D01*
G01X25372160D02*
X25407720D01*
G01X24897180Y-6039320D02*
X24922580D01*
G01X24973380D02*
X25001320D01*
G01X25102920D02*
X25125780D01*
G01X25194360D02*
X25222300D01*
G01X25247700D02*
X25273100D01*
G01X25372160D02*
X25407720D01*
G01X24897180Y-6041860D02*
X24922580D01*
G01X24973380D02*
X24998780D01*
G01X25102920D02*
X25125780D01*
G01X25196900D02*
X25222300D01*
G01X25250240D02*
X25273100D01*
G01X25372160D02*
X25407720D01*
G01X24897180Y-6044400D02*
X24922580D01*
G01X24973380D02*
X24998780D01*
G01X25100380D02*
X25125780D01*
G01X25194360D02*
X25224840D01*
G01X25247700D02*
X25273100D01*
G01X25372160D02*
X25407720D01*
G01X24897180Y-6046940D02*
X24922580D01*
G01X24973380D02*
X24998780D01*
G01X25100380D02*
X25125780D01*
G01X25196900D02*
X25224840D01*
G01X25247700D02*
X25273100D01*
G01X25372160D02*
X25407720D01*
G01X24897180Y-6049480D02*
X24920040D01*
G01X24973380D02*
X24996240D01*
G01X25100380D02*
X25125780D01*
G01X25196900D02*
X25224840D01*
G01X25247700D02*
X25273100D01*
G01X25369620D02*
X25405180D01*
G01X24897180Y-6052020D02*
X24920040D01*
G01X24973380D02*
X24996240D01*
G01X25100380D02*
X25125780D01*
G01X25199440D02*
X25224840D01*
G01X25247700D02*
X25273100D01*
G01X25369620D02*
X25405180D01*
G01X24897180Y-6054560D02*
X24920040D01*
G01X24973380D02*
X24996240D01*
G01X25100380D02*
X25125780D01*
G01X25199440D02*
X25224840D01*
G01X25247700D02*
X25273100D01*
G01X25369620D02*
X25405180D01*
G01X24894640Y-6057100D02*
X24920040D01*
G01X24973380D02*
X24996240D01*
G01X25097840D02*
X25123240D01*
G01X25199440D02*
X25227380D01*
G01X25245160D02*
X25270560D01*
G01X25369620D02*
X25405180D01*
G01X24894640Y-6059640D02*
X24920040D01*
G01X24973380D02*
X24996240D01*
G01X25097840D02*
X25123240D01*
G01X25201980D02*
X25227380D01*
G01X25245160D02*
X25270560D01*
G01X25367080D02*
X25405180D01*
G01X24894640Y-6062180D02*
X24920040D01*
G01X24970840D02*
X24996240D01*
G01X25097840D02*
X25123240D01*
G01X25201980D02*
X25229920D01*
G01X25245160D02*
X25270560D01*
G01X25367080D02*
X25405180D01*
G01X24894640Y-6064720D02*
X24920040D01*
G01X24970840D02*
X24996240D01*
G01X25097840D02*
X25123240D01*
G01X25201980D02*
X25229920D01*
G01X25245160D02*
X25270560D01*
G01X25367080D02*
X25402640D01*
G01X24894640Y-6067260D02*
X24920040D01*
G01X24970840D02*
X24996240D01*
G01X25097840D02*
X25120700D01*
G01X25201980D02*
X25229920D01*
G01X25245160D02*
X25270560D01*
G01X25367080D02*
X25402640D01*
G01X24892100Y-6069800D02*
X24917500D01*
G01X24970840D02*
X24993700D01*
G01X25095300D02*
X25120700D01*
G01X25204520D02*
X25232460D01*
G01X25242620D02*
X25268020D01*
G01X25367080D02*
X25402640D01*
G01X24892100Y-6072340D02*
X24917500D01*
G01X24968300D02*
X24993700D01*
G01X25095300D02*
X25120700D01*
G01X25204520D02*
X25232460D01*
G01X25242620D02*
X25268020D01*
G01X25367080D02*
X25402640D01*
G01X24892100Y-6074880D02*
X24917500D01*
G01X24968300D02*
X24993700D01*
G01X25095300D02*
X25120700D01*
G01X25207060D02*
X25232460D01*
G01X25242620D02*
X25268020D01*
G01X25367080D02*
X25400100D01*
G01X24892100Y-6077420D02*
X24917500D01*
G01X24968300D02*
X24993700D01*
G01X25095300D02*
X25120700D01*
G01X25207060D02*
X25235000D01*
G01X25242620D02*
X25268020D01*
G01X25364540D02*
X25402640D01*
G01X24892100Y-6079960D02*
X24917500D01*
G01X24968300D02*
X24991160D01*
G01X25095300D02*
X25120700D01*
G01X25207060D02*
X25235000D01*
G01X25242620D02*
X25268020D01*
G01X25364540D02*
X25400100D01*
G01X24889560Y-6082500D02*
X24914960D01*
G01X24968300D02*
X24991160D01*
G01X25095300D02*
X25120700D01*
G01X25207060D02*
X25235000D01*
G01X25242620D02*
X25265480D01*
G01X25364540D02*
X25400100D01*
G01X24889560Y-6085040D02*
X24914960D01*
G01X24968300D02*
X24991160D01*
G01X25095300D02*
X25120700D01*
G01X25209600D02*
X25237540D01*
G01X25242620D02*
X25265480D01*
G01X25362000D02*
X25400100D01*
G01X24889560Y-6087580D02*
X24914960D01*
G01X24965760D02*
X24991160D01*
G01X25095300D02*
X25120700D01*
G01X25209600D02*
X25237540D01*
G01X25242620D02*
X25265480D01*
G01X25362000D02*
X25400100D01*
G01X24892100Y-6090120D02*
X24914960D01*
G01X24965760D02*
X24991160D01*
G01X25095300D02*
X25118160D01*
G01X25212140D02*
X25237540D01*
G01X25242620D02*
X25265480D01*
G01X25362000D02*
X25397560D01*
G01X24889560Y-6092660D02*
X24914960D01*
G01X24968300D02*
X24991160D01*
G01X25092760D02*
X25118160D01*
G01X25212140D02*
X25265480D01*
G01X25359460D02*
X25397560D01*
G01X24889560Y-6095200D02*
X24914960D01*
G01X24965760D02*
X24991160D01*
G01X25092760D02*
X25118160D01*
G01X25212140D02*
X25265480D01*
G01X25359460D02*
X25397560D01*
G01X24889560Y-6097740D02*
X24914960D01*
G01X24965760D02*
X24991160D01*
G01X25092760D02*
X25118160D01*
G01X25212140D02*
X25265480D01*
G01X25359460D02*
X25395020D01*
G01X24889560Y-6100280D02*
X24914960D01*
G01X24965760D02*
X24991160D01*
G01X25092760D02*
X25118160D01*
G01X25214680D02*
X25265480D01*
G01X25359460D02*
X25395020D01*
G01X24889560Y-6102820D02*
X24914960D01*
G01X24965760D02*
X24988620D01*
G01X25090220D02*
X25115620D01*
G01X25214680D02*
X25265480D01*
G01X25359460D02*
X25395020D01*
G01X24887020Y-6105360D02*
X24912420D01*
G01X24965760D02*
X24988620D01*
G01X25090220D02*
X25115620D01*
G01X25214680D02*
X25262940D01*
G01X25356920D02*
X25395020D01*
G01X24887020Y-6107900D02*
X24912420D01*
G01X24963220D02*
X24988620D01*
G01X25090220D02*
X25115620D01*
G01X25217220D02*
X25262940D01*
G01X25356920D02*
X25395020D01*
G01X24887020Y-6110440D02*
X24912420D01*
G01X24963220D02*
X24988620D01*
G01X25090220D02*
X25115620D01*
G01X25217220D02*
X25262940D01*
G01X25356920D02*
X25392480D01*
G01X24887020Y-6112980D02*
X24912420D01*
G01X24963220D02*
X24988620D01*
G01X25090220D02*
X25115620D01*
G01X25217220D02*
X25262940D01*
G01X25354380D02*
X25392480D01*
G01X24884480Y-6115520D02*
X24912420D01*
G01X24963220D02*
X24986080D01*
G01X25026720D02*
X25054660D01*
G01X25090220D02*
X25113080D01*
G01X25219760D02*
X25260400D01*
G01X25354380D02*
X25389940D01*
G01X24884480Y-6118060D02*
X24909880D01*
G01X24963220D02*
X24986080D01*
G01X25026720D02*
X25054660D01*
G01X25090220D02*
X25113080D01*
G01X25219760D02*
X25260400D01*
G01X25354380D02*
X25389940D01*
G01X24884480Y-6120600D02*
X24909880D01*
G01X24960680D02*
X24986080D01*
G01X25024180D02*
X25054660D01*
G01X25090220D02*
X25113080D01*
G01X25219760D02*
X25260400D01*
G01X25351840D02*
X25389940D01*
G01X24884480Y-6123140D02*
X24909880D01*
G01X24960680D02*
X24986080D01*
G01X25024180D02*
X25054660D01*
G01X25090220D02*
X25113080D01*
G01X25222300D02*
X25260400D01*
G01X25351840D02*
X25389940D01*
G01X24884480Y-6125680D02*
X24909880D01*
G01X24960680D02*
X24986080D01*
G01X25024180D02*
X25054660D01*
G01X25087680D02*
X25113080D01*
G01X25222300D02*
X25260400D01*
G01X25349300D02*
X25387400D01*
G01X24884480Y-6128220D02*
X24909880D01*
G01X24960680D02*
X24983540D01*
G01X25024180D02*
X25054660D01*
G01X25087680D02*
X25113080D01*
G01X25222300D02*
X25260400D01*
G01X25349300D02*
X25387400D01*
G01X24884480Y-6130760D02*
X24907340D01*
G01X24960680D02*
X24983540D01*
G01X25024180D02*
X25054660D01*
G01X25087680D02*
X25113080D01*
G01X25224840D02*
X25260400D01*
G01X25349300D02*
X25384860D01*
G01X24884480Y-6133300D02*
X24907340D01*
G01X24960680D02*
X24983540D01*
G01X25024180D02*
X25054660D01*
G01X25087680D02*
X25113080D01*
G01X25224840D02*
X25260400D01*
G01X25346760D02*
X25384860D01*
G01X24884480Y-6135840D02*
X24907340D01*
G01X24960680D02*
X24986080D01*
G01X25021640D02*
X25054660D01*
G01X25087680D02*
X25110540D01*
G01X25224840D02*
X25260400D01*
G01X25346760D02*
X25384860D01*
G01X24881940Y-6138380D02*
X24907340D01*
G01X24960680D02*
X24983540D01*
G01X25021640D02*
X25052120D01*
G01X25085140D02*
X25110540D01*
G01X25227380D02*
X25257860D01*
G01X25346760D02*
X25384860D01*
G01X24881940Y-6140920D02*
X24907340D01*
G01X24960680D02*
X24983540D01*
G01X25021640D02*
X25052120D01*
G01X25085140D02*
X25110540D01*
G01X25227380D02*
X25257860D01*
G01X25344220D02*
X25382320D01*
G01X24881940Y-6143460D02*
X24907340D01*
G01X24958140D02*
X24983540D01*
G01X25021640D02*
X25052120D01*
G01X25085140D02*
X25110540D01*
G01X25227380D02*
X25257860D01*
G01X25344220D02*
X25382320D01*
G01X24881940Y-6146000D02*
X24907340D01*
G01X24958140D02*
X24983540D01*
G01X25019100D02*
X25052120D01*
G01X25085140D02*
X25110540D01*
G01X25227380D02*
X25257860D01*
G01X25341680D02*
X25379780D01*
G01X24881940Y-6148540D02*
X24907340D01*
G01X24958140D02*
X24983540D01*
G01X25019100D02*
X25052120D01*
G01X25085140D02*
X25108000D01*
G01X25229920D02*
X25257860D01*
G01X25341680D02*
X25379780D01*
G01X24879400Y-6151080D02*
X24904800D01*
G01X24958140D02*
X24981000D01*
G01X25019100D02*
X25052120D01*
G01X25085140D02*
X25108000D01*
G01X25229920D02*
X25255320D01*
G01X25339140D02*
X25377240D01*
G01X24879400Y-6153620D02*
X24904800D01*
G01X24958140D02*
X24981000D01*
G01X25019100D02*
X25049580D01*
G01X25085140D02*
X25108000D01*
G01X25232460D02*
X25255320D01*
G01X25339140D02*
X25377240D01*
G01X24879400Y-6156160D02*
X24904800D01*
G01X24958140D02*
X24981000D01*
G01X25019100D02*
X25049580D01*
G01X25085140D02*
X25108000D01*
G01X25232460D02*
X25255320D01*
G01X25336600D02*
X25377240D01*
G01X25336600Y-6158700D02*
X25374700D01*
G01X25336600Y-6161240D02*
X25374700D01*
G01X25334060Y-6163780D02*
X25372160D01*
G01X25331520Y-6166320D02*
X25372160D01*
G01X25331520Y-6168860D02*
X25372160D01*
G01X25328980Y-6171400D02*
X25369620D01*
G01X25328980Y-6173940D02*
X25369620D01*
G01X25326440Y-6176480D02*
X25367080D01*
G01X25326440Y-6179020D02*
X25364540D01*
G01X25323900Y-6181560D02*
X25364540D01*
G01X25323900Y-6184100D02*
X25364540D01*
G01X25321360Y-6186640D02*
X25362000D01*
G01X25318820Y-6189180D02*
X25359460D01*
G01X25316280Y-6191720D02*
X25359460D01*
G01X25316280Y-6194260D02*
X25356920D01*
G01X25313740Y-6196800D02*
X25356920D01*
G01X25313740Y-6199340D02*
X25354380D01*
G01X25311200Y-6201880D02*
X25354380D01*
G01X25311200Y-6204420D02*
X25351840D01*
G01X25308660Y-6206960D02*
X25349300D01*
G01X25306120Y-6209500D02*
X25349300D01*
G01X25303580Y-6212040D02*
X25346760D01*
G01X25301040Y-6214580D02*
X25346760D01*
G01X25301040Y-6217120D02*
X25344220D01*
G01X25298500Y-6219660D02*
X25341680D01*
G01X25295960Y-6222200D02*
X25339140D01*
G01X25295960Y-6224740D02*
X25339140D01*
G01X25293420Y-6227280D02*
X25336600D01*
G01X25290880Y-6229820D02*
X25336600D01*
G01X25288340Y-6232360D02*
X25334060D01*
G01X25285800Y-6234900D02*
X25331520D01*
G01X25283260Y-6237440D02*
X25328980D01*
G01X25280720Y-6239980D02*
X25328980D01*
G01X25278180Y-6242520D02*
X25326440D01*
G01X25275640Y-6245060D02*
X25323900D01*
G01X25275640Y-6247600D02*
X25321360D01*
G01X25273100Y-6250140D02*
X25318820D01*
G01X25270560Y-6252680D02*
X25318820D01*
G01X25268020Y-6255220D02*
X25316280D01*
G01X25265480Y-6257760D02*
X25313740D01*
G01X25262940Y-6260300D02*
X25311200D01*
G01X25260400Y-6262840D02*
X25308660D01*
G01X25257860Y-6265380D02*
X25306120D01*
G01X25252780Y-6267920D02*
X25306120D01*
G01X25250240Y-6270460D02*
X25303580D01*
G01X25247700Y-6273000D02*
X25301040D01*
G01X25245160Y-6275540D02*
X25298500D01*
G01X25242620Y-6278080D02*
X25295960D01*
G01X25240080Y-6280620D02*
X25293420D01*
G01X25237540Y-6283160D02*
X25290880D01*
G01X25235000Y-6285700D02*
X25288340D01*
G01X25229920Y-6288240D02*
X25285800D01*
G01X25227380Y-6290780D02*
X25283260D01*
G01X25222300Y-6293320D02*
X25280720D01*
G01X25219760Y-6295860D02*
X25278180D01*
G01X25217220Y-6298400D02*
X25273100D01*
G01X25214680Y-6300940D02*
X25270560D01*
G01X25209600Y-6303480D02*
X25268020D01*
G01X25204520Y-6306020D02*
X25265480D01*
G01X25201980Y-6308560D02*
X25262940D01*
G01X25196900Y-6311100D02*
X25257860D01*
G01X25194360Y-6313640D02*
X25255320D01*
G01X25189280Y-6316180D02*
X25252780D01*
G01X25184200Y-6318720D02*
X25250240D01*
G01X25181660Y-6321260D02*
X25245160D01*
G01X25174040Y-6323800D02*
X25242620D01*
G01X25171500Y-6326340D02*
X25240080D01*
G01X25163880Y-6328880D02*
X25235000D01*
G01X25158800Y-6331420D02*
X25229920D01*
G01X25153720Y-6333960D02*
X25227380D01*
G01X25148640Y-6336500D02*
X25224840D01*
G01X25141020Y-6339040D02*
X25219760D01*
G01X25133400Y-6341580D02*
X25214680D01*
G01X25128320Y-6344120D02*
X25212140D01*
G01X25120700Y-6346660D02*
X25207060D01*
G01X25113080Y-6349200D02*
X25201980D01*
G01X25102920Y-6351740D02*
X25199440D01*
G01X25095300Y-6354280D02*
X25194360D01*
G01X25085140Y-6356820D02*
X25189280D01*
G01X25069900Y-6359360D02*
X25184200D01*
G01X25059740Y-6361900D02*
X25176580D01*
G01X25021640Y-6364440D02*
X25171500D01*
G01X24953060Y-5594820D02*
X25057200D01*
G01X24940360Y-5597360D02*
X25069900D01*
G01X24922580Y-5599900D02*
X25087680D01*
G01X24912420Y-5602440D02*
X25097840D01*
G01X24904800Y-5604980D02*
X25105460D01*
G01X24892100Y-5607520D02*
X25118160D01*
G01X24887020Y-5610060D02*
X25123240D01*
G01X24876860Y-5612600D02*
X25133400D01*
G54D16*
G01X34070320Y18305880D02*
Y18250000D01*
G01X34054740Y18305880D02*
X34085900D01*
G01X34114680Y18250000D02*
Y18305880D01*
G01Y18278870D02*
X34118070Y18283530D01*
X34121460Y18286320D01*
X34126880Y18287250D01*
X34130940Y18286320D01*
X34135680Y18282600D01*
X34137720Y18277010D01*
Y18250000D01*
G01X34182080Y18287250D02*
Y18250000D01*
G01Y18302150D02*
X34180730Y18303080D01*
Y18304950D01*
X34182080Y18305880D01*
X34183430Y18304950D01*
Y18303080D01*
X34182080Y18302150D01*
G01X34227800Y18256520D02*
X34231190Y18252790D01*
X34235930Y18250000D01*
X34239990D01*
X34244060Y18251860D01*
X34246770Y18254660D01*
X34248120Y18258380D01*
X34247440Y18263970D01*
X34244730Y18266760D01*
X34232540Y18272350D01*
X34229830Y18278870D01*
X34231190Y18283530D01*
X34233900Y18286320D01*
X34237960Y18287250D01*
X34242020Y18286320D01*
X34246090Y18283530D01*
G01X34349720Y18287250D02*
Y18250000D01*
G01Y18302150D02*
X34348370Y18303080D01*
Y18304950D01*
X34349720Y18305880D01*
X34351070Y18304950D01*
Y18303080D01*
X34349720Y18302150D01*
G01X34395440Y18256520D02*
X34398830Y18252790D01*
X34403570Y18250000D01*
X34407630D01*
X34411700Y18251860D01*
X34414410Y18254660D01*
X34415760Y18258380D01*
X34415080Y18263970D01*
X34412370Y18266760D01*
X34400180Y18272350D01*
X34397470Y18278870D01*
X34398830Y18283530D01*
X34401540Y18286320D01*
X34405600Y18287250D01*
X34409660Y18286320D01*
X34413730Y18283530D01*
G01X34573240Y18250000D02*
Y18305880D01*
X34565110Y18294700D01*
G01Y18250000D02*
X34581370D01*
G01X34685000Y18305880D02*
Y18250000D01*
G01X34669420Y18305880D02*
X34700580D01*
G01X34730720Y18275150D02*
X34752400D01*
X34750360Y18281670D01*
X34746980Y18285390D01*
X34742230Y18287250D01*
X34737490Y18286320D01*
X34733430Y18283530D01*
X34730720Y18277010D01*
X34729360Y18271420D01*
Y18265830D01*
X34730720Y18260240D01*
X34734110Y18254660D01*
X34738170Y18250930D01*
X34742910Y18250000D01*
X34747650Y18251860D01*
X34752400Y18257450D01*
G01X34786600Y18287250D02*
X34806920Y18250000D01*
G01Y18287250D02*
X34786600Y18250000D01*
G01X34852640Y18305880D02*
Y18250000D01*
G01X34843160Y18287250D02*
X34862120D01*
M02*
